<svg width="1803" height="4000" viewBox="0 0 1803 4000" fill="#1B1B1B" xmlns="http://www.w3.org/2000/svg">
<path d="M1793.2 3385.35C1775.41 3381.47 1762.63 3375.85 1750.3 3366.5C1710.68 3336.47 1713.25 3341.02 1673.25 3330.16C1627.98 3317.87 1565.62 3333.68 1478.87 3379.45C1462.66 3388 1405.64 3447.44 1391.77 3470.24C1338.46 3557.89 1355.28 3538.34 1332.96 3586.95C1328.1 3597.54 1322.33 3610.54 1320.14 3615.84C1315.81 3626.31 1307.37 3629.34 1310.37 3619.34C1339.18 3523.31 1333.58 3448.35 1366.45 3404.83C1396.13 3365.52 1377 3358.6 1433.64 3299.76C1487.63 3243.64 1473.7 3247.16 1510.34 3211.98C1522.84 3199.98 1538.02 3181.33 1544.09 3170.54C1559.99 3142.23 1560.9 3151.45 1578.75 3096.62C1595.79 3044.28 1587.21 2983.64 1595.9 2945.35C1601.93 2918.8 1593.28 2906.98 1585.5 2931.14C1573.76 2967.58 1567.35 2941.42 1555.69 2963.98C1540.4 2993.55 1472.32 3052.6 1468.14 3065.81C1467.04 3069.28 1464.86 3072.11 1463.3 3072.11C1459.14 3072.11 1435.45 3107.35 1418.54 3122.98C1401.26 3138.94 1412.62 3134.23 1397.7 3149.8C1392.54 3155.18 1384.93 3170.08 1380.77 3182.92C1370.68 3214.05 1367.89 3200.8 1373.7 3182.3C1381.37 3157.88 1389.55 3125.82 1395.54 3114.14C1402.27 3100.99 1398.5 3096.19 1403.17 3091.2C1404.88 3089.36 1409.9 3076.05 1414.33 3061.6C1424.65 3027.93 1451.24 2977.83 1474.19 2948.82C1489.43 2929.55 1507.66 2887.46 1518.3 2876.82C1526.9 2868.22 1557.52 2816.21 1564.16 2798.93C1595.56 2717.18 1609.76 2611.27 1610.06 2533.59C1610.28 2473.76 1622.04 2494.94 1614.07 2470.8C1605.74 2445.56 1613.18 2302.13 1623.98 2279.76C1646.84 2232.4 1562.23 2280.6 1524.94 2336.18C1492.11 2385.12 1514.1 2342.86 1488.71 2390.91C1452.25 2459.9 1427.66 2554.12 1422.69 2618.56C1420.31 2649.35 1413.2 2683.79 1397.98 2738.25C1391.42 2761.71 1386.06 2784.06 1386.06 2787.91C1386.06 2798.67 1375.55 2801.2 1375.55 2813.92C1375.55 2822.21 1370.97 2839.21 1364.97 2853.22C1350.84 2886.13 1346.66 2994.28 1339.14 2963.54C1320.17 2886.01 1314.24 2845.27 1314.66 2795.43C1315.81 2659.13 1332.95 2655.23 1344.02 2601.16C1345.59 2593.52 1348.61 2586.68 1350.73 2585.98C1352.85 2585.27 1353.86 2583.52 1352.98 2582.1C1349.78 2576.9 1372.95 2498.26 1374.03 2475.25C1376.55 2421.48 1387.71 2316.34 1367.88 2256.07C1357.34 2224.04 1354.52 2213.63 1354.52 2206.57C1354.5 2194.8 1337.21 2152.08 1337.1 2143.12C1336.89 2125.81 1327.26 2139.3 1322.09 2164.14C1313.88 2203.64 1310.61 2215.37 1304.21 2228.18C1296.15 2244.34 1299.8 2249.07 1294.59 2249.07C1292.37 2249.07 1291.49 2252.17 1292.56 2256.25C1295.07 2265.84 1285.02 2305.84 1278.86 2310.74C1271.63 2316.51 1275.74 2322.61 1270.05 2322.61C1267.26 2322.61 1267.33 2324.07 1270.29 2327.64C1277.59 2336.44 1265.94 2338.69 1265.24 2362.08C1264.15 2398.37 1243.6 2387.16 1233.83 2344.95C1230.31 2329.78 1224.69 2311.85 1221.32 2305.1C1213.28 2289 1196.93 2240.12 1196.93 2232.18C1196.93 2222.92 1191.99 2224.24 1188.62 2209.9L1186.4 2200.5C1194.43 2201.11 1224.9 2203.09 1228.02 2205.02C1234.33 2208.92 1240.77 2200.31 1236.26 2194C1228.3 2182.87 1205.92 2126.05 1192.58 2110.47C1182.19 2098.34 1191.02 2078.99 1214.44 2062.52C1250.94 2036.86 1255.47 2035.4 1304.9 2033.45C1341.36 2032 1364.89 2036.68 1389.56 2050.28C1430.15 2072.65 1495.6 2076.21 1538.4 2058.36C1544.18 2055.96 1554.43 2051.91 1561.17 2049.37C1580.58 2042.07 1576.78 2038.12 1598.63 2039.28C1616.79 2040.24 1617.21 2039.95 1617.21 2026.29C1617.21 2019.93 1615.73 2017.73 1612.33 2019.04C1604.68 2021.97 1593.93 2007.74 1584.85 1982.66C1562.78 1921.73 1520.72 1888.12 1426.33 1855.96C1382.46 1841.01 1270.26 1852.84 1252.97 1874.24C1252 1875.43 1246.06 1880.01 1239.76 1884.41C1227.32 1893.1 1224.31 1899.03 1207.35 1948.36C1199.82 1970.26 1195.14 1992.18 1193.23 2014.41C1189.44 2058.65 1179.19 2094.37 1172.57 2086.4C1163.62 2075.61 1178.53 2073.81 1172.07 2052.29C1167.59 2037.33 1171.39 1960.97 1178.24 1928.6C1231.67 1675.91 1282.32 1673.85 1289.99 1649.26C1297.3 1625.84 1414.32 1508.9 1446.87 1492.51C1460.1 1485.84 1517.41 1422.63 1548.91 1379.95C1552.76 1374.73 1562.81 1361.49 1571.23 1350.53C1586.2 1331.05 1610.01 1288.05 1610.14 1280.27C1610.24 1274.46 1645.23 1184.25 1645.23 1165.62C1645.23 1150.04 1657.3 1116.63 1654.37 1093.3C1651.15 1067.57 1661.64 1051.43 1654.83 1047.22C1649.55 1043.95 1645.23 1046.84 1645.23 1053.64C1645.23 1069.34 1448.14 1229.62 1439.46 1236C1385.63 1275.57 1310.54 1363.69 1284.39 1418C1280.48 1426.1 1275.93 1433.57 1274.27 1434.6C1270.49 1436.94 1200.43 1611.5 1200.43 1630.35C1200.43 1633.44 1196.68 1644.29 1192.1 1654.45C1174.31 1693.89 1166.36 1732.01 1171.57 1676.18C1174.05 1649.65 1171.28 1533.85 1167.64 1511.83C1160.57 1469.06 1148.01 1421.43 1137.17 1396.25C1125.26 1368.6 1123.46 1343.58 1083.45 1264.84L1087.54 1232.48C1098.3 1147.35 1143.52 1089.32 1207.07 1079.08C1229.71 1075.43 1237.94 1072.53 1254.72 1062.25C1260.5 1058.7 1267.21 1056.54 1269.63 1057.43C1276.03 1059.79 1306.12 1044.15 1315.17 1033.77C1328.87 1018.05 1325.45 998.742 1308.96 998.742C1305.68 998.742 1295.29 991.156 1285.86 981.882C1252 948.565 1222.45 935.634 1177.81 934.601C1148.67 933.925 1147.61 934.261 1104.92 957.503C1093.56 963.688 1053.16 1001.5 1054.11 1005.06C1054.46 1006.4 1051.34 1014.03 1047.16 1022.01C1006.26 1100.18 1023.9 1219.38 1005.46 1180.86C996.551 1162.26 997.693 1118.65 1009.5 1026.76C1018.73 954.856 1013.44 865.08 1041.21 884.526C1047.1 888.652 1064.11 892.039 1112.27 898.686C1166.65 906.188 1235.75 808.862 1198.19 777.685C1190.82 771.571 1197.39 770.399 1184.93 757.277C1178.63 750.649 1162.36 726.94 1154.06 693.689L1172.87 696.092C1211.29 701 1182.88 704.706 1217.7 757.123C1225.54 768.929 1231.96 779.44 1231.96 780.469C1231.96 787.039 1271.31 831.904 1283.01 838.677C1297.78 847.226 1321.43 870.091 1428.09 896.871C1505.32 916.26 1543.9 930.16 1556.24 943.042C1561.6 948.635 1567.93 953.213 1570.29 953.213C1572.66 953.213 1575.34 955.181 1576.24 957.591C1580.28 968.367 1588.24 948.751 1585.01 935.999C1579.57 914.553 1578.41 874.413 1568.05 845.548C1557.81 816.987 1553.85 801.572 1548.34 798.144C1541.74 794.05 1526.32 760.589 1520.02 760.589C1517.62 760.586 1515.59 758.614 1515.52 756.208C1515.33 749.68 1502.17 735.418 1481.49 719.336C1467.02 708.083 1464.4 704.64 1469.23 703.218C1508.2 691.739 1592.36 697.053 1656.73 627.544C1679.55 602.888 1682.15 598.335 1728.37 502.19C1740.23 477.516 1743.7 479.46 1679.51 474.833C1633.32 471.506 1553.04 494.421 1536.66 515.614C1534.45 518.475 1520.4 525.932 1517.22 525.932C1515.9 525.932 1515.86 522.384 1517.12 518.052C1520.6 506.094 1521.41 480.885 1526.29 462.891C1532.98 438.224 1531.65 436.645 1513.02 447.215C1491.81 459.249 1391.45 475.097 1409.65 463.539C1419.14 457.512 1418.91 439.384 1409.22 429.693C1404.18 424.66 1400.07 418.174 1400.07 415.278C1400.07 400.151 1382.03 382.339 1366.7 382.339C1360.22 382.339 1358.8 367.483 1356.18 358.902C1354.01 351.761 1337.13 342.746 1326.49 343.047C1319.45 343.247 1315.69 341.307 1314.23 336.726C1305.18 308.186 1254.66 304.245 1249.17 331.651L1247.08 342.063C1243.94 334.429 1238.96 324.626 1238.96 308.564C1238.96 291.077 1231.68 290.279 1215.48 305.986C1204.62 316.511 1203.21 316.938 1192.3 312.991C1176.09 307.132 1154.44 307.755 1145.03 314.35C1138.5 318.924 1136.13 319.11 1131.66 315.397C1117.67 303.79 1077.86 312.319 1077.86 326.923C1077.86 333.091 1075.75 333.557 1053.98 332.194C1031.5 330.783 1030.13 331.126 1030.34 338.099C1030.52 343.65 1028.38 345.569 1021.82 345.783C980.912 347.11 1008.15 372.809 989.422 360.5C972.422 349.317 970.677 329.806 986.683 329.806C990 329.806 995.534 326.689 998.979 322.882C1008.61 312.233 1006.87 322.657 1015.91 312.116C1026.08 300.233 1046.43 305.459 1051.06 321.138C1052.19 324.942 1052.38 321.555 1051.5 313.608C1049.73 297.683 1055.25 277.507 1061.56 276.855C1068.41 276.142 1073.12 278.593 1076.05 273.846C1079.23 268.701 1096.25 273.671 1101.7 281.338C1109.23 291.939 1113.43 288.762 1112.24 273.356C1109.9 243.065 1142.65 236.466 1161.31 263.466C1170.64 276.971 1175.92 280.606 1175.92 273.535C1175.92 239.618 1233.99 238.617 1248.06 272.288C1254.12 286.809 1253.67 286.773 1266.98 273.766C1291.16 250.133 1324 269.266 1318.41 303.728C1316.38 316.259 1323.58 321.495 1327.79 310.54C1329.98 304.817 1347.53 303.161 1347.53 308.68C1347.53 315.125 1359.38 303.196 1357.43 314.316C1355.66 324.374 1368.48 320.738 1372.48 327.067C1373.88 329.284 1377.47 329.022 1382.49 326.338C1393.92 320.22 1399.95 327.263 1391.38 336.726C1387.86 340.624 1386.4 343.997 1388.14 344.218C1389.89 344.439 1393.68 344.834 1396.56 345.094C1403.84 345.745 1405.1 359.292 1398.5 365.891C1391.71 372.682 1391.39 380.229 1398 377.69C1413.76 371.645 1441.39 393.289 1432.14 404.43C1427.12 410.482 1430.33 413.858 1441.11 413.858C1451.68 413.858 1461.27 434.413 1458.1 450.282C1456.47 458.446 1456.93 459.962 1460.1 456.796C1466.12 450.779 1464.79 421.524 1458.17 414.204C1450.55 405.785 1450.94 405.189 1464.52 404.503C1523.83 401.498 1569.51 327.298 1569.81 233.489C1569.97 181.164 1573.38 176.899 1576 168.462C1558.92 169.073 1536.62 170.561 1501.19 167.141C1466.17 163.765 1429.89 170.492 1404.27 185.118C1385.4 195.891 1351.03 229.373 1351.03 236.994C1351.03 240.135 1349.36 245.831 1347.32 249.648C1345.28 253.466 1343.07 264.284 1342.42 273.691C1340.67 299.054 1327.68 311.254 1327.68 287.539C1327.68 262.276 1277.75 242.993 1265.15 263.387C1261.5 269.292 1254.3 267.029 1249.77 258.561C1237.67 235.957 1196.35 230.707 1179.72 249.662L1171.18 259.391L1159.42 249.066C1140.19 232.185 1109.65 237.246 1104.39 258.189C1101.83 268.398 1091.86 269.733 1091.86 259.867C1091.86 255.714 1093.64 253.654 1096.33 254.687C1101.54 256.687 1100.77 194.419 1095.19 162.097C1086.33 110.887 1047.33 64.092 988.19 33.752C952.233 15.303 948.494 7.479 942.286 0C934.814 82.517 901.21 193.936 978.918 281.361C1001.41 306.662 1001.61 322.797 979.458 322.797C975.36 322.797 971.266 326.356 969.245 331.665C966.092 339.955 965.36 340.193 957.95 335.339C953.59 332.485 928.748 320.58 902.743 308.886C861.972 290.551 853.2 285.116 839.018 269.412C823.138 251.82 814.168 248.276 821.849 262.625C827.5 273.189 821.2 323.67 825.999 376.818C829.884 419.735 831.201 418.884 802.138 392.242C748.84 343.388 703.465 321.092 662.326 323.551C639.915 324.889 627.048 331.211 632.617 338.149C634.347 340.303 636.82 347.577 638.119 354.319C641.062 369.625 643.114 372.618 655.914 405.102C667.906 435.544 686.059 468.848 696.961 480.402C714.084 498.551 712.549 501.416 685.718 501.416C609.676 501.416 524.493 550.206 524.493 593.761C524.493 596.587 522.528 599.554 520.125 600.352C513.259 602.647 531.497 606.847 531.497 617.118C531.497 624.315 536.603 626.399 540.158 620.648C543.916 614.564 563.074 626.493 594.538 654.515C604.926 663.765 625.53 675.893 627.506 673.918C628.613 672.811 632.286 674.317 635.67 677.27C651.823 691.353 729.139 706.819 764.775 703.092C803.711 699.022 827.456 694.627 840.463 689.086C860.69 680.467 867.519 684.116 855.779 697.271C831.213 724.789 876.663 811.895 924.631 829.234C934.433 832.776 925.699 834.682 941.015 841.037C956.172 847.312 952.911 856.807 960.632 853.841C966.285 851.673 966.225 853.186 959.15 891.922C954.899 915.195 952.138 927.964 948.202 942.555C943.232 960.977 940.098 1099.15 944.188 1119.57C949.105 1144.13 950.878 1144.39 913.459 1115.11C905.831 1109.14 901.961 1101.66 898.053 1085.34C845.876 867.414 720.27 825.519 668.49 778.384C661.969 772.448 655.93 767.59 655.076 767.59C651.013 767.59 659.619 793.416 673.165 821.876C747.745 978.536 720.126 1062.24 774.49 1184.89C777.61 1191.93 780.159 1199.18 780.159 1201C780.159 1209.08 821.469 1271.96 838.248 1289.43C881.243 1334.2 875.142 1327.8 882.185 1370.86C884.626 1385.79 887.887 1398.01 889.428 1398.01C890.972 1398.01 892.233 1400.55 892.233 1403.67C892.233 1412.11 935.718 1494.22 932.817 1501.78C929.917 1509.35 935.979 1508.35 939.261 1543.35C947.475 1630.88 966.602 1678.02 972.737 1706.21C979.588 1737.61 988.694 1734.92 985.118 1721.09C981.15 1705.78 983.264 1688.77 977.164 1682.32C971.02 1675.82 975.442 1672.49 967.302 1649.74C959.738 1628.59 960.391 1615.89 955.348 1592.38C951.183 1573 946.998 1524.09 949.503 1524.09C951.647 1524.09 971.42 1554.44 979.164 1569.62C986.901 1584.78 1000.15 1604.31 1000.52 1612.57C1000.8 1618.7 1002.45 1622.83 1011.31 1639.62C1030.55 1676.09 1026.14 1716.83 1001.76 1727.65C982.228 1736.31 959.099 1748.36 945.154 1755.5L940.937 1747.49C919.124 1706.05 842.336 1634.26 777.915 1595.09C762.778 1585.88 742.825 1573.23 733.58 1566.98C707.805 1549.55 717.075 1559.78 699.74 1544.96C693.072 1539.26 686.305 1534.6 684.708 1534.6C678.92 1534.6 518.891 1410.81 423.383 1225.82C398.708 1178.02 383.128 1156.35 383.128 1156.35C373.696 1136.57 359.452 1121.32 350.416 1121.32C344.697 1121.32 345.191 1122.24 367.399 1153.04C390.976 1185.75 434.974 1279.8 451.969 1303.44C484.285 1348.4 530.525 1407.71 544.63 1422.3C566.826 1445.24 536.863 1431.26 667.876 1543.53C693.751 1565.71 728.381 1587.52 773.799 1610.24C798.014 1622.36 783.741 1620.43 820.436 1644.12C840.867 1657.3 917.156 1721.59 938.964 1762.43L928.071 1773.72C907.778 1794.75 911.477 1819.26 898.176 1790.39C885.154 1762.14 876.226 1761.46 859.388 1708.83C856.775 1700.66 851.199 1701.06 848.482 1709.62C843.367 1725.74 806.725 1737.43 765.453 1754.66C763.912 1755.3 762.648 1752.39 762.648 1748.18C762.648 1726.09 744.976 1709.8 720.799 1709.62C711.778 1709.54 705.624 1706.72 698.381 1699.34C678.092 1678.65 643.504 1672.17 626.91 1685.94C622.841 1689.32 620.981 1689.06 617.786 1684.7C599.833 1660.15 527.994 1660.58 527.994 1685.24C527.994 1690.2 520.184 1689.51 508.077 1683.47C495.486 1677.19 463.818 1684.35 454.075 1695.69C448.899 1701.72 447.305 1701.84 434.042 1697.27C396.133 1684.21 355.745 1709.67 368.451 1738.6C370.756 1743.86 369.176 1744.73 357.411 1744.73C330.765 1744.73 316.623 1772.64 330.135 1798.55C336.78 1811.28 337.109 1810.34 325.12 1812.97C310.67 1816.15 302.593 1829.83 304.922 1847.19C307.04 1862.97 304.524 1863.09 288.087 1877.26C302.059 1916.9 303.198 1916.35 293.354 1916.35C289.509 1916.35 276.508 1919.87 264.46 1924.18C246.995 1930.42 234.929 1932.02 204.907 1932.06C147.778 1932.13 173.171 1932.97 179.046 1971.35C181.491 1987.33 194.992 2015.18 205.94 2026.84C215.134 2036.62 214.608 2040.26 204.907 2034C159.023 2004.35 57.3576 2000.4 24.9126 2027C-3.53336 2050.33 -7.33313 2060.89 12.0489 2062.77C28.1089 2064.33 28.8669 2073.95 35.9869 2073.95C42.3559 2073.95 88.83 2127.89 105.357 2139.63C130.493 2157.48 145.378 2166.84 161.527 2174.97C177.242 2182.88 178.09 2194.43 162.518 2188.46C156.296 2186.07 147.372 2196.53 140.349 2196.53C130.849 2196.53 25.3667 2275.22 64.7207 2335.92C75.6927 2352.84 77.053 2353.28 87.17 2343.16C96.233 2334.1 140.373 2335.25 167.257 2345.25C188.653 2353.21 201.047 2354.72 246.164 2354.86C339.115 2355.15 397.254 2321.15 448.31 2236.63C469.823 2201.01 486.88 2192.54 465.829 2220.13C407.449 2296.67 529.049 2370.93 658.753 2337.95L694.847 2328.77C713.271 2335.16 753.666 2349.14 773.155 2356.06C795.087 2363.85 901.854 2417 910.995 2424.68C914.658 2427.76 957.453 2462.13 979.791 2476.61C1010.66 2496.62 1110.91 2599.74 1136.52 2637.82C1154.49 2664.53 1186.61 2724.8 1198.13 2753.4C1242.94 2864.62 1239.84 2893.45 1223.33 2854.26C1192.16 2780.29 1210.88 2816.48 1195.67 2779.02C1191.12 2767.82 1185.42 2752.34 1183.01 2744.64C1170.77 2705.56 1121.74 2626.8 1094.71 2602.81C1066.7 2577.94 1055.54 2569.15 1035.26 2555.96C1006.39 2537.19 955.762 2512.24 934.471 2506.29C894.065 2495 844.483 2475.61 827.942 2464.63C781.673 2433.93 737.555 2421.16 735.197 2437.81C734.303 2444.12 735.319 2445.68 739.368 2444.12C747.322 2441.07 777.694 2469.94 774.71 2477.72C773.218 2481.6 774.115 2483.72 777.252 2483.72C783.535 2483.72 803.246 2499.99 836.756 2532.83C907.989 2602.63 951.771 2704.68 951.771 2709.86C951.771 2711.73 956.167 2718.76 961.536 2725.46C966.905 2732.15 976.645 2747.84 983.177 2760.32C1009.28 2810.16 1079.67 2880.31 1125.53 2902.17C1131.52 2905.03 1138.42 2909.76 1140.84 2912.69C1148.08 2921.41 1153.68 2914.01 1153.77 2927.64C1153.79 2932.93 1158 2946.38 1163.11 2957.51C1168.23 2968.64 1172.42 2978.73 1172.42 2979.94C1172.42 2989.47 1231.93 3123.1 1232.01 3128.74C1232.07 3134.05 1239.53 3156 1243.24 3161.75C1246.84 3167.33 1249.26 3194.87 1253.03 3199.94C1266.5 3218.07 1272.64 3428.11 1260.92 3469.62C1256.61 3484.87 1260.16 3506.39 1257 3511.64C1255.85 3513.57 1254.86 3517.38 1254.81 3520.1C1254.69 3526.66 1245.97 3529.45 1245.97 3522.93C1245.97 3520.14 1241.42 3507.8 1235.87 3495.49C1217.62 3455.05 1201.18 3400.05 1168.98 3271.74C1156.06 3220.26 1143.3 3194.73 1128.42 3157.91C1098.49 3083.87 1082.92 3086.78 1060.12 3050.78C1045.65 3027.96 1010.54 3002.38 999.673 2988.94C990.527 2977.62 993.596 2988.78 951.474 2963.03C909.173 2937.17 819.002 2897.9 785.412 2878.95C759.702 2864.44 741.017 2856.4 721.642 2851.5C713.538 2849.44 705.958 2846.23 704.799 2844.36C700.201 2836.92 695.406 2841.19 697.826 2850.58C699.976 2858.94 705.524 2889.71 712.504 2932.01C715.684 2951.27 722.987 2949.79 726.303 2974.79C727.526 2984.01 729.9 2991.55 731.578 2991.55C733.256 2991.55 734.629 2993.78 734.629 2996.51C734.629 3018.67 835.111 3170.03 869.675 3199.94C872.826 3202.66 1042.67 3333.9 1092.08 3406.57C1116.8 3442.94 1116.38 3436.11 1116.38 3441.02C1116.38 3443.28 1122.04 3453 1128.96 3462.62C1152.41 3495.26 1151.01 3508.27 1211.04 3579.36C1224.11 3594.84 1209.11 3582.34 1233.45 3608.24C1217.75 3658.28 1222.91 3641.83 1212.52 3674.97C1204.71 3699.92 1209.52 3699.41 1202.61 3710.52C1199.95 3714.79 1197.64 3724.19 1197.46 3731.42C1195.5 3812.87 1144.05 3662.22 1115.88 3583.82C1091.56 3516.08 1034.44 3411.94 971.036 3364.48C953.7 3351.51 833.328 3292.75 824.086 3292.75C821.588 3292.75 817.684 3290.51 815.407 3287.77C806.161 3276.63 789.676 3274.32 792.239 3284.53C794.554 3293.75 809.316 3315.29 816.552 3319.99C831.343 3329.6 875.216 3392.13 886.661 3419.9C914.268 3486.91 979.461 3594.73 979.461 3594.73C984.571 3608 1034.21 3663.42 1057.63 3682.01C1159.11 3762.57 1183.11 3800.83 1149.6 3828.64C1140.16 3836.48 1142.58 3874.71 1153.15 3884.64C1165.06 3895.83 1157.81 3894.24 1170.23 3918.9C1182.89 3944.04 1189.88 3983.81 1181.04 3980.42C1173.08 3977.36 1172.5 3989.37 1180.34 3994.86C1194.42 4004.73 1210.94 3999.69 1210.94 3985.55C1210.94 3978.93 1229.58 3918.21 1237.08 3900.4C1260.41 3845 1270.71 3799.47 1272.61 3777.82C1275.23 3748.05 1285.52 3729.33 1291.13 3698.12C1296.02 3670.97 1304.22 3670.45 1315.02 3654.36C1317.93 3650.03 1322.5 3646.48 1325.16 3646.48C1327.83 3646.48 1330.02 3645.23 1330.02 3643.7C1330.02 3641.01 1366.43 3621.73 1380.8 3616.8C1384.65 3615.48 1412.4 3609.87 1442.47 3604.32C1586.58 3577.76 1612.83 3549.68 1659.25 3519C1680.4 3505.03 1760.85 3408.32 1772.43 3408.32C1779.39 3408.32 1787.18 3394.32 1796.36 3394.32C1806.34 3394.32 1804.01 3387.71 1793.2 3385.35ZM1214.03 1955.54C1221.36 1940.52 1228 1923.85 1232.19 1909.96C1236.94 1894.2 1254.09 1881.33 1270.34 1881.33C1274.27 1881.33 1277.49 1879.93 1277.49 1878.22C1277.49 1874.35 1289.66 1873.17 1317.77 1865.79C1376.12 1850.45 1486.8 1885.08 1536.29 1934.16C1553.43 1951.15 1575.18 1976.33 1575.18 1979.17C1575.18 1985.14 1589.36 2013.7 1594.41 2017.88C1603.07 2025.07 1600.67 2027.54 1581.31 2031.34C1545.7 2038.34 1494.12 2058.27 1489.65 2053.79C1488.64 2052.78 1474.54 2051.52 1458.31 2050.97C1435.73 2050.21 1424.41 2047.94 1410.06 2041.28C1363.87 2019.83 1355.93 2017.27 1325.94 2014.17C1295.97 2011.07 1275.29 2013.13 1254.72 2021.28C1240.01 2027.1 1231.68 2029.31 1216.63 2042.52C1205.74 2052.09 1203.88 2052.74 1203.49 2047.17C1201.89 2024.17 1208.47 1966.94 1214.03 1955.54ZM1355.08 260.764C1364.49 235.477 1371.35 224.736 1378.08 224.736C1381.04 224.736 1382.51 222.677 1381.48 219.973C1376.78 207.739 1430.23 178.712 1458.77 177.991C1511.37 176.664 1564.95 179.423 1562.53 183.336C1561.13 185.606 1560.33 209.116 1560.76 235.576C1561.83 302.015 1556.2 320.868 1525.47 353.604C1502.17 378.425 1480.44 393.068 1463.55 395.33C1454.6 396.531 1449.1 399.095 1449.1 402.061C1449.1 404.698 1447.79 406.856 1446.18 406.856C1441.33 406.856 1438.97 402.944 1440.85 398.041C1441.83 395.495 1440.13 389.597 1437.07 384.932C1431.62 376.614 1431.91 376.103 1452.03 358.602C1472.34 340.936 1503.51 295.151 1500.79 286.98C1498.62 280.488 1451.1 357.825 1440.66 357.825C1439.25 357.825 1435.73 360.189 1432.84 363.078C1426.39 369.526 1417.58 369.942 1417.58 363.799C1417.58 356.708 1470.11 309.581 1470.11 300.474C1470.11 299.188 1473.96 292.257 1478.66 285.074C1488.57 269.927 1493.66 252.755 1488.24 252.755C1486.23 252.755 1483.52 256.299 1482.21 260.635C1479.83 268.508 1457.95 303.689 1451.02 310.802C1444.45 317.53 1431.18 336.779 1425.89 336.779C1418.8 336.836 1415.18 349.818 1409.41 344.047C1404.77 339.414 1411.14 334.978 1423.22 319.675C1434.12 305.872 1449.1 289.365 1449.1 286.196C1449.1 284.872 1453.83 276.915 1459.61 268.516C1469.76 253.75 1473.81 239.548 1466.59 244.014C1459.11 248.644 1408.63 336.543 1401.36 317.629C1398.36 309.773 1402.05 307.863 1415.33 287.425C1420.84 278.949 1427.14 270.425 1429.34 268.474C1435.47 263.042 1449.1 242.932 1449.1 239.317C1449.1 237.548 1451.46 234.137 1454.35 231.742C1459.83 227.193 1461.57 217.733 1456.92 217.733C1455.45 217.733 1448.98 225.764 1442.55 235.584C1430.07 254.65 1383.8 309.766 1378.65 311.71C1371.45 314.425 1376.41 300.825 1387.05 288.665C1393.38 281.433 1403.14 269.217 1408.76 261.511C1414.37 253.806 1419.92 246.714 1421.09 245.751C1435.61 233.836 1453.7 200.221 1445.6 200.221C1443.67 200.221 1442.09 201.706 1442.09 203.524C1442.09 205.338 1433.58 216.857 1423.18 229.119C1391.88 266.023 1365.14 299.873 1365.09 302.664C1365.07 304.107 1363.47 305.291 1361.54 305.291C1351.22 305.291 1373 268.16 1410.33 222.094C1427.68 200.684 1431.43 193.218 1424.81 193.218C1420.67 193.218 1384.41 237.582 1366.86 264.14C1347.38 293.602 1343.29 292.429 1355.08 260.764ZM981.363 175.767C980.25 151.724 978.782 131.498 978.103 130.818C975.441 128.156 971.386 172.254 971.214 205.708C971.042 239.456 970.783 240.643 965.116 233.439C952.308 217.16 944.771 189.033 944.771 157.523C944.768 140.782 943.524 126.314 942.004 125.375C938.52 123.221 940.109 84.135 943.79 81.411C945.289 80.297 946.879 67.734 947.32 53.487C948.354 20.173 946.638 20.748 985.359 40.753C1037.59 67.735 1068.18 103.665 1086.05 159.005C1093.57 182.315 1084.86 179.929 1084.86 174.258C1084.86 167.631 1068.52 130.174 1065.63 130.174C1062.68 130.174 1067.5 154.179 1073.18 167.782C1079.97 184.061 1085.74 230.148 1083.01 246.321C1079.47 267.29 1072.37 261.276 1073.71 238.444C1075.51 207.904 1057.51 137.179 1047.95 137.179C1046.16 137.179 1048.88 152.277 1052.36 161.695C1060.53 183.735 1065.3 238.483 1060.56 255.735C1054.6 277.449 1053.07 272.651 1052.1 229.222C1051.34 195.334 1050.1 188.574 1041.42 170.825C1028.92 145.272 1027.6 146.894 1036.07 177.426C1049.42 225.584 1035.65 332.125 1028.44 226.7C1023.49 154.395 1016.09 145.436 1017.68 213.682C1018.68 256.172 1019.75 263.356 1027.31 278.079C1036.17 295.331 1037.63 298.335 1033.2 298.228C1018.77 297.934 1002.77 241.021 1003.85 193.824C1004.62 160.435 1001.64 150.075 999.434 138.929C989.768 190.685 994.768 239.996 1000.8 259.759C1009.65 288.745 1009.55 290.639 999.678 281.362C989.824 272.101 984.375 240.682 981.363 175.767ZM878.226 1087.53C866.195 1085.12 866.297 1084.63 873.042 1112.57C878.566 1135.44 879.886 1163.35 875.445 1163.35C868.156 1163.35 829.194 1102.32 829.194 1090.91C829.194 1088.24 827.058 1082.57 824.445 1078.3C821.832 1074.03 816.2 1054.78 811.931 1035.52C802.51 993.056 802.49 997.364 790.363 965.474C766.864 903.692 754.269 919.416 764.613 931.502C774.121 942.604 790.306 983.287 799.723 1019.76C821.248 1103.09 836.368 1135.53 870.543 1171.68L880.881 1182.62C872.994 1283.24 875.512 1310.45 871.904 1310.45C867.892 1310.45 808.898 1254.09 773.256 1149.35C749.489 1079.5 729.548 885.938 686.721 821.975C682.393 815.51 680.291 802.618 683.566 802.618C684.376 802.618 697.866 811.451 713.543 822.252C739.604 840.201 761.006 859.94 804.897 906.496C853.363 957.898 908.308 1093.54 878.226 1087.53ZM1491.32 3156.16C1503.5 3147.04 1536.18 3044.6 1504 3114.55C1490.84 3143.16 1482.07 3156.62 1438.11 3215.7C1390.39 3279.84 1372.84 3317.63 1374.43 3278.44C1375.89 3242.77 1379.58 3232.83 1414.35 3170.74C1427.96 3146.45 1457.17 3106.95 1482.13 3079.11C1482.32 3078.9 1513.66 3038.5 1530.09 3019.57C1552.78 2993.46 1568.05 2976.78 1568.13 2972.03C1568.2 2967.39 1582.51 2955.11 1586.68 2951.28L1584.44 2968.4C1581.1 2993.88 1583.38 3045.23 1579.06 3042.56C1575.33 3040.26 1571.68 3048.59 1571.68 3059.4C1571.68 3063.64 1568.53 3073.31 1564.68 3080.86C1560.83 3088.42 1557.67 3096.3 1557.67 3098.38C1557.67 3116.02 1496.85 3201.87 1466.1 3227.61C1437.22 3251.78 1453.32 3241.42 1433.34 3263.23C1426.6 3270.59 1421.08 3278.66 1421.08 3281.18C1421.08 3283.69 1419.78 3285.75 1418.18 3285.75C1414.03 3285.75 1399.83 3320.77 1396.84 3320.77C1391.58 3320.77 1356.5 3404.82 1352.38 3404.82C1349.27 3404.82 1353.78 3373.23 1357.58 3368.4C1359.25 3366.29 1363.19 3356.67 1366.33 3347.04C1377.1 3314 1490.32 3156.91 1491.32 3156.16ZM1358.7 3319.75C1359.16 3303.93 1365.05 3291.44 1365.05 3306.27C1365.05 3317.93 1370.51 3320.35 1363.45 3329.63C1358.56 3336.05 1358.23 3335.36 1358.7 3319.75ZM1357.6 2968.79C1364.49 2888.33 1364.08 2890.14 1385.9 2842.71C1394.61 2823.78 1396.98 2814.16 1402.05 2800.68C1406.09 2789.93 1401.81 2789.52 1406.64 2783.67C1411.24 2778.1 1411.51 2762.73 1421.35 2728.88C1449.83 2631.01 1438.41 2612.22 1445.47 2580.96C1457.86 2526.1 1471.33 2474.46 1473.99 2471.64C1475.71 2469.81 1477.12 2465.77 1477.12 2462.66C1477.12 2454.56 1491.13 2430.25 1491.13 2423.06C1491.13 2414.86 1518.37 2365.42 1533.27 2346.57C1540.91 2336.9 1547.18 2327.95 1547.18 2326.68C1547.21 2322.75 1571.11 2298.1 1574.89 2298.1C1576.84 2298.1 1584.1 2293.13 1591 2287.07C1606.68 2273.31 1613.21 2277.14 1605.5 2295.59C1599.05 2311.03 1596.15 2353.37 1594.29 2459.2C1591.65 2610.18 1584.3 2586.49 1580.75 2644.82C1577.52 2697.72 1569.28 2708.84 1566.52 2725.68C1564.12 2740.32 1561.17 2745.82 1552.94 2764.83C1544.35 2784.68 1544.8 2804.13 1537.98 2809.8C1530.65 2815.88 1536.54 2821.71 1526.16 2834.91C1515.23 2848.8 1524.58 2843.79 1507.63 2866.08C1476.8 2906.61 1472.03 2918.74 1455.57 2939.54C1422.85 2980.91 1376.5 3089.65 1370.24 3139.74C1366.83 3167.07 1361.56 3164.82 1361.53 3136.02C1361.51 3123.02 1359.76 3098.2 1357.64 3080.86C1352.93 3042.6 1352.93 3023.35 1357.6 2968.79ZM1298.87 2311.28C1300.6 2307.94 1302.01 2297.5 1302.01 2288.09C1302.01 2260.37 1324.76 2201.92 1328.32 2178.18C1334.78 2135.11 1341.78 2203.8 1351.29 2227.34C1355.59 2238 1355.47 2238.56 1348.91 2238.56C1344.95 2238.56 1344.01 2240.37 1345.74 2244.69C1355.62 2269.26 1363.85 2361.14 1356.18 2361.14C1349.46 2361.14 1349.65 2364.61 1356.64 2369.72C1366.39 2376.84 1354.33 2378.44 1356.89 2429.88C1358.99 2472.07 1352.39 2489.44 1348.88 2529.25C1347.77 2541.77 1345.44 2553.51 1343.7 2555.34C1339.15 2560.13 1342.48 2562.64 1336.45 2577.18C1332.41 2586.92 1327.16 2604.05 1312.47 2655.33C1296.67 2710.49 1304.5 2814.88 1291.5 2779.28C1274.41 2732.45 1265.6 2720.46 1268.34 2710.37C1270.67 2701.74 1264.87 2667.82 1259.26 2657.35C1252.76 2645.22 1251.77 2538.39 1257.8 2499.48C1266.24 2444.94 1292.87 2322.95 1298.87 2311.28ZM1256.99 2405.09C1254.75 2413.44 1253.88 2414.09 1251.88 2408.88C1242.68 2384.89 1263.64 2380.22 1256.99 2405.09ZM1190.15 2257.82C1191.51 2259.75 1193.68 2266.84 1194.97 2273.58C1198.12 2290.05 1210.93 2333.34 1214.95 2341.14C1219.78 2350.5 1211.69 2353.77 1217.51 2357.37C1224.54 2361.71 1219.96 2390.92 1228.64 2390.92C1235.44 2390.95 1233.23 2401.61 1236.4 2410.17C1247.33 2439.73 1248.99 2497.5 1240 2520.49C1238.32 2514.63 1236.34 2508.9 1233.55 2490.72C1229.97 2467.37 1220.13 2457.18 1223.51 2451.71C1226.66 2446.62 1221.32 2449.61 1213.75 2427.68C1203.84 2398.96 1189 2361.57 1191.11 2353.5C1193.79 2343.29 1182.93 2351.12 1182.93 2340.33C1182.93 2330.02 1175.92 2333.24 1175.92 2320.86C1175.92 2308.58 1168.92 2311.48 1168.92 2301.8C1168.92 2290.93 1156.67 2277.43 1162 2272.09C1166.61 2267.49 1166.32 2259.72 1162.1 2266.4C1156.29 2275.59 1158.28 2254.84 1142.89 2217.3C1138.17 2205.8 1183.03 2199.88 1178.05 2218.94C1177.03 2222.85 1178.58 2228.68 1181.5 2231.91C1189.25 2240.48 1186.12 2252.13 1190.15 2257.82ZM1217.93 2522.15C1217.94 2519.21 1215.49 2513.3 1212.49 2509.01C1204.12 2497.05 1209.37 2496.3 1193.47 2465.74C1181.61 2442.95 1183.87 2439.67 1200.17 2455.97C1206.99 2462.79 1210.94 2470.29 1210.94 2476.4C1210.94 2481.71 1211.99 2487.1 1213.27 2488.38C1216.73 2491.84 1228.46 2526.34 1228.46 2533.07C1228.46 2542 1238.96 2543.69 1238.96 2555.95C1238.96 2560.53 1237.78 2564.25 1236.34 2564.21C1233.08 2564.14 1217.89 2529.46 1217.93 2522.15ZM1214.56 2572.53C1199.64 2544.39 1153.81 2486.39 1119.5 2452.2C1054.52 2387.46 1018.32 2315.86 1018.32 2252.08C1018.32 2244.01 1037.72 2256.16 1041.08 2266.33C1042.07 2269.36 1051.15 2277.86 1061.25 2285.23C1077.5 2297.09 1109.38 2333.91 1109.38 2340.82C1109.38 2342.24 1111.74 2342.5 1114.63 2341.39C1118.32 2339.98 1119.88 2341.67 1119.88 2347.08C1119.88 2359.85 1131.88 2351.95 1135.24 2368.73C1138.28 2383.92 1144.52 2393.27 1151.51 2416.3C1154 2424.49 1157.06 2431.18 1158.31 2431.18C1160.38 2431.18 1175.92 2463.76 1175.92 2468.09C1175.92 2470.82 1200.44 2520.14 1200.44 2524.98C1200.44 2526.86 1202.73 2530.3 1205.54 2532.63C1208.35 2534.96 1214.1 2547.79 1218.31 2561.15C1227.46 2590.13 1226.1 2594.27 1214.56 2572.53ZM1186.43 2439.1C1170.92 2433.07 1170.82 2409.69 1157.56 2379.43C1147.3 2356.04 1159.01 2351.99 1149.9 2348.49C1146.87 2347.33 1144.4 2344.72 1144.4 2342.7C1144.4 2336.8 1119.3 2258.19 1116.15 2254.2C1107.51 2243.29 1108.76 2218.46 1118.07 2216.13C1142.43 2210.01 1123.49 2217.09 1174.62 2357.72C1179.19 2370.29 1182.93 2384.87 1182.93 2390.12C1182.93 2395.37 1184.5 2399.66 1186.43 2399.66C1191.33 2399.66 1187.57 2409.46 1195.33 2424.46C1201.74 2436.86 1200.51 2444.57 1186.43 2439.1ZM1112.79 2302.48C1113 2308.58 1107 2303.94 1098.17 2291.15C1081.45 2266.97 1051.19 2263.62 1009.71 2220.81C1061.95 2222.06 1042.99 2221.61 1093.19 2222.8L1102.94 2261.32C1108.31 2282.51 1112.74 2301.03 1112.79 2302.48ZM1014.74 2283.46C1025.81 2339.46 1033.12 2358.9 1056.7 2395.14C1079.5 2430.16 1061.5 2413.78 1102.91 2456.17C1132.76 2486.72 1168.79 2531.59 1169.02 2538.5C1169.07 2540.15 1173.8 2546.11 1179.52 2551.72C1193.39 2565.33 1183.55 2558.26 1205.09 2591.6C1213.43 2604.5 1221.33 2616.92 1222.66 2619.19C1238.03 2645.58 1202.71 2607.92 1184.68 2578.71C1182.7 2575.5 1143.22 2530.5 1070.85 2468.32C1010.81 2416.71 986.8 2404.03 986.8 2397.24C986.8 2390.61 979.582 2395.45 971.036 2386.91C949.823 2365.69 854.878 2322.61 829.333 2322.61C816.869 2322.61 819.555 2317.78 838.299 2306.5C904.892 2266.4 914.608 2232.16 872.811 2184.86C850.849 2160 912.601 2206.07 982.611 2215.7C1003.51 2218.57 1000.76 2212.78 1014.74 2283.46ZM1237.97 2614.67C1240.66 2623.88 1242.28 2633.12 1241.59 2635.21C1240.11 2639.63 1230.15 2619.68 1226.48 2604.97C1222.08 2587.3 1232.57 2596.16 1237.97 2614.67ZM1220.13 2180.43C1226.54 2193.94 1226.82 2193.55 1211.82 2191.9C1182.98 2188.72 1038.42 2215.36 1031.48 2208.54C1031.48 2208.54 944.608 2202.19 909.732 2184.79C903.494 2181.68 897.138 2179.91 895.611 2180.85C894.085 2181.79 892.305 2181.16 891.657 2179.43C889.691 2174.17 830.108 2144.99 875.354 2156.73C896.837 2162.31 956.538 2163.35 948.272 2158C945.382 2156.14 937.187 2154.59 930.057 2154.56C910.759 2154.48 843.557 2141.23 838.125 2136.43C833.051 2131.95 822.189 2135.17 822.189 2129.49C822.189 2124.61 853.776 2127.36 881.973 2134.69C909.348 2141.8 955.75 2145.66 946.679 2140.06C927.912 2128.49 835.917 2116.32 817.612 2110.27C800.044 2104.46 872.72 2106.88 893.318 2112.79C909.57 2117.45 939.262 2114.85 966.61 2130.1C974.553 2134.53 979.793 2134.4 979.793 2129.79C979.793 2119.62 912.878 2101.58 856.074 2096.44C769.295 2088.57 942.52 2087.1 967.534 2105.58C972.971 2109.59 991.889 2111.06 1003.38 2118.59C1010.31 2123.13 1011.31 2123.14 1011.31 2118.66C1011.31 2108.86 939.717 2081.5 888.733 2080.81C862.385 2080.45 839.575 2075.84 847.35 2072.45C865.166 2064.67 998.16 2086.23 1020.82 2100.56C1029.88 2106.29 1035.83 2106.89 1035.83 2102.06C1035.83 2094.64 953.669 2068.24 923.525 2065.96C919.798 2065.68 916.751 2064.04 916.751 2062.31C916.751 2055.48 991.154 2062.09 1018.32 2071.34C1047.75 2081.37 1074.6 2086.87 1069.1 2081.74C1063.36 2076.39 993.377 2055.44 975.341 2053.67C948.153 2051 953.374 2047.08 982.594 2048.22C1032.25 2050.16 1090.54 2050.98 1096.52 2055.94C1099.13 2058.11 1102.15 2059 1103.23 2057.92C1105.49 2055.65 1129.05 2067.03 1149.98 2080.49C1188.38 2105.2 1215.02 2169.65 1220.13 2180.43ZM1049.84 2036.24C1049.84 2039.7 986.701 2038.93 978.146 2038.93L992.103 2031.56C999.781 2027.5 1009.21 2021.49 1013.07 2018.19C1034.39 1999.96 1046.95 1997.85 1046.01 2012.66C1045.68 2017.76 1044.39 2007.41 1037.16 2007.41C1028.42 2007.41 1049.84 2029.99 1049.84 2036.24ZM1085.53 1990.85C1094.48 2011.95 1098.67 2019.98 1112.89 2043.31C1120.88 2056.41 1099.56 2043.59 1074.35 2040.98C1054.3 2038.91 1066.41 2029.82 1059.36 2022.77C1057.98 2021.38 1056.82 2017.76 1056.82 2014.7C1056.81 2011.65 1054.53 2004.81 1051.76 1999.5C1046.88 1990.15 1047.23 1989.32 1062.7 1973.23C1071.49 1964.1 1077.96 1958.99 1077.07 1961.88C1076.19 1964.77 1080 1977.8 1085.53 1990.85ZM1154.89 2070.45C1146.83 2070.45 1141.26 2060.55 1147.24 2056.85C1149.55 2055.42 1151.33 2040.83 1151.68 2020.43C1152.47 1973.27 1159.04 1981.12 1158.14 2008.29C1156.5 2058.16 1167.47 2070.45 1154.89 2070.45ZM1214.42 1622.59C1220.29 1597.67 1249.66 1516.9 1271.59 1465.35C1328.92 1330.57 1440.87 1244.95 1503.39 1194.65C1530.35 1172.95 1553.68 1153.09 1555.22 1150.52C1556.76 1147.95 1559.19 1145.84 1560.63 1145.84C1563.98 1145.84 1587 1122.63 1646.08 1070.86C1619.67 1278.76 1570.42 1318.11 1531.47 1372.08C1505.46 1408.11 1452.56 1464.69 1413.15 1498.62C1319.32 1579.41 1228.46 1685.42 1228.46 1714.12C1228.46 1715.33 1221.53 1730.98 1213.07 1748.91C1186.14 1805.97 1174.81 1839.96 1163.07 1898.84C1155.6 1936.3 1153.82 1932.2 1153.34 1944.37C1151.82 1983.18 1141.3 2015.64 1140.63 1990.98C1140.48 1985.57 1139.73 1977.99 1138.95 1974.14C1133.75 1948.41 1137.23 1863.36 1144.42 1840.56C1154.85 1807.47 1156.92 1799.63 1163.77 1767.5C1177.45 1703.23 1204.05 1666.55 1214.42 1622.59ZM1072.91 998.791C1116.4 941.76 1206.26 925.729 1254.48 966.398C1269.94 979.436 1297.29 1005.46 1307.9 1009.5C1318.14 1013.39 1318.21 1020.02 1308.13 1029.24C1298.28 1038.23 1258.58 1052.07 1240.71 1049.14C1216.52 1045.19 1168.92 1032.24 1168.92 1029.61C1168.92 1017.06 1077.23 1033.21 1067.35 1047.5C1066.39 1048.9 1062.84 1051.05 1059.47 1052.3C1050.26 1055.7 1056.13 1063.47 1048.09 1066.55C1036.22 1071.11 1053.28 1024.52 1072.91 998.791ZM1079.03 1056.98C1098.41 1047.18 1149.54 1038.48 1156.32 1043.84C1160.31 1047 1180.86 1052.11 1215.32 1058.53C1226.4 1060.59 1235.46 1062.85 1235.46 1063.54C1235.46 1064.23 1226.4 1066.5 1215.32 1068.58C1157.52 1079.46 1107.21 1120.1 1093.7 1166.86C1091.23 1175.44 1081.14 1185.35 1078.72 1225.52C1077.24 1249.99 1067.35 1271.24 1067.35 1249.93C1067.35 1247.46 1058.29 1236.3 1047.21 1225.13L1027.07 1204.83C1028.02 1113.2 1026.22 1083.7 1079.03 1056.98ZM1164 863.08C1159.79 858.863 1162.09 855.151 1168.92 855.151C1179.13 855.151 1173.84 848.146 1179.54 848.146C1186.94 848.147 1170.83 869.904 1164 863.08ZM1181.23 648.42C1182.45 646.445 1185.3 645.187 1187.57 645.629C1189.83 646.074 1196.91 643.654 1203.3 640.257C1219.46 631.669 1225.95 635.242 1210.94 644.46C1198.38 652.178 1177.16 655.008 1181.23 648.42ZM1208.16 580.956C1217.42 563.274 1216.24 565.47 1219.7 554.829C1221.11 550.493 1223.61 546.949 1225.25 546.949C1228.71 546.949 1226.94 553.074 1217.14 574.967C1201.04 610.964 1193.86 608.246 1208.16 580.956ZM1253.85 783.06C1256.53 780.374 1284.65 809.487 1289.74 809.635C1291.67 809.695 1296.96 813.652 1301.49 818.436C1329.64 848.109 1247 789.908 1253.85 783.06ZM1474.39 728.462C1498.15 747.718 1506.28 756.008 1512.45 767.261C1532.42 803.725 1552.47 819.13 1566.57 915.566C1568.6 929.449 1565.97 931.852 1557.54 923.8C1548.9 915.548 1511.61 897.179 1503.5 897.179C1495.42 897.179 1342.74 849.877 1330.02 839.493C1321.63 832.641 1311.94 832.696 1314.54 825.901C1317.99 816.92 1221.45 743.567 1221.45 724.334C1221.45 723.21 1233.85 734.589 1249 749.621C1266.28 766.761 1290.77 785.824 1314.67 800.744C1335.63 813.832 1359.57 830.027 1367.86 836.734C1382.67 848.708 1389.57 850.155 1383.75 840.058C1379.63 832.917 1352.36 812.624 1310.96 785.905C1278.18 764.744 1224.95 716.535 1224.95 708C1224.95 697.243 1309.01 768.803 1344.03 786.837C1363.25 796.733 1370.99 805.602 1390.21 814.365C1397.31 817.597 1408.49 826.514 1415.05 834.174C1427.71 848.968 1435.5 849.381 1425.91 834.748C1419.53 825.019 1403.3 809.903 1399.05 809.731C1395.75 809.601 1375.37 795.522 1370.34 789.897C1368.39 787.719 1356.55 779.838 1344.03 772.385C1309.79 752.002 1261.55 715.826 1264.57 712.797C1266.56 710.804 1289.94 724.404 1305.51 736.613C1312.25 741.902 1330.37 752.797 1345.78 760.828C1388.37 783.01 1365.67 774.082 1398.32 790.377C1432.44 807.409 1477.12 863.157 1477.12 853.37C1477.12 846.726 1416.85 785.107 1410.35 785.107C1407.98 785.107 1398 779.783 1388.18 773.283C1378.34 766.779 1357.5 754.864 1341.86 746.809C1315.21 733.077 1291.4 713.989 1295.64 709.748C1296.67 708.715 1306.02 713.622 1316.4 720.651C1326.78 727.68 1358.04 745.164 1385.85 759.506C1442.19 788.554 1452.53 796.133 1472.2 822.856C1486.02 841.632 1492.25 842.728 1482.95 824.744C1474.29 808.024 1422.01 760.592 1412.24 760.592C1402.7 760.592 1323.02 716.183 1323.02 710.87C1323.02 708.881 1327.32 710.068 1332.57 713.511C1342.95 720.309 1408.85 753.588 1411.94 753.588C1414.72 753.588 1476.1 792.113 1480.41 792.113C1485.73 792.113 1504.83 822.072 1505.02 812.517C1505.2 803.555 1487.68 784.765 1473.78 779.017C1466.95 776.194 1452.69 768.055 1442.1 760.931C1431.5 753.811 1404.32 739.059 1381.68 728.153C1359.05 717.247 1340.53 707.08 1340.53 705.563C1340.53 701.458 1360.48 702.814 1365.86 707.283C1369.77 710.523 1386.92 718.645 1393.06 720.158C1416.26 725.881 1464.4 750.327 1473.57 761.047C1491.05 781.49 1519.15 799.555 1519.15 790.361C1519.15 784.132 1519.52 791.378 1490.75 763.131C1478.44 751.045 1457.77 734.98 1444.81 727.432C1424.19 715.419 1412.7 704.954 1430.72 714.596C1434.43 716.578 1440.71 717.356 1444.67 716.315C1452.14 714.362 1461.93 718.362 1474.39 728.462ZM1403.95 651.142C1401.68 655.474 1398.41 659.022 1396.69 659.022C1392.31 659.022 1387.55 665.799 1377.05 671.707C1372.34 674.361 1330.58 688.617 1369.88 668.257C1383.13 661.392 1397.15 652.959 1401.03 649.516C1407.93 643.409 1407.99 643.447 1403.95 651.142ZM1404.65 687.138C1402.36 689.555 1392.11 692.297 1381.89 693.236C1356.04 695.608 1364.98 690.341 1379.95 688.956C1386.61 688.336 1395.83 686.686 1400.44 685.289C1407.09 683.276 1407.96 683.657 1404.65 687.138ZM1605.28 492.305C1607.74 493.247 1610.27 492.463 1610.91 490.564C1613.39 483.115 1707.86 478.821 1714.87 485.839C1717.27 488.238 1693.93 532.78 1677.69 556.799C1669.47 568.959 1662.74 579.844 1662.74 580.986C1662.74 596.127 1608.14 653.351 1589.34 657.904C1584.44 659.095 1577.32 662.194 1573.53 664.797C1557.73 675.616 1561.32 668.471 1577.9 656.101C1597.07 641.805 1627.72 614.462 1627.72 611.667C1627.72 606.221 1616.58 611.961 1601.39 625.242C1549.63 670.482 1493.16 687.174 1473.94 686.785C1461.63 686.533 1461.77 686.382 1480.62 679.759C1532.72 661.449 1638.31 592.478 1614.24 592.478C1610 592.478 1600.59 603.272 1582.34 614.339C1575.52 618.486 1569.13 623.011 1568.15 624.398C1560.52 635.217 1484.59 669.168 1448.52 677.892C1404.5 688.539 1403.11 683.849 1445.6 668.033C1516.98 641.468 1561.29 617.302 1597.08 585.414C1622.5 562.771 1608.96 566.305 1577.62 590.496C1561.24 603.143 1546.86 613.492 1545.67 613.492C1544.49 613.492 1537.27 617.436 1529.64 622.255C1515.27 631.322 1483.33 644.33 1448.05 655.478C1419.8 664.405 1427.7 655.776 1462.72 639.444C1524.37 610.697 1556.13 592.727 1578.37 574.01C1597.6 557.833 1588.66 556.435 1567.4 572.297C1556.39 580.506 1540.63 590.604 1532.39 594.733C1397.1 662.531 1508.97 592.665 1513.07 592.551C1516.34 592.46 1554.02 568.014 1560.79 561.591C1563.47 559.048 1569.38 554.534 1573.92 551.557C1582.37 546.016 1584.9 539.943 1578.75 539.943C1576.87 539.943 1567.02 546.279 1556.86 554.026C1537.09 569.114 1496.19 590.079 1490.34 588.128C1486.11 586.72 1515.67 564.12 1546.26 545.375C1569.18 531.327 1577.61 523.685 1574.07 520.148C1569.61 515.692 1508.64 562.717 1508.64 550.394C1508.64 541.131 1595.88 488.694 1605.28 492.305ZM1406.08 459.695C1403.53 463.022 1393.53 466.22 1381.18 467.663C1358.14 470.356 1358.17 471.382 1380.49 446.32C1398.14 426.504 1421.99 438.969 1406.08 459.695ZM1260.63 333.048C1256.87 327.031 1257.46 325.753 1265.39 322.737C1286.12 314.853 1305.51 325.36 1305.51 344.483C1305.51 353.001 1306.28 353.372 1320.7 351.747C1338.73 349.715 1351.04 361.287 1351.04 380.277C1351.04 390.934 1351.46 391.239 1364.56 389.989C1376.8 388.823 1378.8 389.852 1385.58 400.818C1394.34 415.002 1396.11 431.249 1388.16 424.658C1384.21 421.376 1382.01 423.117 1376.78 433.669C1368.85 449.669 1358.12 455.154 1366.5 438.937C1377.08 418.502 1371.9 402.394 1355.14 439.357C1343.07 465.982 1299.36 522.406 1332.23 456.917C1346.79 427.911 1350.88 413.859 1344.75 413.859C1343.22 413.859 1336.7 424.899 1330.26 438.397C1313.93 472.581 1275.84 522.431 1270.09 522.431C1265.73 522.431 1265.27 523.293 1284.29 496.164C1306.09 465.06 1330.76 415.229 1329.16 405.531C1327.18 393.488 1315.55 429.886 1290.05 467.147C1269.46 497.25 1271.49 504.919 1264.99 504.919C1258.32 504.919 1258.67 501.84 1266.9 488.342C1284.09 460.152 1320.43 385.588 1318.11 383.266C1315.58 380.737 1302.23 395.412 1302.08 400.893C1301.97 404.969 1277.47 440.85 1277.47 444.57C1277.44 450.424 1238.19 509.519 1282.78 419.154C1304.16 375.834 1308.07 364.161 1299.45 369.491C1295.15 372.15 1273.78 418.307 1270.22 420.863C1266.3 423.681 1267.3 435.349 1260.43 437.639C1252.11 440.403 1291.49 372.369 1291.49 363.422C1291.49 355.485 1282.89 364.413 1274.97 380.586C1269.77 391.181 1264.27 399.849 1262.75 399.849C1256.7 399.849 1260.53 382.282 1270.75 363.135C1277.92 349.704 1280.35 341.774 1278.03 339.449C1275.7 337.127 1271.24 342.254 1264.69 354.768C1255.37 372.591 1254.79 373.057 1253.65 363.639C1251.34 344.608 1268.8 346.133 1260.63 333.048ZM1286.14 525.931C1287.31 525.931 1294.83 519.627 1302.84 511.922C1326.15 489.527 1328.86 503.533 1344.43 491.419C1372.31 469.737 1445.33 477.848 1493.61 462.707C1520.37 454.312 1520.23 454.312 1515.64 462.893C1513.59 466.745 1512.64 469.898 1513.56 469.898C1514.56 469.898 1507.47 499.146 1486.06 547.824C1477.23 567.898 1478.79 553.878 1468.95 574.441C1460.75 591.564 1456.82 589.457 1428.6 616.227C1376.6 665.537 1290.82 693.762 1354.94 654.521C1431.13 607.894 1445.91 575.593 1402.36 609.821C1333.67 663.802 1226.28 688.632 1306.65 650.885C1406.61 603.959 1449.3 528.644 1397.35 579.056C1339.44 635.248 1235.47 673.19 1220.33 672.862C1215.44 672.753 1218.02 670.824 1227.49 667.507C1243.93 661.742 1318.43 620.849 1329.04 611.764C1340.2 602.219 1382.27 575.564 1387.39 567.25C1394.15 556.274 1386.08 556.06 1374.62 566.914C1341 598.774 1231.98 658.965 1195.89 665.595C1175.76 669.294 1176.98 667.027 1199.55 658.832C1259.28 637.134 1302.31 598.913 1324.82 589.283C1336.3 584.38 1368.74 553.591 1366.4 549.816C1363.46 545.052 1351 562.4 1321.26 578.777C1309.7 585.144 1298.99 592.404 1297.45 594.915C1295.91 597.426 1292.88 599.479 1290.72 599.479C1284.79 599.479 1279.93 607.88 1266.98 611.817C1244.49 618.645 1347.53 553.153 1347.53 541.302C1347.53 535.961 1338.31 534.536 1336.44 539.593C1333.24 548.226 1248.9 606.484 1239.59 606.484C1238.22 606.484 1231.05 609.731 1223.64 613.699C1207.81 622.182 1202.32 620.346 1216.76 611.401C1277.54 573.776 1323.01 539.331 1323.01 530.911C1323.01 515.198 1297.09 550.674 1271.93 562.614C1265.88 565.482 1258.87 570.326 1256.33 573.38C1250.53 580.374 1231.95 590.132 1229.36 587.543C1224.41 582.598 1276.64 525.931 1286.14 525.931ZM1184.39 317.922C1192.21 320.924 1191.27 326.303 1182.92 326.303C1173.02 326.303 1181.46 329.304 1164.12 340.025C1150.9 348.196 1147.9 348.896 1147.9 343.814C1147.9 341.888 1149.48 340.312 1151.4 340.312C1156.47 340.312 1155.71 327.213 1150.53 325.109C1137.26 319.726 1170.63 312.644 1184.39 317.922ZM1199.07 330.775C1200.05 331.748 1206.03 327.199 1212.37 320.667C1227.3 305.295 1227.14 305.214 1229.91 329.696C1231.22 341.194 1233.6 351.421 1235.22 352.419C1242.77 357.084 1247.73 449.899 1242.35 485.657C1236.74 522.908 1234.94 531.124 1231.66 534.514C1227.36 538.969 1227.65 517.917 1232.15 498.388C1235.64 483.23 1234.04 469.897 1228.72 469.897C1227.2 469.897 1224.89 481.322 1223.6 495.289C1219.73 536.921 1217.18 543.495 1181.07 604.736C1170.76 622.216 1127.36 666.026 1120.36 666.026C1115.24 666.026 1122.86 655.319 1137.79 641.51C1175.73 606.424 1231.96 459.39 1207.44 459.39C1205.51 459.39 1203.94 463.442 1203.94 468.398C1203.94 562.676 1084.86 693.653 1084.86 670.064C1084.86 668.436 1091.56 660.685 1099.74 652.843C1141.93 612.425 1169.36 534.882 1179.15 515.427C1191.25 491.37 1196.09 455.17 1186.39 461.159C1184.42 462.378 1183.73 464.861 1184.85 466.679C1187.79 471.446 1175.92 489.271 1175.92 497.142C1175.92 514.209 1104.83 641.938 1092.74 646.606C1085.91 649.24 1087.58 637.556 1095.97 623.999C1122.81 580.616 1172.41 470.983 1172.41 455.041C1172.41 448.481 1162.63 459.527 1160.33 468.682C1153.81 494.659 1088.36 617.618 1088.36 603.892C1088.36 597.138 1095.36 600.346 1095.36 585.473C1095.36 571.754 1098.52 579.287 1107.52 554.94C1124.43 509.188 1161.95 448.883 1151.82 448.883C1147.85 448.883 1104.2 528.434 1097.5 547.876C1094.7 556.033 1088.94 570.438 1084.72 579.891C1073.41 605.194 1067.18 663.164 1061.02 665.214C1053.96 667.569 1063.84 655.3 1063.84 637.381C1063.84 625.855 1076.1 570.655 1081.2 559.206C1082.92 555.354 1092.62 532.501 1102.77 508.423C1112.91 484.345 1124.07 459.471 1127.55 453.153C1131.04 446.835 1133.89 440.135 1133.89 438.268C1133.89 410.712 1063.83 559.441 1058.77 597.731C1054.74 628.31 1047.7 655.519 1043.82 655.519C1033.64 655.519 1044.49 650.409 1047.7 623.834C1053.14 578.738 1067.73 528.148 1086.75 488.326C1093.42 474.383 1098.87 460.514 1098.87 457.506C1098.87 448.478 1111.12 432.861 1105.9 429.638C1099.27 425.532 1057.65 528.679 1054.42 537.201L1052.19 515.917C1046.74 463.787 1063.84 475.196 1063.84 456.627C1063.84 451.724 1064.81 448.684 1065.99 449.864C1069.09 452.961 1096.47 411.881 1106.21 406.67C1109.88 404.709 1112.88 401.07 1112.88 398.583C1112.88 389.246 1193.85 325.55 1199.07 330.775ZM1112.29 681.787C1099.38 681.787 1096.37 678.117 1105.33 673.319C1110.41 670.601 1113.29 671.186 1117.44 675.771C1122.47 681.332 1122.08 681.787 1112.29 681.787ZM1035.62 702.356C1031.5 709.343 1027.59 715.059 1026.93 715.059C1022.2 715.059 1023.96 707.743 1031.58 695.817C1042.49 678.736 1046.11 684.589 1035.62 702.356ZM1138.7 333.917C1143.94 332.884 1143.87 334.355 1137.91 349.52C1129.11 371.928 1123.18 373.398 1128.66 351.814C1131.32 341.328 1135.07 334.632 1138.7 333.917ZM1005.38 365.396C1006.64 355.817 1032.33 348.399 1032.33 357.61C1032.33 365.798 1038.94 360.682 1039.98 351.694C1041.05 342.353 1041.69 342.07 1062.13 342.353C1082.31 342.63 1083.41 342.189 1088.4 331.846C1093.07 322.169 1095.07 321.136 1107.63 321.903C1125.05 322.968 1133.22 325.815 1128.33 329.114C1126.33 330.455 1121.85 342.255 1118.37 355.332C1110.09 386.352 1097.41 397.379 1100.2 388.509C1103.22 378.923 1105.64 347.315 1109.83 347.315C1111.5 347.315 1112.88 344.163 1112.88 340.31C1112.88 332.017 1106.55 330.963 1103.56 338.759C1099.96 348.122 1086.86 335.318 1095.49 345.714C1101.66 353.139 1097.66 355.452 1084.96 398.973C1074.55 434.687 1070.34 423.741 1072.06 419.266C1078.3 402.987 1082.2 372.71 1078.82 366.675C1075.72 361.131 1074.79 362.479 1072.7 375.62C1069.16 397.785 1052.67 448.881 1051.18 448.881C1048.05 448.881 1050.24 429.317 1055.32 411.841C1061.11 391.93 1060.98 369.554 1055.09 370.846C1053.17 371.267 1051.16 375.994 1050.64 381.353C1049.04 397.765 1037.86 434.872 1034.52 434.872C1027.44 434.872 1043.5 371.83 1036.99 371.83C1033.24 371.83 1025.38 391.86 1025.21 401.848C1025.11 408.345 1024.92 408.359 1020.25 402.209C1010.29 389.074 1025.2 369.215 1011.32 372.842C1005.23 374.435 1004.34 373.311 1005.38 365.396ZM896.903 316.42C946.9 338.463 946.303 343.311 977.187 364.349C1001.61 380.992 1003.06 398.759 1013.43 410.587C1020.49 418.659 1018.98 437.921 1024.32 441.34C1033.86 447.448 1045.64 522.331 1037.58 525.605C1035.65 526.389 1025.28 509.393 1014.51 487.833C971.411 401.459 982.408 449.765 1022.09 526.046C1047.81 575.496 1039.33 598.403 1028.59 565.286C1020.68 540.884 981.676 496.206 968.917 450.204C963.107 429.246 952.48 405.392 956.627 422.616C960.162 437.293 961.454 479.162 981.91 504.92C987.343 511.756 1051.4 634.276 1019.73 586.835C1006.43 566.928 991.124 553.643 981.497 538.192C946.715 482.386 955.583 487.028 944.768 464.644C934.685 443.776 940.522 444.456 932.531 429.145C925.186 415.056 928.283 405.812 924.385 408.215C920.081 410.877 930.01 463.926 938.033 481.129C951.45 509.89 970.192 541.81 984.579 560.39C1017.18 602.498 1021.37 608.438 1021.59 612.91C1023.02 641.745 921.352 504.93 905.017 456.045C900.765 443.326 887.512 408.918 883.87 398.474C882.602 394.825 880.736 392.671 879.723 393.679C877.198 396.204 899.14 517.576 990.284 604.97C1028.97 642.066 1019.96 644.342 995.553 628.502C962.687 607.169 900.391 540.804 884.48 510.173C845.867 435.836 839.539 412.952 839.444 347.316C839.372 296.768 841.159 298.056 837.724 289.706C832.994 278.226 837.039 290.026 896.903 316.42ZM970.212 659.989C957.019 667.694 923.75 672.366 923.75 666.514C923.75 653.052 923.109 660.832 941.265 653.212C970.541 640.929 993.604 646.329 970.212 659.989ZM696.306 454.407C691.378 446.299 685.368 436.619 682.952 432.892C677.865 425.048 650.678 370.1 650.461 360.941C650.228 350.474 614.999 323.282 682.732 333.188C729.264 339.993 824.544 409.489 831.205 441.486C832.252 446.519 834.623 452.998 836.476 455.887C841.884 464.335 848.849 482.647 853.351 485.436C855.141 486.539 860.181 494.924 864.555 504.061C875.516 526.98 888.139 546.611 900.544 560.028C930.605 592.549 877.175 567.29 828.939 474.029C807.493 432.56 750.168 398.477 790.462 439.251C824.956 474.144 830 511.66 866.84 549.647C879.678 562.879 869.751 559.226 886.128 570.573C924.753 597.312 947.313 624.299 885.731 581.64C823.499 538.527 786.297 496.961 768.814 451.007C761.82 432.623 742.094 401.719 739.202 404.612C736.712 407.111 744.493 415.647 767.999 475.148C771.945 485.148 768.618 487.406 772.919 487.406C774.716 487.406 777.126 490.369 778.274 493.99C779.423 497.611 791.292 512.188 804.647 526.386C872.594 598.617 786.414 530.363 733.785 451.465C714.221 422.137 713.72 422.627 727.582 457.524C738.597 485.252 743.941 492.673 779.283 529.283C807.915 558.947 808.79 563.259 783.227 548.756C761.358 536.354 716.553 487.717 696.306 454.407ZM855.459 657.989C807.572 679.381 798.758 681.658 760.897 682.414C704.264 683.547 705.81 691.364 652.956 672.653C627.295 663.565 623.687 661.386 580.529 628.864C562.229 615.072 543.713 602.716 539.377 601.399C529.251 598.327 529.44 592.983 540.231 577.083C581.716 515.95 691.8 486.387 735.39 524.678C745.568 533.616 754.59 541.535 755.437 542.274C756.288 543.013 745.788 542.579 732.104 541.307C707.385 539.01 675.139 546.869 675.104 555.204C675.097 556.854 677.85 557.06 681.219 555.663C694.503 550.154 736.527 549.895 756.459 555.201C776.279 560.476 792.222 567.519 785.413 567.992C771.023 569.012 722.423 569.621 694.353 576.086L673.339 580.926C686.313 582.764 705.57 586.672 729.551 582.236C752.645 577.967 774.296 577.466 787.16 580.905C802.265 584.943 751.118 595.573 715.541 595.79C647.018 596.211 719.682 613.315 766.373 601.881C796.756 594.446 850.586 592.547 834.444 599.486C830.591 601.139 822.634 602.603 816.757 602.739C810.883 602.876 804.579 604.329 802.748 605.968C790.97 616.524 743.885 623.168 709.237 619.168C681.996 616.023 676.645 621.29 700.481 627.784C717.68 632.47 778.14 630.036 784.953 624.38C796.7 614.633 867.94 605.359 872.641 612.962C873.653 614.598 865.513 617.942 854.552 620.394C830.114 625.861 818.262 632.328 793.027 643.278C776.013 650.668 733.365 653.971 716.27 649.229C708.4 647.047 702.37 646.879 701.175 648.812C695.228 658.436 755.663 666.383 778.965 659.042C812.008 648.622 877.699 617.235 909.342 622.439C929.778 625.801 958.777 635.215 958.777 638.49C958.777 643.281 951.121 642.006 944.634 636.136C938.513 630.595 938.978 630.55 899.238 640.759C892.495 642.491 872.795 650.245 855.459 657.989ZM916.749 663.894C916.749 668.055 913.362 669.529 903.791 669.529C889.435 669.529 891.301 664.545 907.118 660.64C914.62 658.787 916.749 659.509 916.749 663.894ZM918.426 677.388C926.989 678.355 940.379 677.977 948.185 676.547C963.62 673.724 963.585 674.187 946.966 693.155C935.973 705.7 943.709 706.954 956.373 694.678C976.147 675.513 980.136 678.806 967.535 703.896C958.002 722.875 957.284 725.565 961.725 725.565C963.347 725.565 968.754 718.077 973.749 708.929C983.45 691.141 1002.73 669.528 1008.88 669.528C1010.94 669.528 1008.68 673.86 1003.86 679.159C995.607 688.212 986.48 706.817 981.514 724.689C978.918 734.019 985.979 735.655 989.082 726.44C995.544 707.247 1007.24 687.498 1017.97 677.667C1034.19 662.81 1038.78 666.547 1025.27 683.603C1010.86 701.797 998.181 750.08 1007.81 750.08C1009.74 750.08 1011.32 747.163 1011.32 743.597C1011.32 729.22 1018.82 714.609 1023.99 718.906C1028.43 722.59 1027.9 749.782 1023.24 757.561C1022.5 758.79 1024.24 761.739 1027.11 764.121C1033.65 769.542 1032.71 766.176 1034.05 750.956C1035.54 734.117 1048.73 694.064 1055.12 687.004C1061.59 679.859 1070.28 681.008 1064.35 688.226C1054.86 699.773 1042.33 771.094 1049.79 771.094C1055.37 771.094 1059.79 759.274 1057.91 749.401C1055.75 738.148 1068.74 697.329 1078.01 686.223C1085.99 676.658 1086.77 680.196 1079.7 693.858C1067.51 717.436 1064.45 780.974 1075.7 776.982C1083.97 774.045 1071.8 745.422 1078.8 724.689C1083.9 709.548 1087.02 713.314 1087.55 735.248C1088.19 762.114 1107.94 815.298 1098.42 749.369C1095.88 731.836 1095.38 717.05 1097.17 713.046C1099.8 707.194 1100.37 707.691 1101.48 716.808C1103.4 732.628 1112.42 750.192 1113.99 765.84C1116.09 786.768 1129.83 784.07 1118.12 740.795C1110.59 712.993 1112.67 706.469 1123.48 723.956C1129.33 733.44 1132.33 744.304 1133.31 759.599C1136.49 809.552 1150.26 762.207 1130.69 716.335C1125.07 703.173 1121.18 691.265 1122.04 689.875C1124.51 685.886 1133.89 690.772 1133.89 696.043C1133.89 698.659 1137.96 708.094 1142.94 717.008C1149.47 728.709 1152.54 740.438 1153.96 759.162C1156.33 790.546 1161.18 793.138 1162.62 763.785L1163.66 742.47L1179.42 764.661C1237 845.73 1130.7 867.24 1099.07 829.117C1096.56 826.098 1092.49 823.629 1090.01 823.629C1079.26 823.629 1040.04 802.331 1028.82 790.406C1011.31 771.788 959.903 748.042 930.761 745.114C882.429 740.256 863.744 735.28 860.35 726.356C850.789 701.207 883.68 673.473 918.426 677.388ZM929.008 813.124C925.523 809.271 920.154 806.074 917.082 806.021C905.962 805.825 864.215 767.03 864.215 756.891C864.215 755.388 863.363 751.942 862.327 749.231C860.177 743.627 904.988 747.287 916.955 753.693C920.44 755.56 926.493 757.087 930.404 757.087C948.188 757.087 989.327 774.388 1005.67 788.741C1047.79 825.722 1120.2 862.899 1150.32 863.004C1161.07 863.043 1163.67 872.219 1153.97 875.907C1133.42 883.731 1079.87 878.702 1053.34 866.458C1026.73 854.173 1029.95 862.445 977.138 837.263C930.626 815.072 936.596 821.504 929.008 813.124ZM971.296 921.898C981.942 854.87 976.887 859.384 996.113 866.337C1008.05 870.652 1009.82 886.262 1000.47 904.565C986.567 931.754 985.953 1163.08 985.953 1163.08C979.359 1161.06 972.858 1157.67 964.887 1152.09L955.234 1145.33C956.064 1119.94 958.344 1003.44 971.296 921.898ZM1023.01 1627.5C1020.43 1623.7 1018.32 1618.43 1018.32 1615.78C1018.32 1608.84 989.146 1554.75 985.118 1541.92C978.264 1520.09 908.347 1428.03 900.937 1347.23C900.055 1337.59 897.572 1325.45 895.421 1320.24C890.99 1309.5 893.144 1241 898.968 1207.43C901.35 1193.69 901.434 1175.99 899.21 1154.89C895.084 1115.76 895.109 1117.82 898.769 1117.82C902.842 1117.82 944.242 1147.12 968.206 1162.44C976.282 1167.59 984.824 1175.43 987.185 1179.84C989.549 1184.26 993.006 1187.87 994.866 1187.87C999.114 1187.87 1009.27 1200.35 1032.73 1225.46C1052.09 1246.18 1074.35 1279.38 1074.35 1287.52C1074.35 1290.5 1075.64 1292.94 1077.21 1292.94C1092.4 1292.94 1151.71 1495.88 1156.53 1564.37C1160.75 1624.43 1158.5 1688.47 1151.15 1717.09C1149.36 1724.04 1148.69 1738.95 1149.65 1750.22C1151.56 1772.68 1143.76 1817.59 1135.81 1829.91C1117.81 1857.84 1129.35 1958.97 1132.13 2003.91C1134.32 2039.49 1139.28 2059.95 1134.55 2059.95C1130.42 2059.95 1109.37 2016.29 1109.37 2007.72C1109.37 2004.47 1107.85 2000.28 1105.98 1998.41C1101.74 1994.17 1089.26 1958.29 1085.93 1949.1C1162.86 1789.69 1091.4 1687.29 1091.11 1668.77C1090.89 1654.94 1081.37 1665.79 1083.73 1644.37C1085.82 1625.42 1078.94 1600.02 1076.45 1559.12C1071.81 1483.06 1044.13 1416.28 1035.95 1389.85C1000.88 1276.51 924.061 1195.9 915.225 1147.2C913.358 1136.89 910.311 1131.83 905.968 1131.83C896.368 1131.83 923.01 1195.24 948.941 1234.1C994.559 1302.46 1025.48 1383.31 1041.19 1459.3C1045.4 1479.66 1047.95 1470.96 1053.18 1513.59C1059.03 1561.32 1064.02 1591.78 1064.36 1609.9C1064.5 1617.6 1065.47 1625.33 1066.52 1627.06C1075.29 1641.65 1064.66 1683.14 1048.02 1699.27L1035.83 1711.09V1697.94C1035.83 1677.19 1028.17 1635.09 1023.01 1627.5ZM922.536 1975.89C946.191 1956.73 967.751 1934.46 985.273 1911.1C992.495 1901.47 999.524 1892.8 1000.89 1891.83C1005.3 1888.73 1028.82 1850.28 1028.82 1846.18C1028.82 1837.99 1019.76 1845.59 1011.31 1860.85C1006.5 1869.56 998.618 1881.45 993.802 1887.29C972.001 1913.74 951.343 1943.65 915.232 1967.3C870.405 1996.67 1019.68 1848.65 1009.61 1832.37C1006.12 1826.73 989.38 1857.07 954.66 1895.63C941.8 1909.92 927.878 1925.54 923.721 1930.36C899.439 1958.49 931.846 1904.34 959.655 1870.31C979.075 1846.55 983.095 1839.3 976.854 1839.3C971.265 1839.3 923.756 1896.22 923.756 1902.92C923.756 1904.53 922.261 1905.84 920.436 1905.84C911.088 1905.84 932.095 1866.28 956.1 1838.68C990.245 1799.43 962.503 1814.95 934.299 1851.51C905.509 1888.83 915.917 1862.55 947.03 1821.04C967.301 1793.99 960.871 1792.53 936.064 1818.53C924.99 1830.14 915.138 1838.85 914.168 1837.88C901.367 1825.08 975.669 1764.8 940.394 1786.33C913.423 1802.78 934.207 1776.26 945.924 1776.26C949.283 1776.26 951.776 1773.5 951.776 1769.78C951.776 1757.78 992.795 1748.87 1042.17 1714.11C1054.33 1705.55 1065.76 1694.63 1067.59 1689.84C1082.07 1651.75 1106.21 1776.91 1095.4 1834.05C1093.22 1845.6 1090.1 1867.32 1088.49 1882.3C1084.74 1916.94 1079.06 1917.04 1066.12 1940.86C1056.52 1958.52 1005.4 2009.7 987.216 2019.87C966.998 2031.16 965.445 2028.98 984.267 2015.71C1011.44 1996.56 1056.93 1936.68 1056.73 1920.33C1056.63 1911.45 1056.42 1911.36 1051.48 1917.89C1048.65 1921.63 1046.34 1926.1 1046.34 1927.83C1046.34 1946.04 956.449 2029.03 926.385 2039.98C913.917 2044.52 920.806 2035.69 937.981 2025.12C973.427 2003.31 1054.89 1904.77 1052.51 1886.58C1051.42 1878.23 1045.1 1878.46 1043.35 1886.92C1041.15 1897.58 1011.58 1940.74 994.61 1958.07C964.014 1989.3 955.369 2006.48 903.402 2031.94C854.303 2055.99 853.354 2054 899.21 2023.18C918.461 2010.25 933.339 1998.25 932.275 1996.53C931.211 1994.81 932.674 1993.4 935.522 1993.4C943.001 1993.4 1010.9 1909.83 1016.68 1900.59C1029.52 1880.08 1051.23 1862.42 1039.32 1855.06C1037.39 1853.86 1034.23 1857.05 1032.3 1862.13C1027.43 1874.93 921.289 2006.78 907.633 2001.53C904.926 2000.5 902.709 2001.78 902.709 2004.41C902.662 2013.44 870.213 2023.24 893.988 2004.53C898.803 2000.75 902.821 1996.3 902.915 1994.65C903.004 1993 911.837 1984.56 922.536 1975.89ZM774.055 1769.33C785.147 1767.56 797.713 1763.66 801.978 1760.67C814.414 1751.96 821.003 1758.8 825.623 1746.65C833.885 1724.92 860.709 1727.21 860.709 1749.66C860.709 1752.5 862.163 1755.73 863.942 1756.83C868.28 1759.51 867.354 1768.4 882.105 1804.59C893.82 1833.34 902.509 1869.86 901.052 1884.23C895.021 1943.78 880.879 1997.22 873.184 1989.53C872.277 1988.62 875.25 1973.76 879.793 1956.49C884.338 1939.23 889.039 1914.86 890.243 1902.34L892.432 1879.57C872.099 1923.83 864.103 1990.91 852.78 2012.66C846.238 2025.23 813.554 2066.59 808.55 2068.62C799.37 2072.37 800.799 2067.74 812.896 2054.54C827.052 2039.09 848.154 1998.42 853.709 1975.89C871.932 1901.97 881.08 1842.49 867.852 1883.95C865.243 1892.14 861.986 1898.84 860.617 1898.84C856.18 1898.84 854.655 1933.93 845.189 1967.13C840.595 1983.24 818.785 2038.39 804.409 2046.08C800.703 2048.06 797.67 2051.33 797.67 2053.34C797.67 2059.23 768.783 2084.46 762.037 2084.46C752.741 2084.46 759.84 2073.95 762.772 2073.95C778.151 2073.95 812.033 2017.19 825.509 1968.84C869.06 1812.59 839.851 1890.86 839.82 1892.28C839.64 1900.85 829.152 1903.86 829.247 1912.4C829.369 1925.35 797.845 2017.91 793.313 2017.91C791.856 2017.91 790.665 2020.18 790.665 2022.96C790.665 2028.34 765.06 2059.72 756.654 2064.64C747.699 2069.88 748.315 2064.83 758.223 2051.79C781.972 2020.55 792.352 1995.25 811.538 1921.86C822.143 1881.3 824.805 1854.81 815.436 1883.07C812.883 1890.78 808.625 1899.58 805.973 1902.62C803.326 1905.67 802.019 1909.02 803.077 1910.08C809.76 1916.76 761.974 2032.51 744.729 2051.41C735.207 2061.84 739.67 2066.95 734.628 2066.95C732.701 2066.95 731.126 2066.55 731.129 2066.07C731.153 2054.13 818.462 1881.32 802.684 1881.32C800.573 1881.32 787.163 1908.57 787.163 1912.87C787.163 1919.92 746.966 1999.4 746.582 2000.4C730.55 2042.26 726.14 2030.65 722.402 2052.76C718.971 2073.05 710.158 2070.8 710.06 2082.26C709.99 2091.85 704.726 2100.42 701.805 2095.69C699.55 2092.04 715.38 2033.16 720.332 2026.78C721.877 2024.79 726.041 2015.29 729.592 2005.66C736.216 1987.69 740.912 1978.54 763.288 1940.01C787.325 1898.63 807.45 1839.18 765.106 1916.35C761.408 1923.09 756.35 1930.97 753.87 1933.86C739.848 1950.19 702.415 2037.4 693.744 2073.95C683.804 2115.83 679.388 2107.09 687.149 2060.91C692.311 2030.22 739.018 1924.45 749.178 1920.44C752.99 1918.94 749.468 1918.45 759.475 1897.17C770.261 1874.22 765.758 1870.24 752.809 1891.28C746.662 1901.28 741.594 1910.61 741.552 1912.02C741.51 1913.44 738.376 1918.54 734.59 1923.35C726.251 1933.96 693.82 1999.58 690.622 2012.31C687.718 2023.87 682.09 2024.17 682.09 2012.75C682.09 2001.11 716.5 1916.1 723.949 1909.34C727.375 1906.24 734.071 1890.24 734.207 1884.83C734.281 1881.94 735.236 1874.85 736.329 1869.07C739.729 1851.12 690.692 1953.7 683.735 1970.64C681.017 1977.25 680.775 1977.17 679.409 1969.23C677.836 1960.1 687.653 1924.64 693.954 1916.69C700.094 1908.93 692.987 1913.85 702.061 1900C705.406 1894.9 708.387 1885.85 708.685 1879.9C709.458 1864.59 715.411 1856.81 711.178 1856.81C708.04 1856.81 691.642 1886.79 691.065 1893.58C690.9 1895.51 687.769 1902.6 684.112 1909.34C675.573 1925.07 672.845 1917.75 680.641 1900.04C683.899 1892.64 686.98 1880.27 687.485 1872.57L688.406 1858.56C682.631 1870.43 672.896 1889 669.949 1904.69C666.824 1921.34 664.46 1925.33 661.014 1919.75C659.532 1917.36 660.52 1910.15 663.203 1903.73C670.721 1885.72 665.256 1869.5 673.991 1856.71C683.783 1842.36 724.753 1797.27 727.999 1797.27C729.662 1797.27 736.17 1791.71 742.457 1784.92C751.766 1774.85 757.633 1771.96 774.055 1769.33ZM609.946 1959.13C612.643 1967.38 615.634 1982.01 616.593 1991.65C620.146 2027.32 642.038 2145.15 616.722 2065.19C598.093 2006.36 594.538 1991.33 594.538 1971.4C594.538 1959.22 592.745 1950.74 589.624 1948.15C575.33 1936.29 598.462 2089.82 635.07 2130.27C641.865 2137.78 637.504 2139.4 628.745 2132.61C606.649 2115.51 563.017 1998.25 563.017 1955.96C563.017 1939.9 558.093 1935.6 554.787 1948.78C551.445 1962.08 569.577 2050.06 577.3 2058.01C579.076 2059.85 580.529 2063.9 580.529 2067.03C580.529 2073.35 599.211 2109.61 609.15 2122.58C617.916 2134.02 617.142 2140.91 608.32 2129.99C581.279 2096.52 560.45 2057.8 550.861 2023.17C541.693 1990.06 538.891 1991.57 537.255 1956.62C536.282 1935.79 534.709 1928.6 531.119 1928.6C525.07 1928.6 525.659 1950.73 532.884 1995.15C540.918 2044.54 551.263 2068.3 588.171 2122.11C626.858 2178.53 514.934 2062.81 505.551 1944.36C503.47 1918.08 504.575 1919.85 500.357 1919.85C492.547 1919.85 498.336 1992.67 507.18 2005.66C510.825 2011 516.826 2045.12 521.344 2047.9C523.073 2048.97 524.492 2051.42 524.492 2053.35C524.492 2067.13 490.615 2016.59 483.873 1927.3C475.898 1821.65 456.931 1991.23 522.258 2083.58C551.939 2125.53 551.158 2134.7 521.063 2097.59C447.381 2006.75 468.609 1919.83 459.611 1891.56C453.968 1873.78 477.911 1809.39 502.073 1777.37C506.696 1771.23 510.482 1764.73 510.482 1762.91C510.482 1747.87 524.768 1752.9 538.452 1772.75C551.712 1792 577.977 1818.1 585.803 1834.58C594.001 1851.86 596.361 1842.5 599.785 1853.29C601.003 1857.13 603.924 1862.25 606.278 1864.67C635.43 1894.67 677.309 1986 653.598 1951.64C644.321 1938.2 636.566 1933.96 636.566 1942.33C636.566 1950.67 643.571 1945.5 643.571 1952.15C643.571 1954.51 638.93 1951.36 633.26 1945.15C616.863 1927.2 609.83 1930.01 623.433 1949.08C641.179 1973.97 659.716 2113.7 643.977 2103.98C641.826 2102.65 639.984 2095.74 639.879 2088.63C639.565 2067.5 621.38 1965.44 615.321 1950.81C607.162 1931.12 602.938 1937.66 609.946 1959.13ZM559.026 2112.2C557.38 2117.13 540.247 2095.6 536.881 2084.38C534.348 2075.95 534.432 2075.9 539.78 2082.71C542.806 2086.56 545.335 2091.59 545.394 2093.89C545.457 2096.19 548.831 2100.4 552.896 2103.25C556.959 2106.09 559.719 2110.12 559.026 2112.2ZM519.239 2170.63C505.11 2181.52 498.687 2183.93 501.195 2177.39C502.453 2174.12 503.479 2170 503.479 2168.23C503.479 2166.46 508.603 2165.06 514.861 2165.12C525.816 2165.23 525.981 2165.44 519.239 2170.63ZM424.568 1897.09C433.779 1908.32 436.066 1904.94 429.3 1890.1C425.748 1882.3 426.19 1880.01 432.448 1873.75C442.938 1863.26 447.778 1868.32 445.761 1887.67C437.322 1968.57 445.738 1969.82 417.672 1947.74C408.041 1940.16 398.542 1933.95 396.56 1933.91C382.393 1933.71 373.158 1903.78 385.784 1898.97C396.739 1894.81 397.183 1890.58 387.903 1878.78C372.034 1858.61 383.834 1836.89 408.84 1840.24C425.224 1842.44 424.988 1842.85 415.935 1828C400.574 1802.8 435.173 1771.49 455.697 1792.02C463.431 1799.75 475.461 1795.57 475.461 1800.77C475.461 1802.7 474.141 1804.28 472.526 1804.28C470.915 1804.28 466.755 1813.34 463.28 1824.41C453.67 1855.07 450.574 1860.31 442.071 1860.31C420.302 1860.31 410.798 1880.29 424.568 1897.09ZM467.79 1730.88C485.665 1725.94 516.479 1745.45 503.489 1753.49C498.017 1756.87 502.486 1767.54 494.723 1770.52C491.834 1771.63 489.469 1774.23 489.469 1776.29C489.469 1783.24 476.433 1794.68 473.652 1790.17C472.248 1787.9 465.857 1783.86 459.444 1781.18C433.278 1770.24 438.465 1738.97 467.79 1730.88ZM589.947 1806.1C603.809 1796.52 611.616 1796.44 620.291 1805.8C630.199 1816.49 633.064 1817.03 633.064 1808.21C633.064 1791.1 659.895 1789.85 675.291 1806.24C682.086 1813.47 682.86 1816.19 679.512 1821.07C667.597 1838.41 653.592 1865.37 651.771 1874.48C646.406 1901.3 632.566 1868.12 599.562 1829.27C584.739 1811.83 584.052 1810.18 589.947 1806.1ZM648.702 1983.94C642.216 1966.18 642.804 1958.83 650.345 1963.48C655.756 1966.84 652.61 1981.57 657.178 1984.39C661.718 1987.2 664.596 2011.57 664.936 2050.04C665.419 2105.02 658.691 2104.25 656.891 2049.12C655.766 2014.79 653.567 1997.26 648.702 1983.94ZM302.989 1874.24C314.034 1873.91 321.572 1861.49 316.571 1851.84C307.185 1833.76 321.888 1816.46 343.055 1820.69C352.84 1822.65 356.753 1817.58 349.104 1812.85C344.288 1809.87 331.883 1781.17 331.883 1773C331.883 1756.66 367.911 1746.5 382.614 1758.7C391.296 1765.91 391.941 1761.13 384.393 1745.51C363.929 1703.16 399.856 1689.87 455.087 1719.36C456.394 1720.06 457.969 1716.2 458.589 1710.79C461.293 1687.19 500.19 1682.9 528.516 1703.07C539.044 1710.56 539.629 1710.1 538.652 1695.06C536.844 1667.28 600.449 1667.05 613.093 1694.81C617.174 1703.76 624.371 1705.2 627.271 1697.64C635.747 1675.55 699.625 1694.53 699.625 1719.14C699.625 1729.79 706.65 1733.15 709.126 1723.68C710.916 1716.84 712.831 1716.15 725.52 1717.86C754.322 1721.72 767.306 1757.06 743.704 1767.35C737.761 1769.94 728.63 1776.16 723.418 1781.16C711.917 1792.2 710.131 1792.42 710.131 1782.8C710.131 1759.73 687.38 1742.87 661.115 1746.48C646.398 1748.51 644.65 1747.9 637.52 1738.25C628.295 1725.77 613.053 1721.69 596.301 1727.22C585.626 1730.75 582.474 1730.32 572.237 1724C553.833 1712.62 526.651 1723.54 532.909 1739.8C535.417 1746.31 535.585 1746.3 539.329 1739.48C547.57 1724.45 562.641 1722.92 572.969 1736.05L579.91 1744.87C589.006 1739.57 618.885 1716.32 642.006 1756.89C645.558 1763.12 645.999 1763.13 655.378 1756.98C676.396 1743.21 717.008 1776.53 704.116 1796.97C697.791 1806.99 689.035 1810.04 685.316 1803.51C682.189 1798.02 669.321 1790.82 652.965 1785.4C646.644 1783.31 633.223 1788.42 629.286 1794.43C628.116 1796.21 623.142 1795.98 617.661 1793.9C606.001 1789.47 591.81 1792.41 581.99 1801.31C574.709 1807.9 574.593 1807.81 552.581 1778.08C523.538 1738.86 524.506 1750.38 524.506 1737.94C524.506 1723.88 518.314 1721.12 513.747 1733.14C510.434 1741.85 509.61 1742.28 506.574 1736.86C497.591 1720.8 475.158 1716.66 454.439 1727.24C434.402 1737.46 430.354 1748.12 437.302 1772.38C438.181 1775.46 434.573 1778.39 427.537 1780.31C411.563 1784.66 401.925 1798.47 401.925 1817.01C401.925 1827.89 400.488 1832.29 396.941 1832.29C378.445 1832.29 366.134 1857.29 375.644 1875.53C385.075 1893.66 370.408 1888.95 370.408 1910.12C370.408 1915.81 368.59 1919.66 366.03 1919.41C342.761 1917.03 315.818 1911.29 312.532 1908.01C302.593 1898.07 295.918 1874.45 302.989 1874.24ZM125.738 2134.39C124.495 2132.42 116.916 2127.08 108.895 2122.52C87.6886 2110.46 54.3007 2074.33 31.9947 2061.26C13.9937 2050.71 13.5306 2048.9 26.2896 2038.86C45.3176 2023.9 70.4778 2016.96 73.7178 2025.79C74.9998 2029.29 76.25 2029.29 79.962 2025.79C89.061 2017.21 138.581 2021.84 165.558 2033.8C171.365 2036.37 180.821 2040.26 186.572 2042.44C201.796 2048.21 252.59 2082.28 248.167 2083.76C246.1 2084.44 239.961 2081.84 234.525 2077.97C221.413 2068.63 195.593 2058.46 192.606 2061.45C189.654 2064.4 197.663 2069.8 209.284 2072.69C214.099 2073.89 221.191 2077.62 225.044 2080.98C236.868 2091.28 262.151 2103.5 293.339 2113.99C327.413 2125.45 335.696 2130.61 315.978 2128.08C250.822 2119.74 166.083 2059.48 187.727 2085.55C198.969 2099.1 319.025 2148.02 327.77 2142.61C329.273 2141.69 336.719 2142.53 344.315 2144.48C365.237 2149.86 371.986 2145.91 380.354 2151.17C384.591 2153.84 380.032 2154.39 363.385 2153.22C288.604 2147.94 240.031 2131.83 182.396 2093.18C158.804 2077.36 153.247 2074.93 153.247 2080.45C153.247 2099.37 263.514 2148.65 332.474 2160.55C410.597 2174.02 339.266 2174.13 281.081 2163.13C234.101 2154.25 227.902 2152.06 195.054 2132.79C143.433 2102.5 132.233 2097.31 132.233 2103.65C132.233 2109.95 132.308 2105.42 156.829 2121.78C214.687 2160.43 299.152 2186.93 345.456 2180.97C361.116 2178.95 374.858 2182.85 367.699 2187.27C353.182 2196.24 287.29 2192.2 256.564 2180.45C179.321 2150.91 162.667 2145.71 176.011 2155.3C186.329 2162.72 211.476 2170.27 207.178 2172.82C203.587 2174.96 129.183 2139.84 125.738 2134.39ZM414.17 2178.77C391.687 2178.47 389.619 2177.13 368.64 2169.05C398.463 2168.74 399.093 2170.15 414.17 2178.77ZM421.175 2157.68C429.906 2159.63 430.499 2160.34 424.677 2161.86C420.824 2162.87 411.368 2161.74 403.663 2159.37C387.493 2154.37 400.686 2153.1 421.175 2157.68ZM369.533 2264.64C329.236 2276.89 193.783 2347.07 348.747 2285.24C400.857 2264.44 362.314 2297.16 315.083 2310.42C299.469 2314.81 319.181 2326 303.207 2326.24C213.318 2327.57 248.605 2341.11 200.529 2332.92C124.237 2319.92 97.6459 2313.59 83.1949 2326.12L75.1119 2333.13L69.981 2325.81C43.704 2288.29 126.778 2193.52 182.92 2196.97C207.694 2198.49 195.955 2190.33 225.795 2197.93C264.482 2207.78 357.551 2207.11 393.156 2196.72C462.582 2176.48 397.247 2217.38 294.437 2233.48C227.26 2244 219.341 2252.62 285.023 2243.73C334.622 2237.01 381.101 2226.1 399.548 2216.85C406.913 2213.16 414.794 2210.76 417.059 2211.52C422.601 2213.39 399.242 2223.14 391.353 2230.02C388.436 2232.57 379.767 2236.22 372.09 2238.14C331.421 2248.29 253.866 2279.87 268.824 2280.18C276.967 2280.34 308.162 2270.97 316.105 2265.96C318.031 2264.75 327.487 2262.63 337.119 2261.24C353.516 2258.89 404.605 2238.12 408.78 2232.11C411.725 2227.88 427.625 2217.54 431.198 2217.54C434.701 2217.54 399.409 2255.56 369.533 2264.64ZM330.007 2028.08C328.844 2024.42 326.442 2021.42 324.67 2021.42C322.898 2021.42 317.469 2015.11 312.604 2007.41C305.162 1995.61 293.341 1988.3 293.341 1995.48C293.341 2005.31 332.51 2047.11 358.001 2064.49C381.249 2080.34 399.121 2095.42 397.073 2097.47C395.63 2098.92 371.705 2086.2 363.888 2079.84C358.383 2075.36 347.147 2068.68 337.12 2063.93C328.154 2059.67 289.043 2021.8 281.093 2009.67C275.739 2001.49 265.322 1996.78 265.322 2002.52C265.322 2004.89 293.785 2048.21 347.79 2082.6C376.441 2100.83 369.251 2101.97 376.474 2101.97C383.192 2101.97 418.261 2118.27 420.968 2122.65C423.668 2127.02 382.601 2112.13 363.387 2101.79C349.766 2094.44 305.676 2076.4 267.554 2033.76C241.2 2004.3 231.092 2004.85 249.993 2026.37C267.759 2046.61 288.98 2076.22 350.253 2107.31C365.183 2114.89 377.396 2122.3 377.396 2123.78C377.396 2127.49 373.932 2126.69 361.636 2120.17C332.46 2104.7 299.753 2105.88 245.604 2048.4C232.526 2034.52 218.857 2021.59 215.218 2019.66C206.641 2015.12 190.051 1984.72 186.857 1967.69C185.484 1960.37 183.582 1952.35 182.633 1949.88C181.348 1946.52 188.324 1944.86 209.98 1943.38C274.648 1938.93 303.917 1912.74 340.479 1929.92C349.185 1934.01 359.401 1937.36 363.184 1937.36C388.415 1937.36 444.297 1980.24 449.169 2003.34C452.3 2018.17 443.31 2014.68 428.544 1995.32C419.165 1983.02 412.419 1979.39 412.419 1986.64C412.419 1991.35 417.358 1995.05 433.09 2013.04C446.969 2028.92 458.968 2042.24 466.705 2050.87C437.853 2028.05 428.215 2021.36 404.855 1993.86C395.966 1983.39 387.903 1979.56 387.903 1985.81C387.903 1991.69 440.248 2044.68 462.778 2061.6C506.04 2094.11 475.46 2082.5 475.46 2077.02C475.46 2075.27 469.552 2071.17 462.326 2067.9C444.226 2059.71 404.301 2027.64 392.445 2011.77C339.208 1940.5 377.566 2038.2 466.704 2086.22C499.822 2104.05 496.265 2105.47 503.751 2105.47C506.98 2105.47 511.585 2107.84 513.985 2110.73C543.338 2146.09 399.6 2059.66 360.787 2018.6C350.686 2007.92 341.398 2000.21 340.148 2001.46C336.156 2005.45 376.229 2047.8 397.337 2061.89C408.52 2069.36 420.823 2078.18 424.676 2081.5C434.112 2089.63 482.338 2115.98 487.774 2115.98C490.162 2115.98 493.973 2118.22 496.246 2120.96C499.661 2125.07 498.978 2125.6 492.295 2124.01C458.125 2115.85 334.714 2042.9 330.007 2028.08ZM489.469 2193.03C483.88 2196.02 482.465 2195.69 482.465 2191.4C482.465 2184.81 483.283 2186.83 490.933 2183.9C497.813 2181.26 499.181 2187.84 489.469 2193.03ZM686.146 2315.25C682.956 2316.91 669.314 2320.64 655.83 2323.53C594.971 2336.56 498.478 2326.06 481.958 2304.59C458.083 2273.58 455.791 2247.48 474.858 2223.69C501.206 2190.84 509.076 2187.28 497.869 2213.28C490.874 2229.52 490.899 2265.34 497.914 2282.13C503.679 2295.93 512.922 2299.8 508.849 2286.71C498.073 2252.07 508.022 2202.7 530.479 2179.41C563.003 2145.68 500.526 2228.72 531.211 2278.37C541.999 2295.82 543.252 2293.03 536.489 2266.62C529.218 2238.25 531.732 2222.18 549.045 2186.38C565.159 2153.06 578.535 2145.04 566.322 2176.02C555.289 2204.02 553.591 2243.57 562.581 2263.07L569.848 2278.83C569.5 2274.63 560.899 2199.95 579.984 2168.57C599.857 2135.89 578.405 2211.65 594.144 2247.24C603.827 2269.13 606.626 2265.8 601.295 2238.72C596.623 2214.96 598.801 2166.35 604.811 2160.34C607.458 2157.69 608.548 2160.19 608.548 2168.92C608.548 2237.79 660.384 2277.97 636.419 2237.34C622.173 2213.2 621.673 2192.72 618.827 2159.75C625.055 2172.05 660.566 2243.51 664.753 2244.98C677.326 2249.38 649.616 2197.49 637.337 2170.26C630.501 2155.14 666.785 2201.5 684.314 2230.29C686.495 2233.88 689.504 2235.64 691.003 2234.2C693.742 2231.58 679.128 2199.3 674.217 2197.11C672.774 2196.47 671.59 2194.44 671.59 2192.6C671.59 2187.4 655.246 2169.68 658.842 2166.08C661.672 2163.25 695.819 2196.24 695.994 2201.97C696.197 2208.61 720.622 2230.12 720.622 2223.66C720.622 2213.9 701.318 2188.78 677.138 2167.09C664.456 2155.72 654.079 2145.08 654.079 2143.45C654.079 2137.66 660.393 2140.67 673.587 2152.75C695.86 2173.16 681.763 2153.25 719.66 2191.28C747.632 2219.34 748.641 2220.09 748.641 2212.8C748.641 2206.62 707.317 2161.51 701.661 2161.51C699.276 2161.51 693.627 2157.57 689.102 2152.75C677.489 2140.39 683.712 2141.84 711.923 2158.07C725.925 2166.12 744.134 2180.71 754.507 2192.18C764.474 2203.21 773.689 2211.18 774.981 2209.88C779.611 2205.25 755.998 2176.95 733.184 2159.78C704.195 2137.97 707.876 2136.08 743.877 2154.29C773.558 2169.3 781.278 2175.27 796.054 2194.64C801.227 2201.42 806.81 2206.13 808.463 2205.11C812.308 2202.74 788.927 2170.03 777.786 2162.2C773.132 2158.93 765.854 2153.41 761.609 2149.94L753.894 2143.63C783.609 2151.71 820.181 2178.06 825.691 2185.07C829.421 2189.81 834.236 2193.1 836.39 2192.38C846.729 2188.93 787.354 2142.6 763.263 2135.31C758.783 2133.96 755.782 2132.19 756.594 2131.37C758.965 2129 794.819 2141.37 808.179 2149.18C857.902 2178.23 864.5 2184.09 882.785 2215.47C893.215 2233.37 881.518 2272.6 865.519 2273.39C863.347 2273.49 859.345 2276.93 856.623 2281.03C845.54 2297.73 777.458 2294.86 772.673 2302.45C771.444 2304.41 768.803 2304.99 766.806 2303.76C762.559 2301.13 694.653 2310.8 686.146 2315.25ZM1137.82 2896.99C1133.35 2896.99 1125.51 2886.69 1128.06 2884.15C1130.6 2881.61 1140.9 2889.44 1140.9 2893.92C1140.9 2895.61 1139.52 2896.99 1137.82 2896.99ZM1153.75 2896.89C1139.56 2877.86 1121.3 2866.94 1113.93 2873.06C1108.92 2877.22 1072.82 2849.29 1042.35 2817.67C1009.2 2783.28 955.278 2692.9 955.278 2671.72C955.278 2668.96 953.173 2664.95 950.603 2662.82C948.028 2660.68 943.734 2652.21 941.056 2644C922.226 2586.26 901.388 2574.17 869.164 2539.61C827.736 2495.16 789.21 2474.75 769.576 2453.87L761.388 2445.15C772.239 2448.42 789.645 2452.71 808.181 2464.64C867.736 2502.97 934.995 2511.51 978.32 2535.26C1016.25 2556.07 1065.35 2579.26 1116.38 2646.25C1186.13 2737.8 1169.9 2772.07 1227.11 2884.01C1231.83 2893.24 1234.75 2902.31 1233.62 2904.15C1232.48 2905.99 1233.36 2907.5 1235.57 2907.5C1241.27 2907.5 1252.72 2922.07 1252.86 2929.5C1252.92 2932.94 1255.33 2941.38 1258.2 2948.26C1261.08 2955.14 1262.45 2962.38 1261.24 2964.33C1258.29 2969.11 1236.18 2933.14 1233.44 2919.11C1232.25 2912.98 1228.07 2905.1 1224.17 2901.6C1217.15 2895.32 1217.1 2895.38 1219.6 2907.5L1222.13 2919.76C1207 2899.14 1188.93 2874.97 1168.21 2839.2C1146.36 2801.49 1146.02 2810.52 1123.91 2772.15C1091.25 2715.44 965.786 2584.74 965.786 2609.76C965.786 2611.66 971.698 2617.04 978.919 2621.72C1001.25 2636.16 1047.96 2686.38 1088.94 2740C1118.61 2778.83 1109.65 2774.23 1145.31 2824.2C1154.44 2836.99 1161.91 2849.15 1161.91 2851.22C1161.91 2853.28 1163.49 2854.97 1165.42 2854.97C1167.34 2854.97 1168.92 2857.52 1168.92 2860.64C1168.92 2865.51 1205.33 2916.35 1224.08 2937.66C1247.42 2964.19 1232.34 2970.12 1223.06 2959.88C1219.51 2955.95 1205.48 2944.22 1191.88 2933.8C1178.29 2923.39 1161.13 2906.77 1153.75 2896.89ZM1265.06 3025.68C1268.3 3030.08 1271.33 3042 1271.96 3052.82C1273.27 3075.56 1268.61 3078.65 1265.31 3057.22C1258.56 3013.38 1258.59 3016.9 1265.06 3025.68ZM1264.62 3199.94C1258.66 3182.49 1248.79 3139.08 1242.32 3127.32C1240.47 3123.97 1238.97 3118.16 1238.97 3114.39C1238.97 3104.07 1231.96 3106.6 1231.96 3096.65C1231.96 3082.35 1196.94 3013.39 1196.94 3004.15C1196.94 3001.55 1194.69 2997.55 1191.94 2995.27C1184.66 2989.23 1174.5 2956 1165.66 2928.21C1172.98 2933.56 1182.26 2939.89 1198.69 2954.94C1206.4 2962 1216.31 2970.2 1220.72 2973.16C1231.88 2980.64 1247.14 3007.74 1244.93 3016.16C1242.27 3026.38 1250.06 3024.6 1249.01 3031.22C1248.66 3033.48 1249.26 3037.7 1250.36 3040.58C1254.5 3051.51 1259.12 3077.98 1259.71 3094.22C1260.68 3120.88 1267.51 3120.49 1266.87 3147.16C1266.22 3174.11 1271.09 3176.24 1267.31 3190.09L1264.62 3199.94ZM1228.16 3582.57C1225.6 3576.31 1217.7 3564.88 1210.61 3557.18C1183.82 3528.08 1172.91 3512.19 1165.53 3491.51C1163.63 3486.21 1160.01 3481.88 1157.47 3481.88C1148.29 3481.88 1139.18 3443.48 1105.23 3399.17C1083.8 3371.21 1082.16 3362.8 1077.39 3362.8C1075.35 3362.8 1066.73 3355.07 1058.24 3345.64C1031.88 3316.32 1000.39 3286.8 966.165 3259.33C905.026 3210.27 874.724 3182.82 874.724 3176.5C874.724 3173.68 827.339 3112.63 815.497 3100.19C807.562 3091.84 792.062 3062.91 772.604 3041.52C743.974 3010.06 735.428 2962.09 727.523 2944.27C717.703 2922.13 715.311 2878.68 709.763 2868.31C703.308 2856.25 729.694 2858.57 745.416 2871.45C748.457 2873.94 752.803 2875.98 755.075 2875.98C761.134 2875.98 816.267 2909.58 829.926 2912.89C844 2916.3 844.937 2925.01 852.33 2925.01C887.164 2925.01 1060.35 3054.41 1060.35 3080.44C1060.35 3083.25 1061.81 3086.06 1063.6 3086.7C1082.69 3093.56 1158.75 3267.98 1179.41 3352.29C1179.66 3353.31 1199.91 3435.59 1206.93 3449.38C1217.26 3469.66 1221.43 3494.66 1232.43 3513.06C1243.66 3531.82 1241.91 3577.17 1240.33 3571.19C1237.59 3560.78 1230.39 3548.19 1221.67 3523.99C1213.28 3500.68 1198.33 3483.44 1194.95 3469.91C1193.7 3464.93 1191.41 3460.86 1189.87 3460.86C1187.28 3460.86 1175 3439.4 1140.5 3374.61C1106.81 3311.34 1100.18 3310.26 1111.71 3310.26C1119.29 3310.26 1114.37 3305.14 1106.84 3305.05C1098.61 3304.99 1074.7 3250.83 1070.62 3247.22C1069.54 3246.26 1060.18 3231.29 1049.85 3213.95C1009.9 3146.95 1004.21 3150.64 956.968 3091.39C935.376 3064.31 859.044 2990.73 843.297 2981.82C825.653 2971.83 824.812 2976.29 842.124 2988.05C892.289 3022.15 1046.82 3197.79 1079.76 3281.37C1082.98 3289.56 1087.12 3296.25 1088.95 3296.25C1090.78 3296.25 1091.42 3297.65 1090.36 3299.36C1087.59 3303.86 1098.87 3309.31 1098.87 3314.46C1098.87 3319.95 1125.74 3361.88 1153.22 3413.58C1182.55 3468.73 1209.47 3507.31 1226.88 3561.61C1230.14 3571.75 1234.19 3580.9 1235.88 3581.95C1237.58 3583 1238.96 3586.13 1238.96 3588.9C1238.96 3597.82 1232.95 3594.3 1228.16 3582.57ZM1182.93 3771.19C1182.93 3785.49 1172.07 3784.91 1167.54 3770.37C1165.79 3764.77 1166.93 3762.48 1172.12 3761.12C1180.66 3758.89 1182.93 3761 1182.93 3771.19ZM1137.4 3703.21C1137.4 3701.39 1131.88 3693.88 1125.14 3686.52C1118.4 3679.16 1112.88 3671.21 1112.88 3668.86C1112.88 3666.5 1111.7 3664.06 1110.26 3663.42C1104.6 3660.9 1070.54 3602.92 1065.62 3597.46C1063.01 3594.57 1054.85 3583.34 1047.48 3572.53C1017.22 3528.09 965.627 3477.46 1015.35 3541.58C1042.35 3576.4 1054.98 3594.69 1086.59 3644.73C1115.82 3691.01 1148.41 3732.88 1158.1 3750.98C1174.04 3780.76 1127.15 3710.94 1103.09 3693.91C946.901 3583.37 975.825 3466.36 829.885 3317.81C794.067 3281.35 845.891 3317.27 857.197 3317.27C862.944 3317.27 857.308 3324.27 867.778 3324.27C876.094 3324.27 955.279 3362.16 955.279 3366.53C955.279 3367.71 958.827 3370.3 963.159 3372.28C981.668 3380.74 1028.83 3431.45 1028.83 3442.9C1028.83 3444.38 1034 3451.79 1040.31 3459.36C1055.77 3477.89 1078.28 3522.23 1075.68 3529.02C1074.23 3532.78 1075.14 3533.89 1078.56 3532.58C1083.41 3530.72 1086.29 3535.01 1097.39 3560.68C1105.65 3579.76 1116.38 3601.77 1116.38 3608.37C1116.38 3611.22 1117.68 3615.06 1119.27 3616.89C1120.85 3618.72 1125.01 3629.67 1128.51 3641.23C1143.12 3689.46 1147.85 3687.14 1147.99 3698.1C1148.13 3709.5 1177.79 3753.96 1164.83 3742.31C1156.07 3734.42 1137.4 3707.81 1137.4 3703.21ZM1197.48 3988.95C1190.65 3991.22 1194.11 3978.39 1199.9 3976.46C1206.72 3974.19 1203.29 3987.01 1197.48 3988.95ZM1266.98 3732.29C1258.14 3744.51 1249.1 3826.72 1242.46 3839.12C1236.77 3849.77 1224.55 3887.69 1225.33 3892.31C1226.42 3898.79 1221.2 3916.16 1218.17 3916.16C1215.6 3916.16 1212.47 3910.58 1202.23 3887.69C1196.45 3874.78 1179.43 3855.95 1179.43 3862.47C1179.43 3864.43 1183.18 3870.4 1187.76 3875.74C1203.17 3893.67 1211.85 3931.35 1205.23 3951.58C1198.52 3972.11 1195.04 3973.14 1191.78 3955.56C1190.44 3948.34 1184.75 3932.47 1179.13 3920.3C1164.7 3889.03 1171.03 3890.46 1162.02 3884.19C1143.84 3871.52 1147.63 3840.77 1170.29 3817.21C1177.24 3809.99 1182.93 3802.32 1182.93 3800.17C1182.93 3797.99 1186.03 3797.08 1189.94 3798.1C1197.17 3799.99 1200 3795.18 1193.03 3792.86C1190.53 3792.03 1192.9 3783.35 1199.56 3768.93C1208.91 3748.68 1214.16 3732.84 1234.32 3664C1248.28 3616.35 1265.43 3580.64 1277.72 3494.13C1282.79 3458.35 1304.76 3396.46 1289.3 3087.87C1286.25 3026.98 1289.95 3034.2 1271.87 2945.01C1252.51 2849.5 1275.1 2948.32 1242.48 2828.7C1232.2 2791 1230.15 2781.89 1225.88 2770.91C1220.93 2758.25 1226.85 2754.98 1221.64 2751.76C1219.62 2750.51 1217.95 2746.72 1217.95 2743.34C1217.95 2711.77 1102.58 2545.86 996.739 2474.75C983.906 2466.13 965.551 2452.01 955.948 2443.38C932.442 2422.24 944.763 2435.23 909.941 2412.29C884.143 2395.29 789.164 2347.13 781.448 2347.13C774.948 2347.13 773.676 2344 741.641 2332.56C719.107 2324.5 718.998 2324.4 731.039 2322.64C757.957 2318.71 786.526 2322.58 784.61 2329.9C782.726 2337.1 788.673 2339.19 792.666 2332.73C802.65 2316.57 935.941 2365.75 956.115 2393.04C960.22 2398.59 969.623 2406.28 977.013 2410.14C988.252 2415.99 1019.99 2440.7 1064.07 2477.9C1161.91 2560.49 1193.43 2609.8 1193.43 2609.8C1207.76 2620.37 1232.82 2669.87 1232.43 2686.85C1232.25 2695.02 1233.16 2697.5 1235.17 2694.28C1238.89 2688.33 1245.93 2692.15 1246.08 2700.19C1246.14 2703.45 1248.51 2709.18 1251.34 2712.91C1258.87 2722.88 1252.24 2720.15 1265.68 2749.24C1303.52 2831.15 1301.89 2862.55 1330.41 2972.85C1338.82 3005.36 1338.2 3018.21 1345.88 3073.86C1351.7 3116.11 1355.29 3197.31 1351.43 3199.7C1349.9 3200.64 1349.22 3216.84 1349.9 3235.7C1351.66 3284.02 1346.18 3281.46 1338.8 3382.06C1335.75 3423.72 1330.29 3420.96 1328.58 3454.37C1327.95 3466.61 1320.1 3506.57 1311.13 3543.17C1293.12 3616.72 1273.31 3723.56 1266.98 3732.29ZM1740.81 3399.89C1719.75 3414.35 1709.76 3424.41 1671.52 3469.6C1658.48 3485.01 1642.12 3501.37 1635.15 3505.96C1628.17 3510.55 1620.89 3516.16 1618.96 3518.42C1597.82 3543.22 1425.6 3599.71 1406.3 3588.17C1404.91 3587.34 1399.01 3589.13 1393.17 3592.15C1371.38 3603.41 1382.51 3579.35 1440.72 3537.91C1472.46 3515.34 1494.19 3493.51 1531.94 3480.02C1614.1 3450.67 1654.89 3432.98 1664.16 3422.72C1672.25 3413.77 1666.87 3413 1655.34 3421.46C1637.08 3434.86 1609.38 3444.14 1527.9 3474.13C1477.68 3492.62 1433.8 3535.09 1415.75 3548.59C1405 3556.63 1372.63 3594.88 1353.7 3608.82C1330.25 3626.08 1330.17 3623.05 1352.64 3567.68C1368.48 3528.67 1378.56 3507.45 1383.88 3501.9C1392.16 3493.27 1404.23 3467.77 1434.71 3438.72C1446.48 3427.51 1456.11 3416.87 1456.11 3415.08C1456.11 3413.29 1458.11 3411.83 1460.56 3411.83C1467.22 3411.83 1495.93 3380.99 1507.63 3378.06C1520.59 3374.81 1508.41 3373.21 1530.53 3366.23C1538.72 3363.65 1546.99 3360.5 1548.92 3359.24C1586.97 3334.29 1730.28 3343.47 1741.06 3371.55C1742.17 3374.44 1745.3 3376.81 1748.01 3376.81C1763.31 3376.81 1760.28 3386.52 1740.81 3399.89Z" fill="#1B1B1B"/>
<path d="M1459.99 2831.48C1505.99 2746.17 1493.28 2710.84 1510.55 2636.07C1552.97 2452.29 1557.34 2475.71 1554.9 2459.09C1554.06 2453.34 1555.19 2446.44 1557.42 2443.75C1559.8 2440.88 1560.09 2438.37 1558.11 2437.66C1556.27 2436.99 1554.15 2430.13 1553.42 2422.43C1551.08 2397.87 1547.03 2410.74 1545.7 2446.95C1543.84 2497.98 1533.7 2510.62 1520.96 2566.02C1512.21 2604.08 1510.66 2592.59 1506.97 2620.45C1502.8 2651.89 1496.15 2669.79 1492.64 2707.87C1489.25 2744.69 1476.32 2786.97 1458.11 2820.83C1443.62 2847.75 1421.08 2906.19 1421.08 2916.81C1421.08 2939.17 1439.03 2870.38 1459.99 2831.48Z" fill="#1B1B1B"/>
<path d="M1255.78 1984.33C1267.91 1978.28 1253.79 1981.43 1271.26 1968.12C1341.09 1914.9 1458.94 1925.91 1534.18 1992.69C1540.63 1998.41 1562.85 2007.26 1571.01 2007.36C1579.1 2007.45 1571.95 2001.02 1561.38 1998.7C1555.76 1997.46 1535.27 1985.53 1515.84 1972.18C1424.43 1909.37 1319.63 1911.94 1248.84 1978.72C1227.84 1998.52 1203.58 2032.38 1204.13 2041.1C1204.53 2047.55 1240.61 1991.9 1255.78 1984.33Z" fill="#1B1B1B"/>
<path d="M454.435 1171.96C487.407 1202.71 583.315 1261.58 637.813 1335.33C644.566 1344.48 799.396 1538.97 846.693 1586.87C886.797 1627.48 945.447 1697.86 954.085 1716.59C968.926 1748.77 986.8 1727.83 927.905 1633.26C917.909 1617.21 909.735 1603.38 909.735 1602.53C909.735 1597.73 846.47 1510.74 833.038 1485.56C828.418 1476.89 822.51 1467.31 819.904 1464.27C812.246 1455.32 818.747 1457.51 807.821 1446.01C797.392 1435.04 761.922 1380.7 720.61 1342.97C698.139 1322.45 622.762 1268.42 616.605 1268.42C615.544 1268.42 605.023 1261.62 593.22 1253.3C581.418 1244.99 561.517 1233.01 548.997 1226.69C492.957 1198.38 437.025 1136.34 391.393 1123.2C379.618 1119.81 437.07 1155.76 454.435 1171.96ZM587.522 1263.22C603.615 1271.74 636.758 1297.66 645.37 1308.46C650.844 1315.33 658.084 1320.95 661.453 1320.95C668.836 1320.95 710.104 1347.79 710.104 1352.59C710.104 1357.64 720.611 1354.35 720.611 1359.25C720.611 1363.99 751.629 1392.05 769.416 1415.51C788.111 1440.18 793.661 1440.73 813.818 1477.48C828.98 1505.13 845.105 1519.88 862.577 1556.35C869.193 1570.16 877.601 1584.9 881.268 1589.12C892.111 1601.59 923.744 1649.54 923.744 1653.51C923.744 1655.53 924.927 1657.2 926.37 1657.2C927.817 1657.21 931.681 1661.94 934.963 1667.7C945.027 1685.39 936.92 1679 918.487 1654.71C908.856 1642.01 882.438 1612.56 859.785 1589.24C837.128 1565.93 814.286 1540.7 809.026 1533.18C803.762 1525.66 794.883 1514.62 789.29 1508.66C773.054 1491.35 753.033 1461.04 746.454 1461.04C743.797 1461.04 741.621 1458.06 741.621 1454.42C741.621 1450.78 734.837 1440.14 726.544 1430.78C681.244 1379.65 668.412 1351.43 601.795 1281.06C591.056 1269.72 584.633 1261.69 587.522 1263.22Z" fill="#1B1B1B"/>
</svg>
