<svg width="90" height="52" viewBox="0 0 90 52" fill="none" xmlns="http://www.w3.org/2000/svg">
<g clip-path="url(#clip0_12_287)">
<path d="M7.84229 40.2708L8.03576 33.0097L10.3259 30.046C14.4601 24.6955 14.8095 22.42 13.3444 10.3732L12.5748 4.04639L7.1775 4.0809L1.77982 4.04639L1.01052 10.3732C-0.454766 22.42 -0.10555 24.6955 4.02905 30.046L6.31881 33.0097L6.51263 40.2708C6.62472 48.3282 6.97741 48.1232 5.92877 48.8641C5.48492 49.4064 4.26688 50.2443 3.22241 50.7266C2.17759 51.2084 1.36983 51.8919 1.56193 51.9291C1.75399 51.9664 2.33544 51.8383 2.71955 51.96C3.10368 52.0813 11.251 52.0813 11.6352 51.96C12.0193 51.8383 12.6011 51.9664 12.7932 51.9291C12.9852 51.8919 12.1775 51.2084 11.1327 50.7266C10.0882 50.2443 8.85482 49.5276 8.41098 48.9854C7.1304 48.1775 7.83356 48.3758 7.84229 40.2708Z" fill="white"/>
<path d="M57.1293 51.9699C53.5374 51.9673 60.0379 51.9673 56.4456 51.9699C52.8537 51.9725 47.7465 52.1495 47.5669 51.9699C49.0409 51.0283 51.5993 50.3803 52.6947 49.7343C53.7906 49.0888 55.4455 48.1404 55.8762 47.7626L55.9256 46.4326C55.9372 46.1214 55.6875 43.1656 55.617 39.8294L55.4881 33.763L51.7969 30.1544C45.4057 23.9067 44.5346 18.472 47.8467 5.51199L48.6125 2.61804H64.9628L65.7282 5.51199C69.0407 18.472 68.1692 23.9067 61.7779 30.1544L58.0868 33.763L57.9583 39.8294C57.8874 43.1656 57.6377 46.1214 57.6493 46.4326L57.6987 47.7626C58.1293 48.1404 59.7847 49.0888 60.8802 49.7343C61.9756 50.3803 64.5344 51.0283 66.008 51.9699C65.8283 52.1495 60.7216 51.9725 57.1293 51.9699Z" fill="white"/>
<path d="M79.1196 0H71.9243C71.1387 0 70.9505 2.18486 70.4356 4.40281C66.9362 19.4923 68.4945 25.9708 77.056 31.9289C78.1243 32.6723 78.1312 32.7196 78.2726 40.3851C78.4479 49.9183 78.1381 50.3794 71.2543 50.8306C70.1946 50.9003 68.8116 52.0507 69.0583 52.0507H89.1814C89.4277 52.0507 88.0447 50.9003 86.985 50.8306C80.1012 50.3794 79.7913 49.9183 79.9671 40.3851C80.1081 32.7196 80.1149 32.6723 81.1833 31.9289C89.7448 25.9708 91.3031 19.4923 87.8036 4.40281C87.2892 2.18486 87.1006 0 86.315 0L79.1196 0Z" fill="white"/>
<path d="M31.9505 52.0516H31.9746H22.8479C22.6756 51.3928 26.3139 50.4727 27.2761 49.975C30.5929 48.2599 30.9913 47.2435 31.0528 40.3452C31.1168 33.1163 30.7343 31.4966 28.7622 30.6461C22.1582 27.7973 19.1263 22.8547 19.9613 16.2984C20.2591 13.9588 22.9494 4.35601 23.5368 3.4054H40.3883C40.9757 4.35601 43.6664 13.9588 43.9642 16.2984C44.7992 22.8547 41.7673 27.7973 35.1633 30.6461C33.1908 31.4966 32.8083 33.1163 32.8728 40.3452C32.9338 47.2435 33.3326 48.2599 36.649 49.975C37.6116 50.4727 41.2495 51.3928 41.0772 52.0516H31.9505Z" fill="white"/>
</g>
<defs>
<clipPath id="clip0_12_287">
<rect width="89.8182" height="52" fill="white" transform="translate(0.0410156)"/>
</clipPath>
</defs>
</svg>
