<svg width="79" height="52" viewBox="0 0 79 52" fill="none" xmlns="http://www.w3.org/2000/svg">
<path d="M34.9208 5.30473C23.5401 5.30473 14.2815 14.5883 14.2815 25.9998C14.2815 37.4113 23.5401 46.6948 34.9208 46.6948C46.3016 46.6948 55.5602 37.4113 55.5602 25.9998C55.5602 14.5883 46.3016 5.30473 34.9208 5.30473Z" fill="white"/>
<path d="M34.9207 47.1255C23.3034 47.1255 13.8521 37.6483 13.8521 26C13.8521 14.3513 23.3034 4.87446 34.9207 4.87446C46.5381 4.87446 55.9894 14.3513 55.9894 26C55.9894 37.6483 46.5381 47.1255 34.9207 47.1255ZM34.9207 0C20.5999 0 8.99072 11.6405 8.99072 26C8.99072 40.3595 20.5999 52 34.9207 52C49.2416 52 60.8508 40.3595 60.8508 26C60.8508 11.6405 49.2416 0 34.9207 0Z" fill="white"/>
<path d="M6.10862 15.4087C6.10862 15.4087 5.95105 11.4301 5.8274 10.18C5.69818 8.87689 5.5054 4.87418 5.5054 4.87418H5.12459V11.8658C5.12459 12.1026 4.93139 12.2963 4.69525 12.2963C4.45912 12.2963 4.26592 12.1026 4.26592 11.8658L4.09633 4.87547L3.59573 4.87418L3.42571 11.8658C3.42571 12.0647 3.43945 12.2748 3.03846 12.2748C2.63746 12.2748 2.60311 12.0845 2.60268 11.8658C2.60268 11.6475 2.59495 4.87418 2.59495 4.87418L2.0497 4.87547L1.94237 11.8658C1.94237 12.1026 1.74917 12.2963 1.51303 12.2963C1.2769 12.2963 1.0837 12.1026 1.0837 11.8658V4.87418H0.703311C0.703311 4.87418 0.502812 8.87603 0.381311 10.18C0.24006 11.6983 0.100098 15.4087 0.100098 15.4087C0.100098 16.9753 0.899517 18.2676 2.33821 18.4859L1.1232 44.9418C1.1232 44.9418 0.84585 46.6952 2.88948 46.6952C4.92452 46.6952 4.65618 44.9418 4.65618 44.9418L3.89369 18.4825C5.31779 18.2539 6.10862 16.9667 6.10862 15.4087Z" fill="white"/>
<path d="M78.1001 12.4663C78.1001 8.97418 75.3116 6.44848 73.8334 6.44848C72.5029 6.44848 69.5671 8.97418 69.5671 12.4663C69.5671 15.5745 71.0818 18.1536 73.0765 18.6839L71.8705 44.9418C71.8705 44.9418 71.5932 46.6952 73.6368 46.6952C75.6718 46.6952 75.4035 44.9418 75.4035 44.9418L74.6466 18.6714C76.6138 18.1084 78.1001 15.5461 78.1001 12.4663Z" fill="white"/>
<path d="M68.5675 45.542L67.8041 28.1217C67.8411 28.0218 67.8634 27.8961 67.8634 27.7334C67.8634 25.5473 67.8496 20.6066 67.8496 15.7399C67.8496 2.05366 67.5908 2.01362 66.7394 3.04034C65.688 4.30814 64.3274 8.72586 64.3274 15.7399C64.3274 21.8658 65.1513 26.9783 66.2474 28.1742L65.0345 45.542C65.0345 45.542 64.7572 46.6948 66.8008 46.6948C68.8358 46.6948 68.5675 45.542 68.5675 45.542Z" fill="white"/>
</svg>
