<svg width="106" height="52" viewBox="0 0 106 52" fill="none" xmlns="http://www.w3.org/2000/svg">
<g clip-path="url(#clip0_12_281)">
<path d="M34.0087 19.2646H28.043L28.3358 52.0674H30.3488L34.0087 19.2646Z" fill="white"/>
<path d="M81.8313 14.436H23.0205V18.5697H81.8313V14.436Z" fill="white"/>
<path d="M70.8179 19.2646H76.7836L76.4908 52.0674H74.4778L70.8179 19.2646Z" fill="white"/>
<path d="M4.4089 -0.0421255C3.08862 0.0285322 4.72382 -0.480126 1.3719 0.82733C-1.24431 1.84778 0.422719 22.0433 0.598897 27.115C1.79538 26.4868 3.03026 26.2784 4.25207 26.218C5.55547 26.196 7.04693 26.6667 8.32096 27.3502C5.3193 22.5876 5.40694 20.2041 4.40897 -0.0424243L4.4089 -0.0421255Z" fill="white"/>
<path d="M1.60643 26.1249C7.97347 24.1663 18.0698 24.2625 23.1467 26.1249C25.4229 26.9598 23.1467 31.7998 23.1467 31.7998H1.60643C1.60643 31.7998 -0.738567 26.8462 1.60643 26.1249Z" fill="white"/>
<path d="M16.1914 32.6594H20.9841L20.7488 52.0681H19.1316L16.1914 32.6594Z" fill="white"/>
<path d="M8.53093 32.6594H3.73828L3.9735 52.0681H5.5907L8.53093 32.6594Z" fill="white"/>
<path d="M100.714 -0.0421255C102.034 0.0285322 100.399 -0.480126 103.751 0.82733C106.367 1.84778 104.7 22.0433 104.524 27.115C103.327 26.4868 102.092 26.2784 100.87 26.218C99.5671 26.196 98.0756 26.6667 96.8016 27.3502C99.8033 22.5876 99.7156 20.2041 100.714 -0.0424243L100.714 -0.0421255Z" fill="white"/>
<path d="M103.516 26.1249C97.1491 24.1663 87.0527 24.2625 81.9759 26.1249C79.6996 26.9598 81.9759 31.7998 81.9759 31.7998H103.516C103.516 31.7998 105.861 26.8462 103.516 26.1249Z" fill="white"/>
<path d="M88.9312 32.6594H84.1385L84.3737 52.0681H85.9909L88.9312 32.6594Z" fill="white"/>
<path d="M96.5916 32.6594H101.384L101.149 52.0681H99.5319L96.5916 32.6594Z" fill="white"/>
</g>
<defs>
<clipPath id="clip0_12_281">
<rect width="105.3" height="52" fill="white"/>
</clipPath>
</defs>
</svg>
