<svg width="2330" height="4000" viewBox="0 0 2330 4000" fill="#1B1B1B" xmlns="http://www.w3.org/2000/svg">
<path d="M2318.72 439.536C2315.4 437.096 2313.84 433.247 2315.23 430.985C2321.3 421.17 2302.07 411.505 2295.41 421.025C2287.87 431.785 2277.58 432.556 2277.58 422.362C2277.58 413.465 2255.55 381.96 2247.05 378.696C2237.48 375.029 2216.99 385.441 2216.99 393.971C2216.99 399.9 2214 401.561 2203.35 401.561C2186.03 401.561 2179.1 409.607 2182.62 425.629C2187.41 447.459 2174.96 428.95 2170.15 448.118C2166.91 461.035 2186.11 492.285 2195.15 488.815C2201.6 486.335 2183.06 514.653 2169.04 514.653C2161.33 514.653 2160.36 515.748 2164.1 520.251C2169.39 526.624 2157.2 536.443 2114 576.074L2111.86 558.14C2107.56 521.951 2087.42 509.43 2058.1 524.721C2049.96 528.966 2044.47 529.548 2039.18 526.716C2011.21 511.748 1960.91 551.803 1979.52 574.223C1982.96 578.363 1981.97 581.069 1975.29 585.742C1952.56 601.66 1975.41 651.978 2005.36 651.978C2014.86 651.978 2019.08 650.116 2019.08 645.919C2019.08 641.706 2014.84 639.86 2005.17 639.86C1988.54 639.86 1978.69 628.348 1978.69 608.941C1978.69 594.096 1979.3 595.161 2015.52 587.077C2001.53 570.444 1984.82 554.437 2003.82 541.133C2023.48 527.364 2039.27 534.606 2039.27 557.39C2039.27 575.934 2066.88 564.883 2055.88 553.88C2048.62 546.618 2050.62 541.077 2063.17 533.665C2080.41 523.483 2093.51 529.638 2098.78 550.391C2105.68 577.57 2095.97 608.109 2085.14 593.298C2077.92 583.422 2050.11 584.469 2038.76 595.035C2033.93 599.542 2028.55 602.354 2026.82 601.284C2018.88 596.372 2020.12 608.303 2029.37 625.696L2039.53 644.817C2000.96 695.182 1971.77 741.882 1965.93 744.201C1964.06 744.944 1962.53 747.759 1962.53 750.461C1962.53 757.354 1935.83 785.238 1896.42 845.027C1862.67 896.222 1819.84 943.72 1817.74 932.274C1811.49 898.294 1784.4 886.286 1762.78 907.91C1756.46 914.223 1751.39 916.295 1747.81 914.029C1715 893.224 1670.31 949.342 1700 974.093C1705.34 978.552 1705.25 979.626 1699.18 983.27C1681.48 993.897 1678.9 999.963 1680.6 1026.79C1681.78 1045.18 1684.27 1054.28 1689.11 1057.82C1692.88 1060.58 1695.97 1065.36 1695.97 1068.44C1695.99 1072.36 1702.35 1074.41 1717.03 1075.25C1742.91 1076.72 1743.75 1077.51 1733.96 1091.27C1723.72 1105.67 1681.02 1187.96 1649.16 1231.58C1635.95 1249.67 1603.78 1322.45 1598.62 1322.45C1596.62 1322.45 1594.98 1324.47 1594.98 1326.94C1594.98 1332.97 1570.2 1370.92 1566.27 1370.92C1564.55 1370.92 1561.9 1368.9 1560.37 1366.43C1558.61 1363.58 1550.79 1362.83 1538.93 1364.39C1526.09 1366.07 1516.64 1364.95 1508.69 1360.8C1482.12 1346.94 1441.5 1362.47 1441.5 1386.49C1441.5 1391.05 1433.32 1402.84 1423.33 1412.7C1402.44 1433.29 1401.21 1440.74 1415.31 1461.51C1426.55 1478.08 1425.24 1485.81 1411.91 1481.58C1404.88 1479.35 1404.03 1479.9 1407.5 1484.44C1409.87 1487.54 1413.98 1497.66 1416.62 1506.93C1420.84 1521.67 1423.58 1524.49 1438.54 1529.43C1462.78 1537.45 1457.28 1545.72 1479.16 1573.88C1498.8 1599.15 1483.76 1577.96 1461.38 1681.93C1453.96 1716.38 1450.35 1704.81 1451.51 1733.42C1451.98 1745.08 1451.29 1754.65 1449.96 1754.69C1439.61 1754.96 1436.95 1762.21 1443.52 1772.24C1457.37 1793.37 1435.08 1818.87 1421.79 1942.44C1414.8 2007.37 1412.35 2041.91 1413.05 2065.63C1413.7 2088.14 1406.16 2091.05 1403.63 2069.28C1402.21 2057.06 1399.04 2050.95 1386.21 2019.19C1368.69 1975.78 1369.01 1966.39 1342.42 1910.67C1323.38 1870.75 1322.89 1863.96 1339.07 1863.74C1349.43 1863.61 1408.92 1794.52 1411.62 1779.48C1413.08 1771.37 1416.14 1762.39 1418.4 1759.54C1425.11 1751.1 1406.77 1737.55 1352.99 1711.22C1321.51 1695.81 1267.91 1690.72 1226.9 1699.25C1212 1702.36 1193.71 1677.84 1201.52 1665.22C1208.11 1654.55 1094.37 1333.92 1163.75 1320.9C1176.77 1318.46 1199.16 1301.54 1199.16 1294.15C1199.16 1292.09 1189.16 1282.86 1176.95 1273.63C1156.32 1258.06 1154.72 1255.67 1154.72 1240.18C1154.71 1216.26 1177.99 1144.74 1185.79 1144.74C1189.2 1144.74 1191.04 1142.38 1189.92 1139.46C1185.58 1128.15 1204.12 1077.88 1225.14 1043.91C1230.01 1036.05 1236.45 1023.26 1239.46 1015.49C1276.59 919.529 1356.76 902.44 1372.81 987.066C1375.08 999.066 1380.56 1015.02 1384.99 1022.51C1389.41 1030.01 1393.11 1038.31 1393.19 1040.96C1393.78 1058.11 1444.23 1091.91 1480.78 1099.63C1523.58 1108.68 1590.86 1094.05 1583.67 1077.26C1557.26 1015.58 1540.26 985.955 1517.8 962.452C1489.11 932.449 1498.49 944.058 1474.74 929.53C1437.96 907.025 1368.91 894.124 1337.91 903.963C1331.56 905.978 1328.31 902.921 1321.14 888.166C1310.15 865.543 1310.16 864.61 1321.34 851.027C1364.77 798.281 1392.86 796.504 1445.2 843.203C1498.95 891.17 1574.79 887.729 1574.79 837.318C1574.79 823.509 1563.46 801.419 1556.37 801.419C1553.86 801.419 1546.53 796.855 1540.07 791.273C1526.27 779.342 1495.51 767.221 1469.37 763.42C1452.66 760.989 1437.52 763.012 1410.2 771.324C1397.97 775.045 1398.56 767.669 1411.15 759.417C1454.68 730.896 1625.62 777.697 1693.94 763.469C1731.28 755.697 1730.05 754.627 1764.62 744.542C1840.71 722.319 1871.16 662.517 1828.24 619.587C1790.27 581.616 1743.12 569.495 1692.53 584.702C1671.06 591.152 1670.9 591.132 1668.52 582.206C1666.13 573.247 1666.11 573.251 1663.75 583.054C1660.15 598.028 1631.98 605.277 1622.36 614.902C1619.74 617.524 1614.75 619.664 1611.27 619.664C1601.64 619.664 1563.94 654.464 1561.03 666.023C1559.45 672.316 1555.62 676.21 1551.01 676.21C1536.54 676.21 1470.17 700.464 1446.21 714.504C1413.95 733.414 1415.31 734.695 1414.8 684.934C1413.78 584.964 1376.78 544.691 1333.19 596.104C1299.78 635.521 1328.42 756.99 1371.13 756.99C1374.29 756.99 1376.88 758.808 1376.88 761.029C1376.88 767.193 1368.8 762.213 1368.8 771.296C1368.8 776.878 1318.89 838.045 1311.93 840.989C1310.37 841.647 1308.9 828.702 1308.65 812.227C1307.62 743.697 1289.16 697.814 1244.73 653.388C1227.64 636.299 1229.1 621.084 1251.6 581.659C1271.95 545.985 1297.86 488.233 1356.92 426.185C1373.54 408.732 1380.92 397.964 1379.63 393.049C1378.44 388.477 1381.19 383.505 1387.03 379.672C1410.71 364.161 1427.22 340.275 1444.28 317.762L1444.48 345.663C1444.59 361.008 1446.9 378.92 1449.61 385.467C1452.32 392.015 1453.48 400.125 1452.19 403.494C1448.55 412.974 1469.69 419.583 1469.91 427.263C1470.09 433.309 1484.15 450.023 1489.06 450.023C1500.77 450.023 1534.4 399.047 1534.4 381.275C1534.4 359.173 1548.36 369.889 1566.33 405.796C1589.53 452.168 1607.1 471.011 1607.1 480.034C1607.1 489.6 1615.12 482.899 1615.31 493.443C1615.45 501.594 1624.42 514.648 1629.87 514.648C1639.9 514.648 1653.67 487.781 1658.85 458.102C1661.47 443.097 1663.4 440.173 1669.89 441.34C1684.94 444.054 1665.36 439.263 1664.3 409.634C1661.87 340.836 1646.37 311.975 1668.25 349.049C1675.46 361.267 1684.65 374.204 1688.66 377.795C1692.68 381.389 1695.96 385.663 1695.96 387.291C1695.96 395.995 1771.08 468.346 1777.68 465.995C1778.27 465.785 1783.93 467.583 1790.26 469.986C1838.11 488.182 1860.57 414.126 1821.41 367.225C1817.7 362.782 1809.95 351.877 1804.18 342.991C1775.83 299.312 1739.18 283.26 1722.07 266.314C1709.59 253.967 1687.18 236.167 1674.75 228.739C1668.64 225.084 1663.65 220.75 1663.65 219.098C1663.65 217.45 1655.01 211.173 1644.46 205.151C1617.42 189.714 1611.98 184.342 1608.82 169.963C1601.98 138.843 1574.07 122.032 1547.6 133.091L1532.74 139.298L1508.33 113.416C1349.74 -54.697 1154.76 13.816 1200.91 13.816C1209.06 13.816 1221.18 37.216 1232.32 45.348C1236.3 48.248 1239.55 52.021 1239.55 53.725C1239.55 58.108 1287.17 106.713 1291.46 106.713C1293.41 106.713 1300.06 110.687 1306.24 115.542C1319.21 125.745 1314.08 130.131 1288.56 130.664C1254.98 131.363 1199.16 167.988 1199.16 189.322C1199.16 199.771 1238.51 222.89 1252.32 220.552C1262.49 218.838 1259.42 227.883 1274.39 227.883C1279.95 227.883 1287.75 229.616 1291.7 231.732C1295.66 233.849 1315.03 237.584 1334.74 240.032C1378.33 245.448 1376.32 243.001 1355.25 264.989C1316.89 305.028 1298.97 368.081 1319.98 389.092C1329.9 399.012 1330.45 401.561 1322.68 401.561C1314.8 401.561 1305.17 422.926 1293.24 435.893C1275.9 454.735 1239.55 503.756 1239.55 508.304C1239.55 515.019 1216.54 534.26 1222 526.77C1225.97 521.325 1227.69 514.637 1233.21 483.25C1235.92 467.83 1186.14 425.517 1149.19 411.84C1085.03 388.091 994.889 440.295 963.481 519.383C951.009 550.79 947.842 614.579 958.323 623.279C965.186 628.974 969.948 655.995 965.109 661.823C963.15 664.182 961.317 667.445 961.029 669.073C961.029 669.073 949.828 697.661 946.86 711.556C944.388 723.151 936.625 730.43 936.625 721.157C936.625 710.814 840.112 556.25 828.206 537.559C861.882 520.899 865.105 517.134 896.235 489.733V457.497C896.235 439.77 898.198 421.595 900.601 417.107C906.309 406.444 902.221 402.692 893.23 410.334C875.891 425.072 830.716 430.716 788.176 479.199C771.449 460.907 742.85 430.752 683.569 355.46C606.444 257.484 545.152 226.712 509.516 192.542C496.091 179.658 492.334 185.089 492.334 179.415C492.334 169.103 569.612 189.096 598.936 206.985C640.889 232.601 674.829 273.363 712.182 342.995C741.63 397.897 761.434 423.121 773.292 448.914C792.682 491.05 797.499 452.095 750.306 380.902C730.624 351.203 699.346 298.074 694.709 286.45C670.636 226.147 558.784 162.303 484.967 166.733C469.522 167.662 481.76 239.924 501.107 262.014C502.953 264.122 504.468 269.264 504.468 273.436C504.468 282.059 556.329 340.79 564.044 340.904C566.819 340.944 569.093 343.562 569.093 346.72C569.093 362.512 663.085 423.299 682.186 440.255C702.653 458.426 741.017 475.659 751.177 484.733C766.473 498.394 749.199 467.537 793.643 534.199C810.776 559.892 809.965 561.648 784.898 553.138C711.542 528.234 640.2 557.472 663.659 602.83C682.748 639.747 766 640.958 814.193 605.023C829.691 593.464 858.186 607.919 845.302 620.803C842.453 623.661 851.971 633.649 880.167 684.293C905.656 730.074 921.524 756.995 918.057 756.995C910.819 756.995 881.399 746.946 876.059 742.648C796.07 678.29 643.654 702.576 615.874 784.108C602.306 823.933 607.692 814.858 664.011 825.747C726.664 837.864 798.542 817.709 839.797 776.454L864.023 752.228L884.319 757.43C922.694 767.265 977.034 827.548 977.034 860.28C977.034 863.135 979.551 867.991 982.632 871.068C988.63 877.066 1009.35 920.243 1009.35 926.754C1009.35 931.989 1003.93 931.718 998.421 926.209C993.098 920.886 915.96 914.225 853.844 913.72C802.981 913.308 762.271 924.706 735.343 946.9C694.577 980.509 710.459 939.322 710.459 909.911C710.459 902.172 712.523 898.359 716.72 898.359C721.979 898.359 722.54 902.22 720.234 922.593C716.796 952.995 724.188 955.668 728.611 925.622C736.516 871.927 731.483 853.929 708.565 853.929C684.133 853.929 675.021 883.878 696.476 893.653C704.954 897.518 705.56 899.393 702.155 911.267C695.579 934.206 701.712 953.869 692.013 957.587C681.463 961.634 676.459 951.985 677.008 928.627C677.42 910.944 676.241 906.437 671.192 906.437C665.82 906.437 665.218 910.71 667.222 934.621C669.795 965.305 665.623 973.715 656.591 956.048C648.129 939.488 644.644 919.766 649.636 916.68C664.52 907.483 651.365 883.718 630.196 881.569C606.233 879.134 601.624 908.025 624.101 919.798C631.174 923.506 637.058 932.335 642.224 947.009C652.681 976.704 652.181 977.407 633.718 958.944C619.832 945.058 609.484 938.83 609.484 944.359C609.484 947.12 664.239 1003.19 619.949 975.952C604.891 966.695 602.444 963.415 604.124 954.755C609.124 928.958 572.894 916.138 566.541 941.455C562.978 955.644 569.215 964.558 584.426 967.022C599.087 969.395 616.984 987.364 627.66 997.101C607.635 999.374 582.635 1002.31 534.763 1007.1C477.381 1012.85 428.024 1021.53 411.573 1028.78C362.051 1050.58 347.874 1057.63 333.034 1067.84C283.532 1101.9 261.22 1156.86 296.893 1156.86C307.903 1156.86 310.597 1158.44 310.597 1164.94C310.597 1175.04 315.415 1175.23 324.245 1165.48C328.45 1160.83 339.213 1156.98 352.312 1155.44C363.997 1154.07 389.701 1147.55 409.432 1140.96C429.167 1134.38 446.805 1129.91 448.635 1131.04C450.465 1132.17 451.963 1131.62 451.963 1129.81C451.963 1128 461.503 1122.35 473.168 1117.26C499.28 1105.86 498.74 1105.47 530.005 1086.39C542.933 1078.5 554.122 1072.04 554.857 1072.04C555.596 1072.04 552.51 1081.58 547.999 1093.24C540.842 1111.75 535.224 1130.59 521.047 1183.57C516.426 1200.85 495.743 1238.14 489.433 1240.56C480.22 1244.1 483.98 1253.09 495.754 1255.67C543.026 1266.06 595.554 1210.88 616.322 1129.02C618.685 1119.71 622.631 1127.35 623.863 1143.61C626.921 1183.92 630.952 1212.3 635.992 1229.06C641.457 1247.22 639.449 1253.53 628.148 1253.73C606.855 1254.1 541.543 1317.08 522.503 1355.6C515.019 1370.75 506.085 1387.16 502.643 1392.06C485.283 1416.85 525.391 1434.41 563.854 1418.86C600.661 1403.98 630.615 1386.39 644.832 1371.3C656.759 1358.64 659.158 1361.79 654.15 1383.52C645.648 1420.39 651.48 1489.75 664.312 1504.36C667.337 1507.81 668.723 1514.54 667.422 1519.51C664.712 1529.87 675.73 1532.48 679.604 1522.39C680.885 1519.05 683.704 1516.33 685.869 1516.33C701.791 1516.33 748.498 1450.31 765.882 1403.24L777.066 1372.94C779.259 1394.97 783.877 1457.96 800.133 1479.51C804.128 1484.81 807.395 1491.4 807.395 1494.16C807.395 1498.79 841.218 1530.13 854.542 1537.85C874.749 1549.56 877.303 1486.86 882.637 1480.41C883.352 1479.54 893.526 1486.84 905.239 1496.63C935.669 1522.06 1011.53 1552.68 1044.12 1552.68C1078.81 1552.68 1102.67 1568.73 1122.19 1605.19C1134.18 1627.56 1141.42 1637.45 1164.78 1672.16C1192.33 1713.07 1192.93 1714.82 1182.21 1723.07C1177.1 1727 1171.83 1730.26 1170.5 1730.31C1167.26 1730.42 1154.84 1785.24 1154 1803.1C1153.64 1810.87 1150.64 1820.41 1147.36 1824.3C1139.35 1833.76 1148.59 1824.91 1140.43 1848.04C1127.57 1884.51 1144.07 1895.13 1118.19 1881.75C1104.19 1874.51 1103.73 1872.05 1113.97 1859.04C1135.05 1832.24 1133.12 1778.21 1109.23 1726.36C1104.63 1716.36 1099.78 1701.84 1098.46 1694.09C1090.91 1649.77 1033.61 1718.52 1030.22 1775.94C1028.48 1805.48 1023.86 1807.08 1011.17 1782.53C1004.1 1768.86 962.576 1736.86 932.703 1722.07C797.495 1655.12 684.521 1754.61 657.177 1754.61C647.108 1754.64 644.482 1761.73 653.489 1764.59C657.766 1765.95 664.196 1771.54 667.783 1777.01C676.581 1790.44 704.524 1813.91 720.25 1829.35C732.209 1841.09 774.502 1865.09 793.255 1870.78C832.971 1882.82 848.779 1885 895.075 1884.83L944.391 1884.65C925.619 1910.03 926.617 1905.52 926.53 1958L940.331 1961.62C972.389 1970.03 1004.74 1944.15 1023.05 1895.45C1034.12 1866.01 1040.81 1859.93 1054.45 1866.91C1073.99 1876.89 1089.58 1886.74 1102.75 1897.42C1153.14 1938.27 1158.7 1935.07 1211.01 1998.99C1211.11 1990.01 1211.18 1983.84 1211.28 1974.84C1218.96 1983.35 1226.72 1991.26 1247.33 2019.2C1270.39 2050.43 1289.34 2073.71 1284.92 2073.71C1279.91 2073.71 1255.67 2037.36 1250.91 2037.36C1249.1 2037.36 1247.58 2035.09 1247.51 2032.31C1247.39 2027.03 1225.35 2001.01 1220.99 2001.01C1217.83 2001.01 1222.85 2018.43 1223.81 2022.25C1176.48 1993.61 1198.48 2009.47 1102.22 2004.07C1071.17 2002.33 1011.64 2014.17 1007.01 2021.69C1005.8 2023.64 1001.73 2025.34 997.979 2025.46C922.179 2027.86 873.844 2169.57 939.47 2196.99C960.049 2205.59 1010.85 2198.74 1023.99 2185.6C1025.55 2184.04 1029.7 2182.77 1033.22 2182.77C1042.31 2182.76 1098.18 2116.79 1098.18 2106.06C1098.18 2092.96 1158.34 2041.4 1173.52 2041.48C1190.64 2041.58 1243.37 2058.76 1247.62 2065.62C1249.09 2068 1253.03 2068.9 1256.38 2067.61C1262.65 2065.21 1324.37 2167.65 1324.37 2180.45C1324.37 2183.68 1326.19 2187.45 1328.41 2188.82C1334.76 2192.75 1328.67 2199.25 1340.52 2211.97C1348.48 2220.51 1351.49 2229.17 1345.57 2226.5C1276.87 2195.52 1243.59 2172.55 1243.59 2156.1C1243.59 2144.43 1237.37 2143.46 1231.61 2154.23C1205.48 2203.06 1268.19 2275.96 1327.01 2265.14C1359.5 2259.16 1409.19 2309.66 1409.19 2348.66C1409.19 2351.95 1411.58 2358.23 1414.5 2362.61C1424.4 2377.46 1434.36 2417.57 1442.33 2474.67C1447.58 2512.32 1448.5 2511.05 1421.12 2503.78C1309.02 2474 1183 2509.65 1183 2516.78C1183 2524.16 1190.03 2523.48 1236.79 2511.57C1355.46 2481.35 1488.27 2532.4 1508.38 2554.62C1512.27 2558.92 1517.56 2562.43 1520.13 2562.43C1550.72 2562.43 1546.02 2592.75 1514.5 2598.73C1502.88 2600.93 1491.81 2603.71 1489.89 2604.89C1471.08 2616.52 1361.68 2604.14 1291.86 2582.48C1270.65 2575.9 1245.6 2569.77 1236.18 2568.86C1209.63 2566.31 1220.02 2560.37 1188.42 2556.18L1167.79 2553.44C1167.95 2543.21 1167.36 2513.97 1172.78 2513.97C1176.9 2513.97 1191.08 2499.93 1191.08 2495.85C1191.08 2494.83 1195.77 2484.09 1201.5 2472C1214.81 2443.88 1197.84 2417.01 1175.49 2430.82C1170.79 2433.72 1167.24 2457.19 1171.14 2459.6C1174.19 2461.48 1166.73 2491.19 1162.03 2495.9C1160.57 2497.35 1158.14 2490.29 1156.62 2480.19C1153.82 2461.51 1143.01 2440.75 1142.74 2453.54C1142.49 2465.63 1155.15 2507.69 1159.96 2510.75C1163.07 2512.73 1161.66 2513.87 1156.03 2513.91C1125.89 2514.12 1139.61 2466.64 1121.49 2450.76C1113.16 2443.45 1113.04 2443.46 1116.14 2451.36C1133.46 2495.52 1127.12 2518.51 1108.25 2479.95C1098.84 2460.7 1088.17 2449.93 1083.32 2454.78C1079.82 2458.29 1154.02 2553.35 1083.65 2487.64C1028.3 2435.97 1046.3 2472.63 1084.87 2498.89C1102.02 2510.56 1102.51 2509.41 1071.57 2529.75C1043.5 2548.21 1036.37 2548.4 1018.13 2531.13C1004.68 2518.42 995.831 2534.3 1024.49 2548.1C1035.62 2553.47 1041.64 2559.03 1041.64 2563.94C1041.64 2571.91 1037.75 2570.12 1021.47 2554.66C1012.63 2546.26 966.596 2526.11 955.897 2525.95C944.066 2525.78 931.412 2515.07 922.373 2497.59C906.895 2467.67 855.842 2399.32 855.842 2390.04C855.842 2383.88 827.569 2340.44 827.569 2334.79C827.569 2332.61 824.846 2327.82 821.518 2324.14C811.328 2312.88 795.745 2279.09 798.015 2273.17C799.194 2270.1 798.084 2267.59 795.543 2267.59C791.286 2267.59 775.061 2235.33 775.061 2226.86C775.061 2224.83 777.961 2223.16 781.507 2223.16C794.089 2223.16 811.142 2206.85 815.503 2190.64C817.866 2181.87 822.119 2174.69 824.946 2174.69C852.734 2174.69 869.637 2104.54 843.129 2099.24C827.861 2096.19 826.379 2093.07 833.621 2079.18C844.748 2057.84 838.504 2044.76 812.969 2035.93C781.084 2024.9 805.658 2004.85 780.75 1993.5C768.635 1987.98 766.18 1990.95 742.016 2005.21L734.374 1995.5C724.305 1982.7 703.625 1979.01 685.158 1986.72C660.552 1997.01 645.608 2027.47 658.735 2040.59C663.956 2045.81 666.747 2067.2 581.34 1945.12L594.984 1931.47C637.595 1888.86 613.648 1814.15 567.434 1845.51C559.251 1851.06 551.032 1855.61 549.166 1855.61C545.475 1855.61 540.369 1876.66 543.334 1879.66C544.336 1880.68 552.143 1873.86 560.686 1864.52C598.019 1823.68 626.664 1878.94 590.086 1921.24C579.621 1933.34 544.837 1915.11 544.837 1897.52C544.837 1890.99 537.245 1890.64 497.67 1843.49C439.226 1773.88 344.707 1694.05 366.148 1694.05C367.836 1694.05 371.471 1697.66 374.23 1702.07C382.268 1714.95 405.569 1722.96 418.756 1717.38C455.75 1701.74 472.576 1660.58 451.311 1637.76C443.653 1629.54 443.168 1626.86 447.272 1615.5C462.539 1573.28 422.775 1535.27 384.845 1555.82C377.631 1559.73 374.873 1558.91 366.977 1550.51C354.739 1537.48 327.576 1536.55 316.514 1548.78C310.366 1555.57 306.085 1556.54 291.783 1554.4C270.99 1551.28 247.127 1569.61 252.003 1584.96C258.95 1606.86 227.043 1576.99 173.609 1550.55C145.914 1536.84 101.99 1508.25 101.99 1508.25C97.2538 1508.25 69.6738 1479.98 58.8048 1479.98C55.3668 1479.98 51.4329 1478.16 50.0599 1475.94C44.5709 1467.06 27.8448 1471.44 27.8448 1481.76C27.8448 1487.18 29.6619 1492.74 31.8839 1494.11C38.8069 1498.39 36.3388 1503.23 25.8978 1505.85C8.99477 1510.09 -3.21501 1544.24 8.11799 1555.57C11.434 1558.88 10.9009 1562.54 6.09894 1569.39C-13.6261 1597.56 21.6759 1602.67 11.7689 1621.19C0.196865 1642.81 61.2418 1690.27 84.5638 1677.79C89.3418 1675.24 95.526 1675.99 103.858 1680.15C122.789 1689.59 157.092 1672.32 157.092 1653.35C157.092 1651.29 160.517 1649.61 164.706 1649.61C174.735 1649.61 185.366 1632.89 185.366 1617.11C185.366 1602.68 186.723 1602.81 207.762 1619.32C248.58 1651.35 255.919 1660.43 250.551 1672.21C243.18 1688.39 255.33 1725.55 269.854 1731.23C289.552 1738.93 294.419 1744.87 294.419 1736.2C294.419 1721.35 305.401 1717.4 317.461 1727.91C370.825 1774.42 374.431 1778.86 358.841 1778.86C340.936 1778.86 326.929 1790.34 324.231 1807.22C322.393 1818.71 319.683 1823.29 314.735 1823.29C291.729 1823.29 292.016 1873.4 315.155 1896.54C319.299 1900.68 322.692 1905.8 322.692 1907.91C322.692 1910.02 325.071 1913.2 327.979 1914.98C330.883 1916.75 335.669 1924.16 338.61 1931.44C346.01 1949.76 363.991 1961.95 378.823 1958.69C388.921 1956.47 391.546 1957.96 399.051 1970.1C412.392 1991.68 435.657 1995.83 453.586 1979.8C467.529 1967.35 471.972 1948.5 460.961 1948.5C443.088 1948.5 458.886 1987.33 423.285 1972.58C406.131 1965.47 397.492 1951.6 403.372 1940.61C411.341 1925.73 403.267 1922.69 391.11 1936C377.345 1951.08 374.61 1951.31 360.926 1938.63C349.189 1927.75 349.859 1918.14 363.583 1900.57C377.582 1882.64 364.213 1877.56 348.881 1894.98C341.049 1903.88 339.079 1904.68 338.977 1899.02C338.782 1888.59 346.926 1895.15 346.926 1885.43C346.926 1880.72 344.487 1879.53 338.194 1881.18C316.048 1886.97 300.639 1858.87 316.088 1840.91C323.887 1831.85 326.488 1830.96 333.811 1834.88C344.753 1840.73 348.457 1835.11 342.406 1821.83C333.254 1801.74 366.075 1781.47 382.986 1796.78C386.827 1800.25 391.646 1803.2 393.694 1803.32C398.359 1803.6 412.586 1822.75 416.256 1827.4L405.823 1839.79C354.012 1901.36 464.143 1930.07 471.328 1908.51C474.373 1899.37 484.531 1904.47 486.902 1916.31C488.247 1923.05 493.655 1931.94 498.918 1936.08C514.82 1948.59 501.919 1972.73 479.333 1972.73C474.781 1972.73 472.212 1974.86 473.238 1977.78C476.518 1987.1 501.544 1982.37 510.87 1970.67L519.457 1959.91L528.064 1971.37C528.831 1972.39 582.748 2043.02 585.822 2049.02C599.7 2076.09 611.609 2064.24 595.754 2087.6C573.879 2119.84 602.992 2161.34 640.817 2151.85C655.16 2148.25 649.134 2140.44 631.471 2139.73C604.2 2138.65 588.164 2111.54 605.512 2095.84C618.966 2083.67 657.062 2128.53 717.078 2227.19C749.341 2280.24 753.833 2289.8 744.899 2286.37C738.259 2283.82 722.478 2289.82 705.389 2301.39C692.339 2310.22 690.412 2329.17 700.571 2348.81C706.625 2360.52 706.476 2361.28 696.532 2369.1C675.481 2385.66 700.934 2444.84 725.116 2435.55C730.742 2433.4 730.968 2433.98 726.562 2439.28C715.172 2453 740.586 2493.77 760.53 2493.77C771.654 2493.77 795.258 2477.03 795.258 2469.14C795.258 2458.85 791.732 2459.45 778.637 2472C769.307 2480.94 765.894 2481.97 756.2 2478.77C744.264 2474.83 729.982 2452.92 737.677 2450.36C744.034 2448.24 734.195 2425.11 726.937 2425.11C716.339 2425.11 698.321 2404.23 698.321 2391.95C698.321 2380.69 701.605 2378 724.005 2370.87C730.795 2368.7 730.354 2367.3 719.356 2356.05C684.532 2320.43 716.91 2306.18 738.978 2294.44L745.134 2303.23C753.822 2315.63 760.325 2314.39 757.235 2300.91C755.385 2292.86 758.576 2295.92 768.823 2312.01C785.391 2338.05 786.26 2343.31 774.272 2345.06C746.258 2349.13 742.021 2406.77 768.985 2417.02C774.551 2419.14 779.103 2422.52 779.103 2424.54C779.103 2429.76 800.558 2433.3 805.155 2428.83C819.46 2414.94 826.718 2443.78 839.515 2463.88C852.528 2484.33 828.731 2507.89 808.386 2494.7C799.468 2488.91 796.532 2491.57 802.388 2500.12C809.828 2510.99 847.766 2508.79 847.766 2497.5C847.766 2489.47 856.357 2494.42 863.881 2506.8C873.147 2522.03 871.482 2524.47 849.785 2527.53C815.558 2532.36 803.183 2535.18 801.042 2538.65C797.693 2544.05 790.357 2539.58 774.764 2547.72C747.973 2561.7 649.062 2591.04 643.706 2586.59C632.122 2576.98 621.217 2588.91 624.113 2608.03C627.058 2627.43 633.193 2635.77 653.626 2648.18C661.547 2652.99 668.938 2658.12 670.049 2659.58C677.525 2669.43 756.209 2670.38 799.298 2661.16C833.92 2653.74 845.513 2652.27 857.864 2650.41L841.03 2661.96C813.823 2680.62 792.275 2711.04 785.3 2740.64C773.308 2791.49 778.919 2864.3 793.059 2841.42C794.331 2839.36 802.163 2835.45 810.463 2832.73C826.042 2827.62 882.034 2795.22 891.473 2785.84C899.515 2777.87 904.313 2782.75 904.313 2774.82C904.313 2767.49 906.426 2772.2 922.63 2750.25C940.601 2725.9 942.282 2733.03 950.717 2714.69C957.765 2699.37 964.361 2688.98 973.986 2678.01C977.871 2673.59 981.054 2668.71 981.054 2667.18C981.054 2661.33 993.741 2634.36 995.611 2636.23C998.439 2639.06 988.793 2676.5 983.506 2683.21C969.749 2700.67 980.477 2813.6 999.67 2853.38C1012.23 2879.42 1008.49 2881.52 1013.1 2881.52C1015.17 2881.52 1017.44 2886.33 1018.15 2892.22C1022.67 2930.12 1054.06 2885.56 1062.23 2885.56C1066.79 2885.56 1087.75 2846.66 1091.58 2839.88C1095.11 2850.06 1100.44 2867.88 1110.16 2880.23C1114.68 2885.98 1118.38 2892.33 1118.38 2894.35C1118.38 2905.29 1202.1 2986.53 1213.37 2986.53C1215.18 2986.53 1219.54 2989.3 1223.06 2992.69C1238.11 3007.18 1288.74 3035 1300.06 3035C1314.24 3035 1323.91 3048.17 1326.23 3070.64C1331.21 3118.93 1333.83 3127.9 1326.31 3127.9C1323.02 3127.9 1320.33 3126.42 1320.33 3124.6C1320.33 3118.3 1288.86 3103.68 1275.35 3103.68C1230.94 3103.73 1215.88 3147.95 1241.7 3202.53C1247.19 3214.11 1251.69 3225.24 1251.69 3227.25C1251.73 3231.63 1289.64 3260.26 1327.1 3264.14C1338.93 3265.36 1348.61 3268.25 1348.61 3270.56C1348.61 3274.62 1321.82 3342.73 1309.96 3368.83C1301.33 3387.82 1306.38 3391.66 1298.56 3398.15C1292.15 3403.47 1287.63 3422.22 1284.61 3456.07C1284.19 3460.75 1280.57 3463.13 1273.88 3463.13C1258.98 3463.13 1267.1 3471.21 1258.24 3471.21C1236.05 3471.21 1165.4 3520.74 1155.04 3527.74L1150.45 3510.58C1143.53 3484.73 1143.63 3498.13 1131.13 3461.11C1113.57 3409.1 1065.41 3325.2 1096.5 3354.39C1128.89 3384.79 1213.16 3353.17 1235.73 3302.16C1240.22 3292 1246.81 3280.48 1250.36 3276.55C1259.43 3266.53 1251.82 3258.58 1230.31 3255.63C1178.17 3248.48 1160.1 3248.17 1148.41 3254.23C1123.39 3267.19 1090.11 3306.12 1090.11 3322.42C1090.11 3337.01 1096.93 3337.2 1103.15 3322.78C1146.03 3223.27 1222.89 3272.55 1232.16 3266.82C1238.9 3262.65 1235.21 3276.64 1223.43 3299.92C1201.38 3343.47 1150.19 3365.05 1111.18 3347.22C1080.29 3333.11 1079.97 3343.78 1069.44 3311.67C1059.63 3281.78 1035.71 3230.68 1029.83 3227.04C1027.44 3225.57 1025.48 3220.81 1025.48 3216.48C1025.48 3205.3 1015.29 3192.16 997.292 3133.95C963.15 3023.51 921.041 2997.5 912.101 2975.18C906.588 2961.4 901.495 2974.22 897.977 2965.05C889.964 2944.16 794.522 2919.75 763.696 2930.7C758.554 2932.53 747.301 2934.02 738.69 2934.02C713.519 2934.02 704.871 3008.07 726.662 3037.02C728.334 3039.24 730.976 3047 732.527 3054.26C739.455 3086.67 851.879 3194.24 909.949 3199.65C918.758 3200.47 931.093 3203.8 937.354 3207.03C943.618 3210.27 948.744 3211.85 948.744 3210.52C948.744 3209.2 954.382 3212.15 961.277 3217.05C970.74 3223.79 974.577 3224.74 976.928 3220.94C985.156 3207.62 1021.45 3256.33 1021.45 3280.69C1021.45 3284.62 1022.96 3289.57 1024.8 3291.68C1029.45 3296.99 1036.37 3325.95 1040.72 3337.31C1042.25 3341.32 1036.67 3338.71 1026.54 3330.68C975.114 3289.96 911.572 3296.31 875.743 3345.78C860.839 3366.35 860.822 3366.26 879.6 3365.53C890.913 3365.08 901.136 3368.52 916.355 3377.89C1029.89 3447.74 1045.22 3304.99 1071.42 3404.57C1083.84 3451.78 1097.73 3501.69 1100.4 3508.62C1104.33 3518.88 1087.84 3516.19 1043.66 3499.34C1027.46 3493.16 1009.43 3487.87 999.232 3479.19C991.57 3472.66 946.236 3446.23 924.51 3435.62C860.209 3404.2 763.345 3469.51 738.857 3560.8C736.066 3571.19 730.258 3583.48 725.948 3588.11C706.909 3608.54 739.018 3600.76 767.425 3613.99C854.805 3654.67 966.064 3624.14 1019.08 3544.92C1040.12 3513.48 1042.32 3512.48 1069.39 3521.91C1107.28 3535.1 1122.42 3552.22 1122.42 3581.85C1122.42 3595.81 1143.71 3651.98 1140.56 3657.06C1136.27 3664.03 1162.39 3738.28 1153.92 3751.99C1150.2 3758 1159.58 3789.93 1158.03 3809.26C1156.32 3830.64 1165.25 3820 1152.82 3846.04C1139.47 3873.97 1140.85 3892.45 1132.41 3899.44C1119.88 3909.84 1131.06 3955.11 1156.1 3995.27C1162.71 4005.87 1165.83 3999.28 1168.55 3969.02C1171.22 3939.21 1178.6 3919.54 1187.11 3919.54C1195.68 3919.54 1211.31 3901.78 1209.04 3894.62C1205.27 3882.75 1217.83 3841.8 1233.35 3815.32C1250.37 3786.28 1265.79 3742.37 1273.95 3699.73C1282.64 3654.37 1287.29 3657.46 1295.87 3621.66C1299.44 3606.76 1302.93 3600.44 1307.61 3600.4C1313.23 3600.34 1313.35 3599.75 1308.4 3596.62C1299.41 3590.92 1308.3 3590.72 1316.49 3548.96C1322.18 3519.96 1322.89 3519.53 1338.51 3535.83C1344.9 3542.5 1351.91 3547.95 1354.09 3547.95C1356.28 3547.95 1360.94 3550.31 1364.45 3553.2C1386.02 3570.97 1515.97 3587.93 1529.2 3574.7C1532.99 3570.91 1545.23 3573.67 1547.19 3568.92C1549.13 3564.21 1586.69 3540.73 1587.41 3536.65C1607.18 3424.58 1450.75 3338.56 1367.08 3415.5C1354.13 3427.4 1362.68 3389.46 1385.01 3335.9C1390.35 3323.1 1400.98 3281.27 1405.99 3274.7C1427.18 3246.86 1407.42 3125.39 1523.24 3237.59C1558.77 3272.01 1546.26 3259.15 1572.05 3276.71C1602.92 3297.72 1650.89 3308.59 1658.4 3296.28C1667.56 3281.3 1733.71 3283.18 1689.83 3197.29C1682.94 3183.8 1648.46 3148.09 1642.32 3148.09C1628.79 3148.09 1593.44 3105.43 1491.26 3153.02C1454.05 3170.35 1441.51 3173.36 1441.51 3164.95C1441.51 3158.82 1476.46 3082.29 1486.1 3067.31C1492.4 3057.5 1495.92 3044.87 1501.84 3041.21C1508.03 3037.39 1502.76 3031.09 1513.64 3010.7C1525.88 2987.78 1522.76 2982.19 1537.9 2962.29C1543.81 2954.52 1554.08 2940.07 1560.71 2930.18C1585.7 2892.94 1662.91 2822.88 1670.56 2830.53C1671.72 2831.69 1673.45 2843.18 1674.41 2856.07C1677.85 2902.71 1697.21 2945.25 1731.77 2982.15C1753.72 3005.59 1747.26 3006.72 1752.99 3006.72C1755.47 3006.72 1763.88 3012.33 1771.69 3019.18C1789.06 3034.43 1829.65 3053.73 1851.47 3057.1C1897.86 3064.28 1899.66 3064.22 1911.57 3054.85C1976.45 3003.82 1959.04 2899.12 1877.71 2851.22C1866.4 2844.56 1853.14 2835.73 1848.24 2831.61C1828.78 2815.2 1762.12 2800.33 1728.28 2804.84C1716.06 2806.46 1704.82 2807.08 1703.3 2806.21C1700.06 2804.35 1672.89 2814.15 1648.49 2825.99C1614.61 2842.43 1536.19 2926.94 1515.98 2968.8C1505.92 2989.65 1492.07 3012.7 1485.94 3018.84C1480.72 3024.06 1439.43 3116.78 1438.89 3117.79C1432.29 3130.03 1416.79 3189.44 1402.79 3219.53C1386.52 3254.49 1401.39 3232.85 1380.64 3283.4C1375.68 3295.47 1368.77 3338.1 1364.62 3343.98C1359.48 3351.29 1354.31 3403.71 1341.56 3411.83C1330.94 3418.59 1347.61 3459.09 1307.32 3459.09C1296.18 3459.09 1292.4 3453.78 1300.14 3449C1302.36 3447.62 1304.18 3440.3 1304.18 3432.71C1304.18 3420.96 1327.66 3356.01 1346.49 3315.71C1349.6 3309.04 1366.04 3260.88 1383.02 3208.67C1431.05 3061 1413.03 3130.59 1429.39 3087.5C1437.48 3066.21 1447.03 3062.53 1444.26 3052.45C1441.67 3042.97 1455.08 3022.99 1473.3 2991.73C1503.67 2939.57 1516.84 2936.55 1543.62 2897.65C1567.94 2862.31 1632.62 2788.62 1639.34 2788.58C1645.09 2788.56 1655.47 2772 1655.66 2762.57C1655.76 2757.4 1700.64 2724.35 1720.2 2715.04C1727.97 2711.34 1753.42 2699.25 1776.74 2688.18C1800.07 2677.1 1819.76 2669.72 1820.5 2671.78C1821.24 2673.84 1828.88 2675.52 1837.47 2675.52C1868.3 2675.52 1835.57 2685.94 1921.54 2714.08C2008.71 2742.61 2113.71 2701.57 2188.72 2609.64C2198.72 2597.39 2210.26 2586.42 2214.37 2585.27C2225.73 2582.08 2219.09 2575.91 2201.22 2573.06C2170.03 2568.08 2126.07 2523.89 2086.67 2512.02C2006.55 2487.91 1904.44 2526.59 1868.17 2594.8C1842.15 2643.73 1837.12 2649.6 1811.08 2661.49C1767.39 2681.43 1745.54 2691.15 1724.24 2700.15C1686.32 2716.15 1659.6 2743.94 1665.37 2729.99C1671.4 2715.41 1673.09 2641.41 1667.77 2625.28C1663.23 2611.53 1663.54 2609.72 1671.31 2604.28C1683.78 2595.54 1677.56 2586.66 1683.85 2586.66C1686.07 2586.66 1687.89 2590.29 1687.89 2594.71C1687.89 2622.09 1735.07 2665.85 1756.77 2658.61C1762.5 2656.7 1735.03 2639.17 1726.31 2639.17C1712.45 2639.17 1689.94 2592.95 1700.53 2586.24C1704.56 2583.69 1704.69 2582.73 1701 2582.69C1669.83 2582.31 1726.98 2538.47 1758.94 2538.25C1784.32 2538.08 1798.36 2588.1 1786.69 2637.15C1783.94 2648.71 1784.14 2648.95 1791.07 2642.36C1807.72 2626.53 1805.08 2567.83 1786.63 2543.63C1771.49 2523.79 1725.4 2526.9 1698.98 2549.54C1695.09 2552.88 1691.75 2554.87 1691.56 2553.97C1691.37 2553.07 1690.87 2537.56 1690.44 2519.51C1689.39 2473.95 1682.95 2485.58 1677.44 2463.59C1666.94 2421.76 1605.92 2384.79 1545.28 2383.52C1507.77 2382.74 1505.92 2382.29 1508.43 2374.62C1512.52 2362.08 1513.88 2336.25 1518.14 2336.25C1522.63 2336.25 1524.4 2363.58 1530.13 2372.48C1538.12 2384.9 1539.11 2371.75 1532.78 2337.28C1527.56 2308.92 1527.1 2296.99 1530.53 2279.51C1532.91 2267.4 1535.71 2249.47 1536.74 2239.69C1540.03 2208.72 1571.68 2124.43 1575.89 2135.42C1582.38 2152.32 1680.08 2161.72 1693.62 2146.75C1715.84 2122.2 1629.6 2086.08 1595.09 2105.47C1575.61 2116.41 1575.74 2117.05 1591.04 2085.1C1622.23 2019.95 1700.63 1936.47 1689.06 1980.74C1681.14 2011.04 1730.21 2117.8 1745.18 2102.83C1747.87 2100.14 1753.34 2097.94 1757.34 2097.94C1766.26 2097.94 1759.41 2097.7 1781.34 2073.71C1805.04 2047.79 1820.18 2012.7 1827.95 1965.66C1830.73 1948.88 1835.41 1948 1838.7 1965.66C1851.92 2036.72 1865.24 2040.9 1874.17 2058.22C1880.24 2069.98 1931.06 2118.14 1937.41 2118.14C1939.57 2118.14 1943.6 2120.86 1946.37 2124.2C1952.44 2131.52 1963.92 2132.29 1961.39 2125.21C1960.4 2122.43 1962.52 2114.71 1966.1 2108.04C1991.42 2060.87 1961.29 1931.03 1911.21 1871.51C1897.05 1854.68 1901.82 1852.52 1917.41 1868.68C1936 1887.97 1967.18 1923.35 1973.34 1932.15C1986.94 1951.56 2085.66 2017.16 2101.28 2017.16C2105.53 2017.16 2106.83 2019.37 2105.16 2023.73C2102.18 2031.48 2153.45 2029.26 2168.94 2020.97C2173.6 2018.48 2180.87 2017.34 2185.08 2018.44C2234.24 2031.29 2125.92 1884.7 2069.82 1862.46C2065.33 1860.68 2058.88 1856.84 2055.5 1853.94C2044.92 1844.84 2004.87 1835.96 1970.6 1820.44C1967.27 1818.93 1962.73 1817.41 1960.5 1817.07C1955.91 1816.36 1945.75 1812.62 1928.19 1805.16C1894.71 1790.93 1872.75 1792.36 1867.49 1757.29C1865.26 1742.44 1863.04 1738.47 1856.95 1738.47C1852.5 1738.47 1847.66 1734.33 1845.51 1728.7C1837.12 1706.62 1823.63 1721.21 1832.34 1697.11C1844.4 1663.76 1835.01 1610.43 1813.75 1591.52C1805.08 1583.81 1796.99 1592.91 1796.89 1610.49C1796.88 1613.13 1794.44 1619.93 1791.47 1625.62C1782.4 1643.02 1779.43 1688.74 1786.7 1699.12C1794.52 1710.27 1794.53 1714.24 1786.74 1714.24C1783.35 1714.24 1778.67 1719.23 1776.33 1725.34L1772.08 1736.45C1743.34 1669.15 1642 1588.57 1602.2 1573.27C1590.78 1568.88 1558.74 1554.01 1547.18 1548.7L1557.68 1521.4C1573.66 1479.84 1571.45 1500.9 1588.93 1458.76C1595.15 1443.75 1602.7 1429.44 1605.69 1426.96C1608.69 1424.47 1611.14 1420.78 1611.14 1418.76C1611.14 1413.15 1657.26 1341.1 1660.84 1326.49C1667.17 1300.69 1698.81 1266.16 1711.68 1271.01C1747.07 1284.38 1788.08 1215.84 1753.99 1200.3C1721.25 1185.38 1788.86 1098.42 1788.86 1090.79C1788.86 1083.3 1861.54 993.366 1861.54 984.046C1861.56 977.345 1898.97 914.575 1902.96 914.535C1904.62 914.519 1905.99 918.255 1905.99 922.827C1905.99 933.529 1914.07 929.485 1914.07 916.914C1914.07 908.218 1924.63 882.582 1930.04 878.16C1931.4 877.049 1938.54 866.596 1945.92 854.936C1979.41 802.016 1962.06 871.059 2019.22 841.264C2033.54 833.8 2037.07 833.347 2045.56 837.891C2057.03 844.034 2073.57 838.457 2082.75 825.35C2087.18 819.037 2091.2 818.031 2103.89 820.063C2135.66 825.14 2159.07 799.319 2148.7 770.649C2145.25 761.077 2145.08 754.986 2148.11 749.311C2158.82 729.31 2151.13 711.93 2125.16 697.414C2110.49 689.219 2071.59 697.325 2071.59 708.574C2071.59 713.723 2071.96 713.679 2089.43 706.381C2107.08 699.006 2137.35 709.184 2142.08 724.088C2146.5 738.006 2133.63 752.951 2117.23 752.951C2099.95 752.951 2100.87 762.39 2118.35 764.413C2145.22 767.527 2150.07 794.856 2126.05 807.792C2109.42 816.746 2097.84 812.425 2097.84 797.27C2097.84 777.087 2085.52 783.444 2082.37 805.251C2080.37 819.089 2067.76 820.543 2062.61 827.672C2058.06 833.981 2045.33 824.029 2045.33 814.157C2045.33 802.569 2039.96 804.678 2023.74 822.623C2005.49 842.826 1974.65 842.232 1974.65 821.674C1974.65 814.165 1997.16 777.184 2001.73 777.184C2017.1 777.184 2044.68 802.511 2064.3 758.164L2072.69 739.185L2060.1 728.676C2047.23 717.924 2050.19 700.443 2064.89 700.443C2071.29 700.443 2071.87 690.883 2114.83 643.505C2166.44 586.58 2184.68 556.463 2184.68 579.273C2184.68 589.372 2189.89 587.268 2208.64 589.689C2219.57 591.103 2224.84 589.245 2233.52 580.933C2243.63 571.248 2246 570.698 2262.46 574.208C2304.38 583.148 2285.07 553.331 2309.55 548.443C2330.22 544.312 2337.85 453.624 2318.72 439.536ZM1373.42 912.407C1440.29 907.411 1511.88 954.78 1548.59 1028.31C1558.93 1049.03 1569.05 1067.71 1571.09 1069.82C1577.55 1076.52 1575.15 1078.71 1561.66 1078.44C1542.09 1078.05 1516.46 1085.07 1513 1081.61C1508.57 1077.17 1465.38 1080.67 1454.12 1070.47C1450.16 1066.89 1445.25 1063.91 1443.2 1063.85C1439.2 1063.73 1409.19 1036.95 1409.19 1033.5C1409.19 1033.5 1382.14 974.944 1379.02 958.946C1374.46 935.495 1372.51 930.681 1367.52 930.548C1341.95 929.856 1346.99 914.382 1373.42 912.407ZM1462.56 717.577C1540.67 679.421 1603.91 670.753 1751.5 677.979C1790.87 679.906 1813.09 679.574 1813.09 677.058C1813.09 669.009 1762.15 666.04 1638.48 666.868C1555.2 667.429 1553.5 661.961 1625.28 624.47C1708.18 581.168 1759.6 576.681 1802.03 609.042C1870.09 660.955 1835.25 716.718 1718.17 743.258C1687.78 750.148 1609.55 749.765 1542.48 742.397C1514.71 739.348 1478.75 736.775 1462.56 736.682C1428.28 736.488 1428.28 734.315 1462.56 717.577ZM1328.96 629.235C1334.27 608.168 1355.56 583.315 1368.29 583.315C1401.63 583.315 1422.29 691.133 1397.13 733.781C1371.73 776.821 1314.07 688.379 1328.96 629.235ZM1389.71 789.443C1468.93 750.907 1609.76 810.587 1553.79 858.978C1545.92 865.792 1520.22 868.147 1506.13 863.348C1486.61 856.704 1469.62 847.127 1453.22 833.528C1428.63 813.139 1410.65 803.353 1391.04 799.673L1374.89 796.648L1389.71 789.443ZM765.2 474.642C763.956 472.631 751.581 465.599 737.699 459.023C705.912 443.961 648.376 400.958 604.719 359.639C516.87 276.492 515.513 275.009 503.202 248.703C492.18 225.139 482.712 191.531 487.098 191.531C490.967 191.531 527.173 217.526 534.742 225.737C539.185 230.56 545.547 235.552 548.879 236.84C573.339 246.283 661.382 336.935 646.09 336.935C641.498 336.935 637.737 338.632 637.737 340.704C637.737 345.842 651.341 349.779 658.975 346.851C667.731 343.49 672.707 353.305 664.557 357.865C653.785 363.891 656.975 369.356 670.619 368.253C684.925 367.098 690.972 375.139 678.293 378.456C664.847 381.97 668.894 388.86 685.196 390.21C697.236 391.207 700.601 393.28 701.602 400.328C702.382 405.801 704.938 408.398 708.283 407.113C716.056 404.135 730.623 433.07 750.773 452.047C757.849 458.711 765.366 467.347 767.474 471.232C771.36 478.395 769.364 481.383 765.2 474.642ZM855.388 439.592C887.846 423.541 888.649 423.981 887.43 457.041C886.336 486.655 874.744 502.803 842.88 519.104C822.879 529.339 822.551 529.25 810.115 510.254C791.806 482.292 802.372 465.805 855.388 439.592ZM816.237 590.308C813.333 591.358 807.881 595.405 804.12 599.299C785.947 618.095 710.462 631.491 680.845 607.074C635.245 569.487 711.837 538.592 786.797 564.337C812.384 573.122 827.312 586.293 816.237 590.308ZM859.463 609.307C857.585 611.177 822.122 559.425 820.208 552.013C819.489 549.238 817.55 546.964 815.902 546.964C811.83 546.964 793.91 514.656 796.527 512.039C798.506 510.06 839.688 568.335 839.688 573.125C839.688 574.381 844.499 582.681 850.375 591.563C856.257 600.45 860.344 608.434 859.463 609.307ZM770.27 805.523C767.354 805.555 757.697 808.031 748.811 811.02C725.191 818.977 659.626 817.248 630.815 807.91C604.323 799.323 649.14 738.592 693.521 722.933C727.856 710.82 826.198 720.897 850.663 739.036C864.185 749.061 796.265 805.236 770.27 805.523ZM643.817 910.44C639.96 916.684 625.605 915.283 623.476 908.457C618.975 894.06 615.224 890.281 629.514 890.281C641.373 890.281 649.338 901.51 643.817 910.44ZM592.953 953.314C587.23 960.209 584.228 960.366 577.96 954.098C571.377 947.514 571.861 940.095 579.055 937.336C588.086 933.87 598.834 946.226 592.953 953.314ZM987.269 1934.86C968.746 1954.19 939.419 1960.49 933.978 1946.31C926.352 1926.44 950.99 1882.17 972.312 1877.43C978.229 1876.11 990.835 1872.22 1000.33 1868.78C1028.23 1858.66 1019.9 1900.8 987.269 1934.86ZM1008.64 1827.81C913.698 1761.99 780.423 1727.34 747.776 1759.99C738.531 1769.24 745.005 1773.65 754.804 1764.79C781.934 1740.24 909.838 1773.25 986.074 1824.49C1025.43 1850.94 1013.72 1863.26 943.191 1869.65C873.268 1875.97 861.397 1875.13 807.375 1860.04C742.213 1841.83 654.268 1764.56 689.823 1756.74C696.257 1755.33 704.719 1750.64 708.625 1746.33C717.531 1736.49 713.153 1742.89 747.787 1726.58C795.278 1704.21 875.295 1705.4 922.487 1729.17C963.027 1749.59 995.937 1772.53 999.136 1782.62C1002.2 1792.27 1025.48 1813.58 1025.48 1820.29C1025.48 1822.81 1030.35 1829.95 1036.3 1836.16C1055.04 1855.72 1044.18 1852.44 1008.64 1827.81ZM1069.69 1852.26C1048.95 1839.06 1039.93 1829.33 1043.33 1823.81C1044.65 1821.69 1043.61 1819.24 1041.03 1818.38C1029.24 1814.45 1043.35 1744.08 1060.93 1719.14C1080.22 1691.78 1084.85 1690.77 1092.82 1712.22C1121.48 1789.44 1124.89 1820.71 1107.54 1847.21C1094.71 1866.79 1092.91 1867.03 1069.69 1852.26ZM1221 2041.23C1175.67 2020.9 1090.11 2055.43 1090.11 2094.06C1090.11 2110.62 1017.81 2176.25 988.846 2185.99C915.812 2210.55 888.444 2129.84 949.356 2069.54C966.373 2052.69 1025.85 2021.21 1040.66 2021.21C1045.35 2021.21 1054.28 2019.27 1060.49 2016.91C1076.95 2010.65 1133.45 2018.5 1124.44 2020.34C1112.04 2022.87 1111.9 2029.29 1102.22 2029.29C1086.5 2029.29 978.594 2125.77 987.892 2131.52C989.895 2132.75 1009.62 2116.62 1031.73 2095.67C1078.01 2051.81 1092.03 2043.2 1136.56 2031.3C1157.28 2025.75 1168.47 2020.83 1167.74 2017.55C1165.97 2009.47 1191.14 2016.06 1215.32 2029.99C1218.65 2031.91 1227.28 2036.2 1234.5 2039.52C1241.72 2042.84 1247.63 2047.27 1247.63 2049.37C1247.63 2051.46 1235.64 2047.8 1221 2041.23ZM1180.22 2442.52C1187.88 2434.86 1201.48 2444.42 1197.95 2454.98C1195.75 2461.6 1189.15 2461.87 1180.82 2455.7C1173.18 2450.04 1173.16 2449.58 1180.22 2442.52ZM1175.85 2485.69C1178.11 2476.81 1181.55 2469.54 1183.5 2469.54C1188.16 2469.54 1188 2478.62 1183.11 2491.49C1176.78 2508.13 1171.27 2503.73 1175.85 2485.69ZM1009.33 3217.43C1009.33 3210.66 995.234 3216.32 976.102 3204.65C968.828 3200.22 958.043 3196.58 952.13 3196.58C934.088 3196.55 894.453 3182.35 874.912 3168.9C864.734 3161.9 855.424 3156.17 854.224 3156.17C842.527 3156.17 766.985 3089.83 766.985 3079.56C766.985 3075.94 765.466 3071.24 763.613 3069.13C753.015 3057.07 731.119 2976.59 733.684 2959.12C737.537 2932.86 845.12 2935.34 872 2962.3C873.111 2963.42 878.931 2966.86 884.933 2969.95C908.093 2981.88 977.015 3083.94 977.015 3106.31C977.015 3113 988.255 3148.09 993.296 3157.13C999.156 3167.63 995.504 3176.95 1000.76 3182.62C1002.71 3184.74 1006.53 3193.4 1009.24 3201.88C1016.01 3223.07 1009.33 3222.48 1009.33 3217.43ZM1006.56 3377.72C992.314 3385.21 950.038 3383.63 941.548 3375.29C932.295 3366.2 906.336 3354.08 896.097 3354.08C878.649 3354.08 899.805 3331.01 926.527 3320.91C951.924 3311.3 1021.4 3330.79 1034.17 3351.1C1036.87 3355.39 1022.28 3369.45 1006.56 3377.72ZM994.072 3549.69C990.243 3550.9 984.625 3557.51 981.588 3564.36C973.807 3581.96 960.976 3580.61 946.723 3592.69C923.641 3612.23 820.817 3622.32 776.277 3599.12C769.164 3595.41 759.479 3592.38 754.749 3592.38C733.088 3592.38 764.592 3517.35 801.783 3480.37C832.896 3449.43 908.7 3435.46 931.844 3456.41C935.935 3460.11 940.956 3463.18 943.004 3463.22C950.807 3463.4 1001.34 3498.95 997.325 3501.44C995.002 3502.88 989.061 3502.77 984.121 3501.2C941.506 3487.67 789.113 3516.09 801.012 3535.34C803.5 3539.37 826.922 3536.12 829.879 3531.33C833.137 3526.06 851.807 3529.48 851.807 3524.01C851.807 3520.2 887.484 3511.6 902.295 3511.83C903.295 3511.85 1020.72 3509.21 1018.17 3519.91C1015.95 3529.24 1001.24 3547.41 994.072 3549.69ZM1465.92 3176.36C1468.51 3176.36 1479.97 3171.62 1491.4 3165.81C1524.05 3149.22 1554.14 3140.01 1575.68 3140.01C1669.81 3140.01 1737.47 3263.83 1652.65 3280.87C1615.62 3288.31 1634.96 3285.25 1597 3273.21C1548.57 3257.86 1504.86 3192.39 1478.45 3186.6C1465.99 3183.86 1456.81 3176.36 1465.92 3176.36ZM1824.8 2970.51C1822.92 2967.1 1816.12 2952.5 1809.69 2938.06C1786.32 2885.61 1736.36 2833.21 1709.49 2832.99C1695.33 2832.87 1690.97 2826.85 1701.11 2821.42C1723.28 2809.55 1805.94 2818.75 1833.64 2836.17C1841.22 2840.93 1852.87 2847.85 1859.54 2851.53C1892.9 2869.98 1936.88 2919.54 1933.01 2934.33C1931.95 2938.4 1933.55 2944.99 1936.58 2948.98C1948.64 2964.89 1935.33 3020.69 1914.76 3040.4C1896.49 3057.9 1839.67 3052.86 1815.13 3031.56C1810.67 3027.7 1802.08 3022.06 1796.03 3019.04C1756.22 2999.18 1692.45 2903.09 1689.79 2858.98L1688.47 2837.08C1703.3 2840.57 1720.12 2842.29 1751.43 2874.19C1780.07 2903.38 1784.33 2909.74 1806.98 2957.03C1819.01 2982.14 1829.99 3002.69 1831.39 3002.69C1834.43 3002.69 1829.64 2979.27 1824.8 2970.51ZM1263.64 3551.99C1250.95 3602.53 1236.36 3647.96 1227.02 3666.04C1221.1 3677.5 1227.02 3680.51 1215.77 3702.56C1209.19 3715.47 1206.47 3724.73 1200.83 3753.31C1198.55 3764.91 1195.12 3762.69 1195.05 3749.57C1194.98 3735.14 1186.59 3681.52 1179 3646.91C1173.37 3621.25 1173.34 3624.44 1179.46 3585.22C1186.84 3537.93 1203.22 3520.02 1256.22 3501.33C1283.04 3491.86 1275.83 3503.4 1263.64 3551.99ZM1179.48 3762.02C1181.42 3762.02 1182.98 3772.48 1182.94 3785.25C1182.88 3810.2 1177.67 3825.45 1174 3811.43C1171.07 3800.2 1175.3 3762.02 1179.48 3762.02ZM1170.28 3693.36C1175.86 3693.36 1178.38 3735.29 1181.48 3746.54C1183.54 3754.02 1176.75 3766.59 1173.07 3736.78C1169.5 3707.79 1165.17 3693.36 1170.28 3693.36ZM1193.1 3525.57C1180.88 3537.69 1170.89 3549.5 1170.89 3551.82C1170.89 3554.14 1169.07 3556.03 1166.85 3556.03C1136.62 3556.03 1256.33 3462.83 1193.1 3525.57ZM1158.82 3658.02C1148.64 3613.19 1130.2 3545.77 1123.75 3529.78C1114.88 3507.79 1118.84 3512.92 1109.26 3479.29C1095.92 3432.5 1096.66 3406.74 1110.29 3442.94C1113.22 3450.71 1119.12 3465.04 1123.4 3474.76C1135.03 3501.22 1133.61 3519.33 1140.99 3526.71C1148.27 3533.99 1149.05 3573.09 1154.97 3587.52C1160.59 3601.24 1156.92 3615.3 1162.43 3636.81C1164.43 3644.59 1167.03 3657.77 1168.22 3666.09C1171.6 3689.79 1164.69 3683.84 1158.82 3658.02ZM1370.48 3432.1C1388.65 3373.52 1558.03 3411.42 1576.82 3478.28C1580.04 3489.74 1578.17 3489.67 1563.99 3477.82C1548.74 3465.08 1542.33 3466.71 1516.22 3454.58C1472.75 3434.39 1416.86 3433 1377.7 3451.12L1352.27 3462.89C1357.7 3455.17 1367.26 3442.47 1370.48 3432.1ZM1344.66 3483.38C1350.72 3486.63 1353.2 3485.79 1356.63 3479.38C1379.58 3436.5 1492.4 3442.57 1560.36 3490.35C1574.86 3500.54 1587.44 3523.72 1578.48 3523.72C1576.45 3523.72 1574.79 3526.48 1574.79 3529.84C1574.79 3536.11 1563.9 3541.72 1528.34 3553.75C1508.41 3560.5 1447.1 3565.56 1431.41 3561.75C1362.03 3544.93 1331.27 3524.2 1330.2 3493.54C1329.68 3478.51 1332.23 3476.73 1344.66 3483.38ZM1331.53 3468.95C1332.65 3470.07 1328.66 3472.86 1322.65 3475.14C1309.3 3480.22 1296.1 3480.53 1296.1 3475.77C1296.1 3471.88 1328.27 3465.69 1331.53 3468.95ZM1303.17 3491.65C1320.36 3486.9 1323.06 3488.1 1314.47 3496.7C1305.31 3505.85 1310.25 3515.91 1304.61 3521.9C1301.55 3525.15 1290.81 3566.63 1285.82 3594.4C1283.63 3606.59 1273.4 3644.36 1266.12 3667.1C1254.29 3704.06 1245.59 3771.19 1223.67 3802.05C1208.11 3823.95 1194.38 3865.14 1194.96 3888.16C1195.18 3896.78 1191.69 3901.42 1178.87 3909.51C1163.28 3919.35 1152.25 3936.5 1156.79 3943.84C1157.95 3945.72 1157.15 3948.35 1155 3949.67C1141.78 3957.85 1138.11 3917.02 1150.51 3899.61C1155.51 3892.58 1158.76 3883.59 1157.72 3879.63C1154.51 3867.35 1187.37 3818.57 1198.85 3818.57C1201.04 3818.57 1204.03 3812.21 1205.49 3804.43C1209.54 3782.79 1214.37 3796.01 1212.1 3776.64C1209.57 3754.9 1245.87 3662.12 1251.67 3640.85C1259.15 3613.41 1262.04 3611.72 1265.39 3596.42C1282.95 3516.21 1281.01 3547.22 1285.71 3514.76C1288.27 3497.09 1289.55 3495.41 1303.17 3491.65ZM1871.16 2618.4C1884.55 2540.02 2051.37 2482.83 2114 2535.14C2127.66 2546.55 2181.01 2578.59 2186.35 2578.59C2201.7 2578.59 2190.85 2586.19 2171.55 2588.94C2139.31 2593.55 2131.01 2593.72 2120.57 2589.95C2074 2573.15 1951.45 2587.41 1915.71 2613.79C1896.33 2628.11 1902.73 2617.64 1881.75 2633.12C1867.99 2643.27 1853.48 2646.5 1853.48 2639.41C1853.48 2633.79 1869.8 2626.33 1871.16 2618.4ZM1915.65 2627.06C1927.28 2627.06 1941.89 2577.26 2122.19 2597.85C2137.8 2599.63 2156.88 2599.8 2164.57 2598.23C2172.27 2596.66 2179.25 2596.05 2180.09 2596.89C2185.74 2602.54 2135.11 2651.14 2107.71 2666.36C2076.85 2683.51 2052.7 2695.24 2039.6 2699.43C1986.8 2716.35 1899.63 2703.77 1864.18 2674.11L1852.68 2664.48C1863.52 2657.73 1911.98 2627.06 1915.65 2627.06ZM1624.2 2109.09C1653.91 2109.61 1695.88 2130.72 1687.44 2140.89C1678.85 2151.24 1660.6 2141.41 1595.99 2137.97C1571.44 2136.66 1598.81 2108.64 1624.2 2109.09ZM2180.64 452.315C2180.64 447.981 2184.45 445.99 2192.76 445.99C2206.33 445.99 2207.59 443.054 2198.95 431.62C2184.25 412.196 2203.99 405.782 2219.97 424.785L2229.31 435.892L2226.8 417.208C2221.63 378.559 2249.18 377.803 2263.84 416.19C2272.78 439.584 2272.26 429.929 2235.33 464.117C2214.24 483.645 2204.88 488.675 2204.88 480.467C2204.88 476.993 2201.38 474.263 2196.94 474.263C2188.73 474.262 2180.64 463.369 2180.64 452.315ZM2061.99 598.264C2078.39 597.089 2079.29 609.234 2063.89 623.952C2049.58 637.624 2050.46 637.314 2044.12 630.976C2031.55 618.403 2041.76 599.711 2061.99 598.264ZM1725.24 1053.03C1711.59 1050.39 1720.47 1045.83 1708.08 1042.6C1696.4 1039.54 1702.25 1027.61 1695.96 1027.61C1690.53 1027.61 1690.82 1006.26 1695.58 1009.2C1697.6 1010.45 1698.33 1007.98 1697.22 1003.72C1694.76 994.309 1708.72 985.593 1720.35 989.284C1731.95 992.968 1730.07 984.966 1716.22 971.73C1709.59 965.397 1703.85 956.745 1703.46 952.512C1702.08 937.402 1704.13 930.669 1710.1 930.669C1713.43 930.669 1716.16 929.066 1716.16 927.103C1716.16 912.858 1749.49 922.894 1754.49 938.642C1757.1 946.837 1772.7 950.391 1772.7 942.786C1772.7 940.565 1770.77 938.747 1768.41 938.747C1766.01 938.747 1764.67 933.064 1765.38 925.855C1767.76 901.625 1797.74 905.179 1805.89 930.661C1813.27 953.732 1809.78 963.765 1797.11 955.913C1761.86 934.062 1726.04 982.356 1754.63 1013.2C1766.45 1025.95 1764 1036.7 1750.07 1033.2C1742.86 1031.39 1740.39 1032.43 1740.39 1037.27C1740.39 1040.84 1743.12 1043.76 1746.45 1043.76C1754.45 1043.76 1754.22 1050.32 1746.12 1053.43C1738.27 1056.44 1737.72 1055.43 1725.24 1053.03ZM1764.62 994.961C1764.62 982.023 1749.52 989.34 1763.66 974.633C1771.48 966.506 1773.95 965.86 1780.82 970.154C1786.08 973.438 1788.86 973.68 1788.86 970.861C1788.86 968.49 1790.73 967.707 1793.03 969.124C1800.99 974.044 1764.62 1031.59 1764.62 994.961ZM1461.7 1530.46C1458.37 1527.48 1450.59 1523.78 1444.43 1522.24C1422.85 1516.85 1419.7 1489.75 1440.37 1487.3C1453.41 1485.75 1457.91 1475.94 1445.59 1475.94C1435.2 1475.94 1428.78 1470.06 1419.43 1451.97C1407.93 1429.75 1431.7 1405.24 1449.3 1421.16C1455.83 1427.07 1456.99 1427.09 1461.76 1421.33C1466.2 1415.99 1465.66 1414.04 1458.3 1408.89C1446.31 1400.49 1447.38 1388.66 1461.39 1374.65C1478.75 1357.28 1507.47 1360.92 1505.93 1380.29C1504.51 1398.24 1506.21 1403.24 1513.77 1403.24C1522.3 1403.24 1528.23 1392.78 1521.91 1388.87C1515.51 1384.91 1526 1374.96 1536.58 1374.96C1557.59 1374.96 1566.15 1387.93 1552.58 1399.2C1549.24 1401.96 1546.52 1407.53 1546.52 1411.57C1546.52 1421.71 1540.25 1424.63 1530.95 1418.82C1525.42 1415.37 1519.17 1415.07 1509.58 1417.81C1481.04 1425.95 1479 1473.14 1506.95 1478.73C1520.07 1481.35 1520.5 1485.36 1510.88 1516.01C1507.1 1528.05 1502.22 1538.2 1500.02 1538.56C1489.99 1540.19 1467.17 1535.37 1461.7 1530.46ZM1528.45 1455.54C1518.64 1474.51 1498.05 1472.64 1498.05 1452.79C1498.05 1436.62 1505.3 1427.47 1518.11 1427.47C1533 1427.47 1537.14 1438.72 1528.45 1455.54ZM1463.49 1733.78C1473.12 1683.63 1487.5 1622.75 1490.47 1619.53C1492.42 1617.42 1494.01 1612.42 1494.01 1608.42C1494.01 1599.67 1503.24 1598.87 1510.02 1607.03C1518.28 1616.98 1501.72 1633.72 1485.69 1701.26C1476.61 1739.51 1456.82 1768.5 1463.49 1733.78ZM1528.53 1624.78C1568.34 1663.36 1603.25 1708 1620.73 1717.04C1641.24 1727.63 1634.59 1731.38 1656.52 1738.33C1676.54 1744.67 1675.99 1750.5 1674.99 1750.13C1671.74 1748.92 1650.44 1745.65 1633.35 1738.67C1626.69 1735.95 1617.6 1732.7 1613.16 1731.45C1600.36 1727.85 1513.14 1728.03 1503.1 1731.68C1480 1740.07 1515.56 1656.78 1528.53 1624.78ZM1508.14 1740.3C1529 1733.38 1607.17 1734.62 1617 1742.03C1624.78 1747.89 1679.71 1763.3 1688.9 1762.2C1698.76 1761.02 1728.27 1773.68 1728.27 1779.07C1728.27 1780.9 1734.63 1781.36 1742.41 1780.1C1761.04 1777.08 1761.75 1786.92 1743.42 1794.3C1723.01 1802.52 1718.67 1807.14 1708.37 1807.14C1704.03 1807.14 1699.43 1808.83 1698.15 1810.89C1694.8 1816.33 1635.37 1822.86 1635.37 1827.89C1635.37 1838.4 1551.91 1829.15 1517.61 1814.84C1446.86 1785.3 1443.85 1761.65 1508.14 1740.3ZM1592.98 1979.76C1612.28 1973.83 1615.56 1979.17 1600.08 1991.29C1593.02 1996.81 1583.19 2008.53 1578.25 2017.33C1573.31 2026.13 1568.07 2033.32 1566.62 2033.32C1558.97 2033.32 1556.07 2072.86 1540.12 2039.24C1527.23 2012.07 1478.72 1983.31 1469.26 1997.23C1458.5 2013.06 1468.33 2050.65 1487.91 2068.64C1518.35 2096.59 1524.94 2090.82 1495.9 2061.65C1478.06 2043.74 1468.6 2005.05 1482.05 2005.05C1527.27 2005.05 1555.86 2070.51 1528.78 2112.02C1525.86 2116.5 1522.54 2125.61 1521.42 2132.28C1518.53 2149.45 1490.63 2255.47 1485.81 2267.59C1478.85 2285.11 1481.91 2353.54 1472.73 2337.53C1457.72 2311.35 1453.49 1981.39 1467.54 1932.35C1471.67 1917.91 1476.54 1894.28 1478.35 1879.84C1484.31 1832.43 1486.74 1819.26 1489.55 1819.26C1489.79 1819.26 1564.63 1843.49 1579.97 1843.49H1592.85C1585.21 1848.56 1536.47 1878.59 1527.38 1910.13C1521.8 1929.49 1514.2 1962.77 1514.2 1967.82C1514.2 1977.5 1571.87 1986.24 1592.98 1979.76ZM1364.93 1990.91C1369.79 2004.24 1376.47 2021.29 1379.79 2028.79C1388.36 2048.17 1409.19 2122.39 1409.19 2133.55C1409.19 2147.97 1418.19 2154.54 1413.31 2162.45C1406.26 2173.83 1399.95 2116 1373.16 2050.08C1360.69 2019.44 1350.33 1976.51 1328.19 1935.48C1326.12 1931.65 1320.65 1917.6 1316.03 1904.26C1306.79 1877.54 1309.36 1862.41 1319.4 1884.48C1351.68 1955.43 1355.77 1965.73 1364.93 1990.91ZM1186.98 1636.49C1187.07 1643.95 1183.88 1642.64 1178.78 1633.12C1176.3 1628.48 1175.43 1623.54 1176.84 1622.13C1179.83 1619.13 1186.89 1629.13 1186.98 1636.49ZM1175.24 1594.03C1184.58 1611.59 1174.29 1611.65 1165.14 1586C1154.46 1556.08 1151.71 1558.72 1146.85 1535.32C1142.74 1515.51 1132.67 1472.8 1126.67 1449.69C1120.94 1427.6 1117.62 1338 1122.27 1330.65C1128.72 1320.44 1130.13 1327.49 1130.76 1373.1C1131.87 1454.63 1165.17 1575.08 1175.24 1594.03ZM1164.83 1276.54C1188.95 1292.56 1190.21 1294.61 1180.72 1302.48C1159.13 1320.4 1048.44 1300.31 995.534 1268.86C984.237 1262.15 963.181 1250.34 948.742 1242.61C915.138 1224.64 903.533 1217.46 897.483 1217.46C881.468 1217.38 892.587 1209.38 916.931 1203.46C958.004 1193.48 1025.64 1201.44 1055.78 1219.8C1060.22 1222.51 1070.21 1226.02 1077.99 1227.6C1095.73 1231.21 1142.62 1253.42 1142.62 1258.21C1142.61 1260.18 1152.61 1268.43 1164.83 1276.54ZM759.332 1030.03C817.361 1032.23 845.723 1038.84 892.196 1060.98C915.42 1072.04 957.167 1100.56 959.664 1107.06C960.718 1109.81 967.714 1115.67 975.21 1120.1C995.016 1131.78 994.602 1150.35 1009.64 1164.36C1014.75 1169.12 1017.22 1173.31 1015.14 1173.66C945.411 1185.61 845.066 1143.11 779.964 1074.06C734.13 1025.44 728.809 1026.65 739.174 1020.18C749.082 1014 750.035 1014.22 749.373 1022.56C748.977 1027.54 751.921 1029.74 759.332 1030.03ZM1059.39 1049.27C1064.72 1061.31 1070.32 1076.8 1071.83 1083.71C1073.35 1090.62 1076.27 1096.27 1078.31 1096.27C1084.78 1096.27 1082.33 1107.71 1074.69 1113.21C1070.66 1116.11 1066.27 1121.42 1064.94 1125C1059.55 1139.47 1022.17 1157.68 1017.13 1148.27C1011.68 1138.09 1026.34 1120.48 1050.73 1107.94C1063.55 1101.35 1071.08 1092.23 1063.72 1092.23C1056.43 1092.23 1020.67 1113.97 1014.6 1122.09L1007.31 1131.84L980.186 1103.96C942.426 1065.15 954.363 1086.36 910.146 1059.49C895.125 1050.36 877.22 1041.01 870.349 1038.71C863.483 1036.4 856.047 1033.17 853.826 1031.53C846.269 1025.96 807.062 1019.53 780.586 1019.53C724.256 1019.53 769.36 996.356 846.697 1015.73C885.71 1025.5 890.864 1026.42 930.567 1030.74C971.624 1035.2 1040 1025.05 1054.73 1012.31C1061.17 1006.74 1062.28 1007.49 1068.06 1021.34C1076.21 1040.84 1073.31 1049.82 1064.4 1032.66C1049.67 1004.27 1045.55 1017.95 1059.39 1049.27ZM1154.79 815.519C1148.64 819.327 1153.52 834.288 1144.63 851.325C1136.5 866.889 1144.17 856.151 1136.09 896.34C1119.62 978.259 1116.65 1005.94 1116.82 1076.08C1116.91 1117.92 1119.07 1148.06 1123.33 1166.95C1140.81 1244.6 1124.57 1242.65 1120.57 1224.51C1102.48 1142.55 1103.36 933.705 1122.12 855.869C1131.52 816.881 1149.97 760.496 1155.08 755.176C1163.96 745.927 1151.23 734.037 1169.87 738.709C1183.91 742.235 1185.08 743.503 1180.11 749.828C1174.17 757.374 1163.2 792.999 1157.73 800.239C1152.18 807.556 1160.94 811.728 1154.79 815.519ZM1110.3 1219.26C1110.3 1224.05 1090.81 1220.54 1063.85 1210.88C1020.71 1195.42 1009.62 1192.55 1004.71 1195.59C1002 1197.26 1000.94 1196.13 1002.05 1192.76C1004.93 1184.01 1018.8 1189.84 1027.62 1172.79C1036.17 1156.26 1048.45 1156.24 1068.46 1137.1C1101.64 1105.37 1089.58 1176.94 1104.08 1205.01C1107.5 1211.63 1110.3 1218.04 1110.3 1219.26ZM1081.78 1036.69C1078.35 1013.83 1070.25 1000.1 1078.57 994.911C1082.75 992.306 1084.63 995.537 1086.52 1008.54C1089.95 1032.16 1082.58 1042.02 1081.78 1036.69ZM788.671 1108.81C801.689 1121.98 830.398 1144.74 833.985 1144.74C835.593 1144.74 842.859 1149.28 850.137 1154.83C857.415 1160.38 868.038 1166.7 873.745 1168.87C887.304 1174.03 886.86 1178.97 872.291 1185.01C859.528 1190.3 845.116 1204.02 848.634 1207.54C849.821 1208.73 861.902 1203.19 875.477 1195.24C897.882 1182.11 901.093 1181.26 910.313 1186.09C920.245 1191.3 919.918 1191.58 895.757 1198.75C878.47 1203.89 870.428 1208.44 869.002 1213.9C865.425 1227.55 859.69 1210.34 843.455 1228.15C834.731 1237.72 834.537 1238.59 841.706 1235.92C859.337 1229.35 876.078 1228.6 882.718 1234.09C894.466 1243.78 886.605 1229.56 900.607 1229.56C908.847 1229.56 911.028 1235.5 904.311 1239.66C895.571 1245.06 901.359 1252.8 926.501 1269.33C1004.87 1320.85 1054.15 1451.24 1007.3 1436.13C996.415 1432.62 964.923 1411.96 964.785 1408.24C964.724 1406.6 957.406 1400.77 948.516 1395.29C921.394 1378.55 855.841 1291.62 855.841 1272.39C855.841 1267.45 850.421 1257.86 843.793 1251.08C817.171 1223.85 850.391 1227.16 795.765 1134.71C776.913 1102.79 774.684 1094.66 788.671 1108.81ZM1018.07 1356.02C999.633 1319.61 984.333 1296.62 970.778 1284.95C955.474 1271.78 959.812 1267.12 977.535 1277.68C998.703 1290.3 1039.05 1310.32 1043.6 1310.48C1050.75 1310.72 1073.76 1326.16 1094.63 1326.36L1109.25 1326.49C1106.98 1338.63 1103.56 1358.87 1098.48 1372.2C1092.99 1386.59 1092.85 1414.08 1098.25 1417.41C1100.51 1418.81 1101.51 1421.32 1100.47 1422.99C1097.88 1427.19 1104.97 1476.58 1112.63 1507.63C1119.34 1534.85 1118.24 1543.29 1109.99 1527.86C1103.34 1515.44 1100.82 1515.02 1088.08 1498.31C1066.22 1469.65 1038.02 1452.19 1035.15 1420.28C1032.17 1387.28 1030.26 1380.07 1018.07 1356.02ZM1162.15 1136.66C1153.23 1157.77 1144.47 1178.67 1142.68 1183.11C1138.18 1194.31 1136.12 1187.61 1129.64 1140.62C1114.8 1032.98 1148.24 908.572 1153.15 872.106C1154.67 860.842 1182.8 748.759 1196.32 749.005C1220.73 749.454 1268.28 794.694 1277.82 826.554C1281.34 838.3 1285 843.478 1289.24 842.718C1305.03 839.895 1300.76 858.163 1280.05 882.074C1268.67 895.213 1254.68 914.701 1248.95 925.384C1169.44 1073.78 1195.9 1056.82 1162.15 1136.66ZM1320.33 908.493C1320.33 911.692 1315.22 916.955 1308.97 920.186C1243.99 953.783 1213.29 1053.89 1200.21 1064.77C1192.48 1071.18 1210.42 1024.67 1229.9 987.767C1238.54 971.409 1250.15 949.408 1255.71 938.879C1268.5 914.621 1298.9 874.126 1304.33 874.126C1307.64 874.125 1320.33 901.372 1320.33 908.493ZM1290.23 747.038C1291.82 755.847 1293.82 766.688 1294.67 771.131C1295.52 775.574 1297.31 791.48 1298.64 806.473C1301.44 838.107 1298.78 840.651 1288.34 816.32C1278.97 794.459 1275.82 794.593 1258.57 773.684C1228.5 737.243 1213.23 746.919 1129.26 701.842C1109.57 691.26 1104.71 655.583 1122.22 650.026C1126.25 648.75 1133.67 644.121 1138.71 639.747C1148.55 631.217 1177.32 628.793 1190.13 635.413C1193.99 637.404 1205.1 642.328 1214.81 646.351C1243.29 658.135 1283.96 712.448 1290.23 747.038ZM1162.81 622.176C1162.81 621.332 1170.02 613.21 1178.84 604.126L1194.87 587.606C1193.67 594.559 1190.72 612.504 1188.84 618.658C1187.51 623.016 1162.81 626.352 1162.81 622.176ZM1413.75 339.832C1397.65 360.205 1372.84 381.086 1372.84 374.269C1372.84 372.282 1377.63 366.252 1383.49 360.868C1389.35 355.48 1404.06 337.765 1416.18 321.495C1428.3 305.23 1439.09 292.79 1440.16 293.856C1443.21 296.913 1431.34 317.581 1413.75 339.832ZM1647.56 220.507C1698.39 259.1 1695.25 256.595 1709.99 270.3C1717.16 276.969 1728.28 285.148 1734.69 288.476C1750.79 296.837 1794.97 342.102 1801.56 357.002C1804.54 363.739 1808.31 369.248 1809.93 369.248C1821.71 369.248 1833.57 430.787 1825.69 451.038C1816.96 473.483 1790.25 465.469 1757.14 430.471C1691.23 360.79 1669.95 328.829 1649.15 268.272C1644.95 256.054 1633.69 234.474 1624.14 220.313C1601.35 186.543 1602.84 186.555 1647.56 220.507ZM1599.75 222.834C1619.62 256.782 1646.87 343.875 1648.2 377.694C1648.55 386.572 1650.35 394.771 1652.2 395.918C1659.96 400.712 1650.37 469.95 1639 491.178C1632.96 502.483 1615.18 486.133 1615.18 469.271C1615.18 466.884 1610.58 458.899 1604.95 451.524C1589.83 431.696 1563.55 380.118 1565.6 374.298C1566.58 371.523 1565.62 369.249 1563.47 369.249C1558.5 369.249 1557.15 354.523 1550.72 329.223C1533.03 259.718 1571.92 175.315 1599.75 222.834ZM1550.53 145.713C1574.33 131.71 1594.68 148.609 1593.53 181.434C1592.99 196.867 1566.71 210.967 1566.71 195.829C1566.71 193.466 1564.39 191.532 1561.55 191.532C1541.88 191.531 1533.3 155.847 1550.53 145.713ZM1543.73 212.574C1534.23 223.069 1535.18 237.826 1530.87 306.643C1526.42 377.875 1518.55 408.495 1498.95 430.843C1486.84 444.661 1483.81 440.044 1469.73 386.289C1453.44 324.072 1471.43 254.423 1517.48 201.464L1531.68 185.142C1551.16 204.613 1552.13 203.29 1543.73 212.574ZM1220.2 18.189C1216.6 7.91404 1307.16 9.02404 1338.51 19.643C1414.79 45.469 1400.83 46.477 1431.17 60.578C1451.72 70.13 1546.22 158 1520.89 154.541C1518.32 154.19 1494.41 152.695 1467.76 151.221C1367.71 145.689 1241 77.599 1220.2 18.189ZM1255.63 211.508C1203.48 195.09 1202.41 193.494 1226.87 168.642C1252.03 143.088 1339.36 123.789 1351.76 141.043C1356.51 147.655 1390.31 163.27 1399.84 163.27C1404.69 163.266 1413.4 165.063 1419.2 167.265C1424.99 169.466 1445.56 172.382 1464.9 173.748C1484.24 175.109 1502.43 178.15 1505.32 180.505C1509.26 183.716 1511.11 182.723 1512.74 176.51C1514.27 170.674 1517.22 168.844 1522.79 170.302C1532.04 172.721 1522.22 187.492 1511.37 187.492C1502.87 187.492 1475.69 203.648 1465.09 203.648C1454.36 203.648 1422.39 222.183 1399.09 225.592C1344.17 233.63 1317.62 231.025 1255.63 211.508ZM1325.13 353.431C1326.45 335.179 1329.67 325.586 1338.74 312.936C1358.32 285.626 1354.74 281.683 1382.02 260.505C1408.31 240.09 1411.43 235.96 1418.31 235.96C1421.29 235.96 1425.46 234.337 1427.57 232.349C1429.68 230.362 1439.58 226.949 1449.58 224.764C1480.5 218.005 1485.71 208.987 1470.93 233.327C1453.27 262.417 1456.52 241.467 1439.22 271.302C1424.42 296.837 1403.39 325.013 1379.53 351.295C1368.77 363.149 1361.16 374.765 1362.61 377.112C1364.06 379.463 1360.47 383.195 1354.64 385.412C1330.15 394.727 1322.72 386.684 1325.13 353.431ZM1363.32 395.199C1373.68 392.78 1372.15 395.328 1348.24 420.257C1321.3 448.344 1279.94 503.021 1279.94 510.554C1279.94 512.812 1278.3 514.653 1276.3 514.653C1271.23 514.653 1269.15 531.765 1252.11 557.035C1239.25 576.087 1231.11 592.716 1222.92 616.639C1220.07 624.971 1216.73 631.575 1215.52 631.317C1196.22 627.241 1196.21 628.675 1215.79 581.298C1240.6 521.273 1335.38 401.726 1363.32 395.199ZM1199.16 452.476C1204.72 457.828 1213.63 465.526 1218.97 469.586C1228.46 476.796 1228.53 477.288 1222 490.375C1218.33 497.746 1215.31 507.589 1215.31 512.246C1215.29 526.746 1183.74 575.344 1153.69 607.167C1140.74 620.872 1098.04 643.902 1085.55 643.902C1081.94 643.902 1072.45 646.629 1064.48 649.961C1041.12 659.719 985.093 656.88 985.093 645.938C985.093 634.576 1040.46 568.72 1065.26 550.585C1099.32 525.676 1149.76 500.396 1190.04 488.053C1217.42 479.66 1224.21 471.768 1200.78 475.568C1159.41 482.281 1060.76 535.794 1033.29 566.422C991.24 613.294 994.329 610.29 976.2 636.2L968.716 622.237C903.937 501.372 1099.98 356.953 1199.16 452.476ZM926.383 736.798C899.794 689.691 895.072 680.07 897.399 677.744C901.943 673.2 960.227 785.4 962.04 790.315C973.43 821.223 936.908 755.445 926.383 736.798ZM965.116 773.938C946.755 736.743 945.224 731.665 950.697 726.193C954.066 722.825 956.82 717.198 956.82 713.692C956.82 708.837 973.929 668.657 979.333 660.821C979.809 660.131 988.893 662.102 999.516 665.199C1017.62 670.479 1065.43 666.823 1094.21 657.961C1108.26 653.64 1089.22 695.731 1125.54 713.578C1131.19 716.353 1137.68 721.628 1139.95 725.3C1144.33 732.352 1144.19 732.897 1117.19 811.521C1085.38 904.165 1097.82 922.572 1091.6 945.818C1088.37 957.896 1089.1 955.648 1057.8 946.593C1036.7 940.49 1028.66 935.336 1031.95 930.021C1033.32 927.787 1036.61 928.179 1039.98 930.97C1048.64 938.164 1047.39 925.913 1038.26 914.05C1030.98 904.607 1005.98 856.717 965.116 773.938ZM744.477 955.184C781.773 920.146 952.692 917.359 1031.54 950.503C1044.76 956.065 1086.07 966.139 1086.07 970.977C1086.07 978.611 1054.95 999.565 1031.76 1007.55C986.539 1023.12 898.061 1020.01 848.57 1001.11C817.185 989.116 750.834 996.99 750.834 988.773C750.83 986.297 747.263 979.734 742.902 974.192L734.973 964.11L744.477 955.184ZM694.284 875.85C694.284 867.308 696.134 866.047 708.687 866.047C722.008 866.047 722.997 866.883 721.814 877.122C719.815 894.466 694.284 893.29 694.284 875.85ZM671.807 974.458C737.069 956.21 765.75 996.172 705.463 1021.36C687.462 1028.88 656.43 1029.56 650.884 1022.56C632.834 999.767 639.971 983.36 671.807 974.458ZM692.01 1117.11C693.597 1118.57 695.609 1125.84 696.477 1133.27C697.911 1145.53 707.35 1206.18 696.445 1178.06C692.495 1167.9 688.573 1113.94 692.01 1117.11ZM694.284 1074.06C699.77 1070.67 699.321 1096.55 694.284 1104.35C688.106 1113.92 689.46 1077.04 694.284 1074.06ZM291.934 1131.95C304.455 1069.32 439.843 1014.98 591.29 1011.78C625.682 1011.05 637.452 1017.07 607.446 1020.04C600.781 1020.69 592.602 1023.31 589.27 1025.83C459.351 1124.47 283.352 1174.82 291.934 1131.95ZM595.441 1134.88C579.822 1194.88 554.263 1233.52 524.758 1241.71C503.141 1247.72 494.283 1243.71 506.586 1233.5C517.346 1224.57 540.486 1165.11 540.7 1145.85C541.055 1113.75 577.314 1053.58 603.406 1041.8C648.829 1021.29 667.328 1042.45 630.411 1072.69C614.517 1085.71 602.828 1106.5 595.441 1134.88ZM636.764 1127.08C639.486 1121.11 639.716 1116.03 637.374 1113.68C624.179 1100.48 664.831 1043.76 687.482 1043.76C700.204 1043.76 700.338 1044.31 691.759 1060.89C680.123 1083.4 678.822 1094.76 682.542 1141.37C685.155 1174.09 687.926 1188.43 692.26 1191.63C698.055 1195.92 705.291 1220.9 684.683 1253.59L671.043 1275.22L664.698 1265.52C643.04 1232.41 626.388 1149.86 636.764 1127.08ZM581.648 1397.86C575.844 1399.28 569.874 1402.31 568.383 1404.59C557.191 1421.72 509.716 1410.41 518.17 1392.62C547.631 1330.65 551.222 1325.06 576.368 1302.02C598.054 1282.15 644.352 1253.82 647.414 1258.55C647.879 1259.27 651.384 1264.85 655.21 1270.96C664.851 1286.38 670.138 1285.05 691.489 1261.87C701.72 1250.76 712.985 1241.68 716.523 1241.68C726.054 1241.68 746.558 1227.98 749.655 1231.08C752.487 1233.91 726.067 1257.83 720.118 1257.83C714.253 1257.83 697.58 1279.49 684.506 1304.07C663.288 1343.97 612.445 1390.34 581.648 1397.86ZM707.915 1220.98C709.304 1214.04 710.565 1194.5 710.714 1177.56C711.009 1144.32 710.079 1143.79 727.488 1187.15C731.947 1198.26 737.246 1210.57 739.266 1214.51C744.402 1224.54 736.477 1221.93 721.604 1229.85C708.844 1236.67 705.246 1234.33 707.915 1220.98ZM773.359 1285.47C776.808 1297.72 776.663 1300.16 770.685 1330.54C763.669 1366.18 754.715 1394.24 747.198 1404.14C736.971 1417.61 726.595 1441.52 726.595 1451.64C726.595 1456.48 720.145 1468.31 712.264 1477.93C688.919 1506.42 686.539 1506.04 676.531 1472.18C662.702 1425.38 673.918 1352.04 701.9 1306.3C711.117 1291.23 755.151 1241.68 759.323 1241.68C769.021 1241.68 779.28 1258.04 774.813 1266.38C772.224 1271.22 771.61 1279.27 773.359 1285.47ZM726.07 1152.82C721.655 1136.16 716.409 1117.98 714.413 1112.43C693.927 1055.38 712.765 1019.67 739.447 1064.97C748.931 1081.08 759.929 1099.71 763.883 1106.37C774.646 1124.51 779.963 1137.94 783.715 1140.72C800.647 1153.24 824.42 1232.22 817.04 1251.44C804.011 1285.4 743.959 1220.29 726.07 1152.82ZM783.142 1278.12C783.142 1269.34 792.545 1265.08 805.034 1268.21C811.856 1269.92 815.883 1267.88 820.96 1260.13C829.499 1247.1 835.65 1246.83 835.65 1259.49C835.65 1265.41 830.771 1273.34 823.222 1279.69C806.281 1293.94 783.142 1293.04 783.142 1278.12ZM862.994 1479.69C861.471 1529.86 858.991 1534.55 843.061 1517.4C788.649 1458.84 793.589 1384.44 793.24 1308.59C798.76 1307.03 822.101 1301.02 825.895 1297.21C832.862 1290.23 838.974 1295.15 840.96 1309.33C842.132 1317.66 847.677 1340.96 853.291 1361.11C864.346 1400.79 865.106 1410.05 862.994 1479.69ZM883.67 1440.01C883.424 1436.45 883.501 1429.87 883.836 1425.38C884.514 1416.4 867.304 1343.23 860.28 1325.22C854.908 1311.45 854.847 1310.34 859.488 1310.34C861.491 1310.34 864.941 1315.34 867.154 1321.45C877.223 1349.28 978.182 1447.67 996.665 1447.67C1005.03 1447.67 1035.63 1481.08 1051.22 1507.24C1054.84 1513.3 1050.55 1513.16 1009.33 1505.86C967.644 1498.5 976.352 1495.77 947.984 1485.77C926.625 1478.23 884.227 1448.07 883.67 1440.01ZM1073.99 1548.75C1070.67 1546.65 1057.95 1543.72 1045.71 1542.23C995.239 1536.08 929.929 1508.1 903.743 1481.42C882.781 1460.06 885.087 1459.37 914.548 1478.22C943.403 1496.68 979.277 1510.11 1020.72 1517.97C1052.24 1523.95 1086.07 1539.86 1086.07 1548.69C1086.07 1553.67 1081.8 1553.69 1073.99 1548.75ZM1154.09 1636.69C1150.41 1630.16 1144.95 1621.77 1141.94 1618.04C1137.95 1613.07 1102.28 1544.36 1056.18 1493.1C1041.91 1477.23 1028.45 1455.74 1032.78 1455.74C1041.83 1455.74 1137.32 1578.46 1145.92 1601.15C1147.18 1604.48 1153.97 1615.39 1161 1625.38C1172.37 1641.54 1204.83 1695.19 1202.25 1702.94C1200.77 1707.38 1170.45 1665.66 1154.09 1636.69ZM1170.58 1761.61C1172.84 1709.13 1287.72 1688.52 1360.72 1727.49C1414.64 1756.28 1423.75 1754.2 1344.31 1757.33C1312.56 1758.58 1284.63 1759.97 1282.25 1760.43C1253.41 1766 1227.07 1772.79 1216.73 1777.32C1195.2 1786.76 1196.57 1777.32 1176.95 1800.07L1162.14 1817.23C1164.56 1799.45 1170.56 1761.91 1170.58 1761.61ZM1300.14 2109.26C1300.14 2107.48 1296.5 2102.39 1292.06 2097.95C1283.57 2089.46 1281.46 2081.79 1287.62 2081.79C1291.26 2081.79 1304.29 2101.8 1309.33 2115.11C1315.88 2132.46 1300.14 2112.29 1300.14 2109.26ZM1341.75 2185.28C1342.61 2182.79 1347.21 2188.79 1351.98 2198.62C1356.76 2208.44 1359.99 2217.15 1359.17 2217.98C1356.5 2220.64 1340.15 2189.96 1341.75 2185.28ZM1359.79 2261.27C1358.54 2260.02 1351.42 2258.96 1343.97 2258.9C1286.41 2258.51 1249.91 2239.14 1239.17 2203.29C1232.74 2181.82 1236.01 2179.35 1254.62 2191.63C1286.1 2212.41 1368.38 2242.81 1368.74 2260.52C1368.81 2264.07 1363.07 2264.55 1359.79 2261.27ZM1346.73 2170.77C1337.96 2163.49 1345.13 2163.32 1330.43 2134.3C1324.88 2123.34 1320.33 2111.74 1320.33 2108.52C1320.33 2105.29 1318.82 2102.05 1316.97 2101.31C1315.12 2100.57 1307.4 2089.74 1299.81 2077.25C1260.81 2013.09 1191.63 1931.62 1163.23 1916.41C1138.95 1903.42 1162.83 1874.28 1162.83 1852.71C1162.95 1760.32 1349.35 1770.66 1387.98 1764.45C1423.65 1758.72 1373.28 1832.37 1326.7 1854.06C1287.25 1872.43 1217.81 1865.66 1190.8 1840.81C1162.56 1814.82 1171.07 1870.8 1255.21 1875.01C1315.18 1878.02 1290.2 1881.43 1319.06 1941.2C1332.88 1969.86 1325.47 1964.5 1334.62 1978.46C1343.24 1991.62 1355.01 2035.2 1368.53 2069.21C1380.63 2099.59 1374.77 2103.03 1368.48 2085.83C1358.54 2058.72 1335.64 2019.07 1320.97 2003.6C1306.83 1988.69 1266.52 1956.58 1261.94 1956.58C1256.92 1956.58 1260.24 1969.14 1265.82 1971.28C1269.16 1972.57 1275.75 1986.6 1280.45 2002.46C1299.48 2066.62 1333.98 2114.3 1367.52 2122.77C1384.62 2127.1 1397.07 2145.25 1397.07 2165.88C1397.07 2177.15 1403.38 2173.21 1406.34 2196.9C1410.11 2227.06 1415.27 2224.86 1427.35 2296.87C1438.03 2360.59 1362.57 2183.91 1346.73 2170.77ZM1312.25 2051.64C1312.25 2048.23 1310.8 2045.44 1309.01 2045.44C1305.18 2045.44 1292 2010.19 1292.04 2000C1292.09 1979.68 1325.32 2016.21 1346.22 2059.58C1354.79 2077.35 1363.37 2095.05 1365.3 2098.91C1388.06 2144.49 1312.25 2074.68 1312.25 2051.64ZM1435.83 2275.66C1432.73 2249.76 1425.11 2214.27 1420.88 2206.05C1416.08 2196.74 1416.3 2187.8 1421.36 2186.11C1427.43 2184.09 1428.5 2059.33 1432.19 2049.48C1433.44 2046.15 1434.11 2035.94 1433.67 2026.8C1433.24 2017.66 1435.69 1988.58 1439.12 1962.18C1442.55 1935.77 1445.05 1903.27 1444.67 1889.94C1443.97 1865.23 1457 1799.06 1462.57 1799.06C1470.91 1799.06 1481.27 1812.88 1477.79 1819.37C1475.79 1823.11 1472.18 1838.55 1469.76 1853.69C1467.34 1868.83 1464.09 1883.18 1462.54 1885.58C1461 1887.98 1459.47 1893.57 1459.14 1898.01C1458.82 1902.46 1455.48 1924.27 1451.73 1946.48C1434.93 2045.96 1441.56 2282.19 1462.87 2343.46C1471.63 2368.66 1472.27 2373.57 1467.38 2378.46C1461.12 2384.72 1459.8 2392.79 1465.04 2392.79C1466.87 2392.79 1467.57 2398.25 1466.6 2404.91C1462.7 2431.46 1454.83 2417.38 1452.48 2379.67C1449.08 2325.12 1439.76 2308.54 1435.83 2275.66ZM1478.75 2523.84C1473.14 2519.9 1469.77 2513.35 1469.77 2506.33C1469.77 2500.17 1468.44 2493.78 1466.81 2492.15C1463.92 2489.26 1454.2 2450.95 1452.46 2435.61C1449.62 2410.43 1461.39 2429.98 1467.34 2460.33C1471.16 2479.84 1478.6 2503.52 1483.87 2512.96C1494.13 2531.35 1492.98 2533.8 1478.75 2523.84ZM1412.91 2618.42C1477.62 2621.5 1471.78 2609.97 1463.28 2717.94C1459.96 2760.14 1455.97 2795.82 1454.42 2797.23C1450.49 2800.78 1393.04 2742.91 1393.04 2735.4C1393.04 2732.04 1389.4 2726 1384.96 2721.98C1373.31 2711.44 1383.24 2715.64 1362.74 2687.11C1354.97 2676.28 1348.58 2666.07 1348.58 2664.41C1348.53 2660.03 1302.79 2610.9 1298.75 2610.9C1296.88 2610.9 1290.73 2607.27 1285.08 2602.82C1257.29 2580.96 1308.7 2613.45 1412.91 2618.42ZM1212.99 2578.88C1219.82 2582.88 1235.87 2590.03 1248.66 2594.78C1261.44 2599.53 1273.77 2606.92 1276.06 2611.2C1278.35 2615.48 1282.89 2618.98 1286.14 2618.98C1295.14 2618.98 1288.11 2625.26 1299.67 2628.93C1312.11 2632.87 1325.53 2662.77 1349.4 2688.04C1369.18 2708.98 1360.64 2724.99 1431.26 2792.66L1411.14 2792.3C1389.89 2791.92 1355.73 2783.95 1347.46 2777.44C1344.76 2775.32 1338 2772.49 1332.45 2771.17C1304.05 2764.38 1230.94 2704.58 1219 2678.37C1212.56 2664.26 1191.08 2657.71 1191.08 2649.05C1191.08 2640.25 1184.92 2647.73 1178.63 2634.13C1176.32 2629.13 1164.62 2617.77 1152.63 2608.88C1126.85 2589.78 1127.01 2590.32 1143.19 2576.71C1157.92 2564.32 1189.77 2565.31 1212.99 2578.88ZM1264.13 2791.88C1257.27 2774.76 1247.15 2739.28 1248.69 2737.74C1249.53 2736.91 1265.12 2747.41 1283.35 2761.09C1318.98 2787.84 1322.86 2794.56 1318.53 2821.99C1315.41 2841.75 1309.83 2853.29 1305.86 2862.71C1281.28 2829.69 1274.98 2821.03 1268.4 2820.98C1264.6 2820.94 1263.67 2817.89 1265.39 2811.07C1266.75 2805.64 1266.18 2797.01 1264.13 2791.88ZM1234.17 2899.3C1254.77 2894.37 1259.74 2889.94 1259.96 2876.33L1260.17 2863.34C1285.18 2899.08 1309.95 2975.3 1303.62 2974.15C1268.21 2967.8 1221.67 2924.03 1203.29 2909.79C1188.9 2898.65 1138.58 2838.51 1138.58 2832.48C1138.58 2830.38 1131.2 2818.67 1122.18 2806.46C1109.53 2789.34 1106.07 2781.3 1107.05 2771.3C1109.56 2745.84 1119.73 2793.35 1145.68 2823.85C1165.93 2847.64 1164.45 2853.28 1199.73 2876.11C1215.06 2886.02 1226.5 2895.91 1225.16 2898.08C1223.65 2900.53 1227.07 2900.99 1234.17 2899.3ZM1069.19 2543.42C1119.26 2506.4 1177.24 2514.93 1137.48 2553.47C1119.68 2570.71 1082.55 2583.63 1069.48 2577.11C1055.69 2570.24 1055.55 2553.5 1069.19 2543.42ZM660.47 2025.14L668.653 2014.09C688.848 1986.8 723.107 1986.43 733.697 2013.39C740.394 2030.44 746.791 2034.3 746.791 2021.3C746.791 2008.88 764.963 1998.79 777.249 2004.39C809.209 2018.95 746.865 2028.29 796.903 2040.88C831.618 2049.63 838.566 2089.87 805.357 2089.87C790.578 2089.87 801.241 2097.46 819.558 2099.97C850.921 2104.29 856.907 2132.28 831.647 2156.48C820.568 2167.09 820.075 2167.18 809.598 2160.31C794.561 2150.46 784.609 2159.39 798.224 2170.52C811.499 2181.38 803.361 2211.04 771.001 2211.04C757.419 2211.04 766.843 2209.26 709.802 2125.38C690.112 2096.41 708.752 2069.63 740.264 2081.61C759.324 2088.86 763.739 2133.31 746.327 2142.62C737.627 2147.28 736.028 2158.53 744.069 2158.53C764.074 2158.53 777.161 2114.11 764.817 2088.1C752.769 2062.72 719.374 2057.08 699.64 2077.11L688.33 2088.58C655.766 2047.63 656.025 2051.97 679.828 2045.75C667.931 2033.08 672.345 2037.78 660.47 2025.14ZM363.582 1677.59C359.329 1692.81 354.773 1691.59 328.753 1668.26C300.775 1643.17 302.875 1629.42 334.674 1629.42C361.045 1629.42 371.958 1647.61 363.582 1677.59ZM304.66 1577.36C308.364 1589.03 319.367 1587.22 316.41 1575.43C311.163 1554.56 364.312 1527.96 362.382 1577.18C362.039 1585.93 362.846 1594.18 364.171 1595.51C368.185 1599.52 375.202 1593.07 375.202 1585.38C375.202 1568.4 410.244 1557.03 423.064 1569.85C425.839 1572.62 430.293 1574.9 432.959 1574.9C440.282 1574.9 445.079 1631.42 425.232 1631.42C420.155 1631.43 417.457 1634.49 417.15 1640.57C416.843 1646.64 418.196 1648.57 421.189 1646.33C423.665 1644.48 430.107 1643.1 435.503 1643.26C455.104 1643.85 448.889 1684.41 426.832 1699.86C413.527 1709.18 392.892 1706.96 386.106 1695.48C384.329 1692.47 380.556 1690.01 377.721 1690.01C373.702 1690.01 373.436 1685.73 376.525 1670.66C385.52 1626.74 336.511 1596.71 303.964 1626.19C290.231 1638.63 266.147 1616.08 266.147 1590.78C266.148 1565.97 297.571 1555.03 304.66 1577.36ZM104.587 1559.61C104.587 1568.48 91.654 1564.07 76.524 1550.04C67.706 1541.87 67.319 1540.56 73.713 1540.56C83.948 1540.56 104.587 1553.29 104.587 1559.61ZM78.3338 1508.25C88.3298 1515.13 96.5098 1522.49 96.5098 1524.6C96.5098 1530.99 91.2028 1528.79 75.3048 1515.8C54.1638 1498.53 56.3368 1493.12 78.3338 1508.25ZM155.096 1626.75C146.481 1614.97 136.08 1622.96 139.097 1639.04C145.069 1670.9 120.535 1678.66 101.915 1658.7L91.5508 1647.6L85.4598 1656.69C77.7778 1668.15 61.8799 1668.75 58.9879 1657.7C57.6069 1652.41 53.4789 1649.62 47.0279 1649.62C29.1919 1649.62 16.4568 1628.25 31.8858 1624.21C43.5988 1621.15 41.7898 1612.01 28.2908 1606.03C7.69584 1596.92 10.826 1568.21 31.692 1574.84C44.281 1578.83 42.0519 1567.99 27.6409 1555.16C5.58393 1535.5 26.8928 1504.35 51.6688 1520.03C56.4588 1523.06 56.3048 1526.13 50.6588 1540.25C42.0158 1561.85 42.0068 1561.81 55.7198 1576.49C71.0198 1592.87 91.0849 1593.58 110.925 1578.45C126.697 1566.42 149.873 1570.23 146.46 1584.29C145.354 1588.83 149.142 1593.04 158.024 1597.11C169.042 1602.17 171.437 1605.68 172.483 1618.32C173.873 1635.08 164.506 1639.62 155.096 1626.75ZM283.993 1719.87C274.675 1723.45 274.865 1723.59 268.221 1707.69C255.994 1678.43 262.187 1669.24 279.926 1690.32C291.779 1704.41 293.412 1716.25 283.993 1719.87ZM461.705 1893.4C456.402 1907.21 419.631 1893.19 419.631 1877.35C419.631 1874.05 416.679 1871.94 412.979 1872.59C402.251 1874.51 402.328 1865.46 413.145 1853.02L423.194 1841.47L436.559 1855.63C460.671 1881.17 464.302 1886.62 461.705 1893.4ZM775.36 2401.97C760.355 2383.77 759.826 2375.36 772.86 2362.32C786.843 2348.34 789.674 2349.64 797.454 2373.61C801.234 2385.28 805.923 2396.54 807.874 2398.65C809.821 2400.76 811.416 2405.76 811.416 2409.76C811.416 2423.7 789.339 2418.94 775.36 2401.97ZM852.365 2449.34C848.965 2449.34 836.346 2419.87 821.862 2388C812.414 2367.22 803.773 2336.25 773.462 2288.39C772.829 2287.39 676.813 2124.75 653.717 2103.84C649.371 2099.91 645.816 2095.34 645.816 2093.69C645.816 2091.11 627.717 2065.7 570.295 1987.65C550.953 1961.37 480.217 1879.25 480.217 1868.37C480.217 1865.79 478.791 1863.69 477.05 1863.69C475.305 1863.69 470.49 1857.78 466.346 1850.56C450.396 1822.76 367.442 1734.7 357.026 1734.5C351.654 1734.4 320.808 1702.32 295.055 1670.06C240.224 1601.36 145.623 1563.98 127.541 1550.19C113.495 1539.46 101.852 1534.19 105.221 1530.64C108.688 1527 143.124 1551 194.293 1578.47C281.263 1625.17 371.425 1732.58 426.714 1789.02C485.498 1849.04 507.244 1872.64 532.755 1904.08C542.671 1916.29 553.079 1927.74 555.89 1929.52C563.578 1934.39 559.015 1943.02 564.408 1945.14C569.255 1947.05 597.245 1992.13 648.706 2058.09C687.573 2107.91 697.966 2123.24 710.539 2149.28C715.054 2158.63 720.624 2167.44 722.918 2168.86C728.427 2172.26 728.52 2179.11 750.521 2213.98C773.4 2250.27 759.928 2233.79 792.89 2294.61C820.629 2345.79 819.227 2352.41 823.477 2352.41C828.378 2352.41 839.518 2393.71 843.349 2396.84C848.123 2400.74 867.959 2433.06 867.959 2436.94C867.959 2439.1 870.229 2442.32 873.008 2444.1C880.207 2448.7 886.625 2466.08 909.153 2495.78C917.578 2506.9 924.491 2518.26 924.491 2521.03C924.499 2523.81 924.051 2525.79 923.497 2525.44C922.94 2525.08 916.699 2524.07 909.631 2523.18C899.356 2521.9 896.266 2519.27 894.25 2510.11C892.865 2503.8 888.409 2497.76 884.346 2496.7C869.068 2492.71 857.837 2449.34 852.365 2449.34ZM983.978 2623.74C981.147 2626.68 969.103 2646.34 957.216 2667.45C906.894 2756.8 882.841 2783.3 825.487 2812.64C807.873 2821.64 792.395 2829.01 791.087 2829.01C782.047 2829.01 797.097 2726.04 807.186 2718.84C810.999 2716.12 823.702 2705.72 835.415 2695.72C847.124 2685.73 862.569 2672.63 869.734 2666.62C884.602 2654.15 976.433 2610.95 988.122 2610.91C991.095 2610.9 988.442 2619.12 983.978 2623.74ZM979.741 2590.71C976.594 2590.71 961.517 2595.98 946.233 2602.42C833.228 2650.06 703.812 2661.49 672.161 2643.86C647.067 2629.87 622.768 2592.18 644.134 2600.38C647.656 2601.73 671.737 2595.31 697.651 2586.12C837.724 2536.43 856.643 2532.28 924.506 2536.29C1003.49 2540.96 1053.99 2590.71 979.741 2590.71ZM1056.74 2871.18C1029.67 2901.81 1006.71 2866.81 1005.61 2793.24C1005.4 2779.11 1004.23 2765.94 1003 2763.96C986.995 2738.06 1006.57 2638.63 1032.87 2612.28C1057.69 2587.4 1064.09 2588.71 1067.29 2619.34C1070.26 2647.72 1084.33 2709.92 1090.6 2722.4C1105.17 2751.35 1085.23 2838.93 1056.74 2871.18ZM1106.03 2597.96C1121.22 2595.73 1177.91 2644.19 1191.88 2671.35C1200.57 2688.28 1215.32 2706.39 1215.32 2716.05C1215.32 2719.95 1217.65 2724.03 1220.49 2725.12C1223.34 2726.21 1228.12 2736.86 1231.11 2748.77C1241.87 2791.61 1241.22 2758.57 1250.27 2828.29C1253.54 2853.59 1247.29 2889.62 1244.31 2889.34C1224.26 2887.47 1162.81 2838.28 1162.81 2824.12C1162.81 2818 1130.5 2779.37 1130.5 2765.51C1130.5 2760.19 1129.01 2756.75 1127.2 2757.87C1121.78 2761.22 1101.03 2712.15 1105.52 2706.59C1108.08 2703.43 1106.06 2685.97 1099.62 2655.58C1088.5 2603.14 1088.8 2600.49 1106.03 2597.96ZM1278.61 3003.35C1274.55 2999.76 1262.74 2993.11 1252.36 2988.59C1202.84 2966.98 1139.08 2905.79 1112.35 2854.22C1106.3 2842.54 1099.89 2832.09 1098.12 2830.99C1096.35 2829.9 1096.85 2822.67 1099.23 2814.93C1103.54 2800.87 1114.34 2801.18 1114.34 2815.37C1114.34 2823.83 1122.42 2817.19 1122.42 2829.01C1122.42 2840.95 1130.5 2834.5 1130.5 2841.3C1130.5 2850.28 1214.38 2942.1 1222.58 2942.1C1223.33 2942.1 1229.72 2946.46 1236.79 2951.8C1295.35 2995.95 1302.29 2968.46 1312.15 2998.33C1322.19 3028.74 1309.47 3030.64 1278.61 3003.35ZM1296.1 3241.25C1296.1 3239.77 1286.25 3228.4 1274.23 3215.99C1254.61 3195.73 1252.07 3191.07 1249.53 3170.75C1247.97 3158.29 1245.09 3148.09 1243.12 3148.09C1237.18 3148.09 1239.08 3139.9 1247.9 3127.51C1254.66 3118.02 1259.24 3115.78 1271.87 3115.78C1349.49 3115.78 1328.24 3216.31 1342.46 3250.08C1349.83 3267.61 1296.1 3245.73 1296.1 3241.25ZM1364.26 3223.13C1355.08 3259.6 1348.85 3232.19 1346.3 3144.05C1345.04 3100.85 1343.7 3104.38 1338.74 3067.31C1326.51 2975.99 1309.7 2943.89 1300.33 2919.89C1285.83 2882.78 1277.71 2867.17 1267.73 2857.2C1257.06 2846.53 1261.54 2825.73 1272.39 2835.55C1282.48 2844.68 1310.27 2893.19 1316.49 2912.56C1319.22 2921.03 1323.02 2931.6 1324.93 2936.04C1329.89 2947.54 1328.89 2959.82 1337.9 2998.73C1352.58 3062.16 1358.02 3176.82 1365.05 3195.3C1367.46 3201.64 1367.18 3211.54 1364.26 3223.13ZM1434.18 2969.17C1432.06 2978.5 1431.21 2987.01 1432.29 2988.09C1433.36 2989.16 1428.54 3007.77 1421.56 3029.43C1413.22 3055.33 1409.73 3072.71 1411.38 3080.2C1415.34 3098.23 1395.41 3124.28 1385.06 3157.18C1379.45 3174.97 1373.1 3176.97 1372.21 3161.22C1370.55 3131.77 1368.7 3114.38 1362.86 3073.37C1348.91 2975.45 1329.05 2912.94 1336.58 2910.43C1342.6 2908.42 1358.85 2881.81 1362.11 2868.63C1367.29 2847.64 1368.79 2805.24 1364.44 2802.56C1357.5 2798.27 1356.39 2802.2 1355.05 2835.92C1353.8 2867.3 1339 2905.75 1328.19 2905.75C1317.27 2905.75 1314.88 2872.74 1323.64 2842.95C1328.49 2826.49 1332.45 2807.83 1332.45 2801.49C1332.45 2787.29 1335.39 2784.01 1343.99 2788.59C1353.54 2793.68 1386.48 2800.74 1400.68 2800.74C1415.16 2800.74 1441.24 2806.83 1454.7 2809.72C1452.89 2825.95 1448.97 2860.53 1447.42 2877.48C1445.01 2903.85 1438.04 2952.13 1434.18 2969.17ZM1469.14 2970.52C1467.44 2971.7 1462.26 2981.25 1457.62 2991.72C1448.08 3013.31 1439.86 3017.6 1446.31 2997.64C1448.64 2990.42 1451.45 2978.15 1452.56 2970.38C1455.61 2949.02 1461.46 2951.97 1461.05 2939.9C1460.9 2935.56 1463.69 2912.01 1467.25 2887.57C1486.11 2758.09 1484.06 2715.12 1483.91 2614.95C1497.57 2614.95 1492.5 2614.95 1506.13 2614.94C1506.13 2652.3 1507.23 2701.54 1499.83 2786.76C1496.36 2826.66 1492.89 2868.39 1492.12 2879.5C1490.59 2901.67 1474.08 2967.08 1469.14 2970.52ZM1658.13 2708.16C1653.78 2729.9 1628.12 2777.77 1608.2 2801.28C1578.01 2836.92 1531.36 2894.73 1516.49 2911.05C1500.54 2928.53 1510.66 2924.63 1498.05 2936.04C1488.38 2944.79 1488.25 2943.94 1495.93 2922.17C1500.82 2908.31 1509.97 2837.5 1516.32 2764.39C1517.7 2748.43 1521.96 2663.56 1513.55 2612.66C1540.65 2601.43 1530.61 2605.59 1557.67 2594.38L1575.56 2606.44C1613.94 2632.35 1661.56 2691.01 1658.13 2708.16ZM1525.31 2395.48C1600.68 2388.52 1689.18 2454.58 1670.32 2503.72C1668.84 2507.58 1670.26 2511.17 1673.81 2512.53C1682.99 2516.06 1681.7 2563.92 1671.83 2585.66C1664.9 2600.93 1655.57 2608.77 1655.57 2599.32C1655.57 2587.81 1617.17 2532.16 1591.96 2507.12C1575.85 2491.13 1562.67 2476.12 1562.67 2473.79C1562.67 2471.45 1558.99 2469.54 1554.5 2469.54C1547.21 2469.54 1547.76 2471.14 1559.55 2484.28C1573.55 2499.89 1573.89 2500.2 1593.3 2515.72C1608.77 2528.07 1623.77 2558.78 1635 2578.59C1671.46 2642.88 1664.32 2699.07 1651.33 2664.89C1646.39 2651.92 1578.85 2586.01 1566.16 2581.77C1556.84 2578.67 1505.21 2522.69 1498.17 2508.06C1477.89 2465.94 1470.29 2396.83 1485.93 2396.83C1490.38 2396.83 1494.01 2399.37 1494.01 2402.48C1494.01 2409.75 1537.53 2465.5 1543.2 2465.5C1548 2465.5 1545.71 2462 1517.23 2425.85C1493.58 2395.81 1492.87 2398.48 1525.31 2395.48ZM1676.47 1961.58C1637.6 1984.54 1566.71 2080.62 1566.71 2110.33C1566.71 2120.62 1554.59 2123.38 1554.59 2135.11C1554.59 2146.38 1534.82 2190.27 1532.61 2201.75C1530.22 2214.14 1521.64 2241.11 1520.04 2255.47C1512.79 2320.63 1492.72 2382.98 1491.87 2383.98C1489.02 2387.32 1485.68 2375.73 1487.67 2369.43C1490.12 2361.74 1494.34 2324 1495.69 2297.88C1496.92 2273.94 1506.15 2270.59 1506.15 2250.69C1506.18 2230.76 1516.02 2223.66 1517.37 2204.98C1518.38 2191.14 1533.25 2135.79 1538.79 2125.27C1540.82 2121.41 1542.48 2114.59 1542.48 2110.12C1542.48 2098.06 1550.56 2105.62 1550.56 2094.72C1550.56 2083.78 1557.91 2083.96 1560.54 2070.28C1562.09 2062.21 1578.91 2034.6 1591.88 2018.84C1609.87 1996.97 1691.44 1926.73 1694.97 1930.07C1698.81 1933.71 1685.63 1956.17 1676.47 1961.58ZM1681.73 1913.77C1674.83 1930.27 1662.45 1940.58 1631.91 1955.21C1583.39 1978.47 1523.87 1975.02 1527.34 1949.15C1533.04 1906.66 1554.76 1880.92 1599.41 1863.74C1630.36 1851.83 1662.28 1835.59 1684.13 1835.27C1698.75 1835.05 1709.18 1823.65 1724.44 1823.44C1730.1 1823.36 1736.88 1821.15 1739.51 1818.52C1750.97 1807.06 1747.77 1820.1 1735.04 1836.78C1712.09 1866.86 1712 1890.67 1697.1 1896.33C1691.81 1898.34 1684.9 1906.19 1681.73 1913.77ZM1829.42 1845.51C1826.74 1871.94 1826.87 1872.19 1818.71 1825.31C1816.26 1811.24 1825.78 1803.66 1830.12 1816.23C1831.08 1819 1830.76 1832.18 1829.42 1845.51ZM1860.23 1798.9C1866.84 1785.64 1870.47 1784.27 1877.28 1792.48C1884.21 1800.82 1939.47 1819.73 1954.46 1823.51C1982.31 1830.53 2052.36 1859.3 2054.76 1864.69C2055.5 1866.36 2058.81 1867.72 2062.11 1867.72C2075.55 1867.72 2108.04 1895.09 2148.23 1940.27C2175.17 1970.55 2185.66 2003.34 2170.28 2009.19C2157.38 2014.09 2160.82 2012.94 2127.01 2008.58C2074.97 2001.89 2001.36 1953.82 1959.48 1899.18C1937.98 1871.12 1922.14 1854.4 1908.79 1845.65C1892.44 1834.94 1901.77 1827.33 1890.06 1827.33C1870.12 1827.33 1853.8 1811.78 1860.23 1798.9ZM1872.54 1844.12C1878.26 1846.6 1918.1 1894.47 1918.1 1898.84C1918.1 1901.18 1920.56 1905.12 1923.55 1907.61C1946.06 1926.29 1975.78 2060.8 1962.74 2084.95C1960.67 2088.76 1957.93 2096.89 1956.65 2103C1940.09 2181.56 1832.49 1951.06 1844.21 1862.15C1845.42 1853 1846.24 1840.41 1846.05 1834.17L1845.69 1822.82C1850.35 1826.74 1868.54 1842.36 1872.54 1844.12ZM1808.89 1607.21C1812.7 1597.93 1829.28 1630.33 1829.21 1646.92C1829.17 1658.95 1798.1 1677.54 1794.35 1667.78C1792.15 1662.04 1800.26 1628.25 1808.89 1607.21ZM1798.41 1681.93C1801.44 1681.93 1808.54 1678.29 1814.19 1673.85C1819.84 1669.41 1825.58 1665.77 1826.93 1665.77C1830.24 1665.77 1825.09 1686.73 1820.27 1692.86C1814.1 1700.7 1825.78 1706.16 1812.28 1706.16C1807.13 1706.16 1800.66 1702.55 1797.91 1698.14C1791.38 1687.68 1791.56 1681.93 1798.41 1681.93ZM1794.46 1723.45C1796.06 1721.85 1798.89 1722.99 1800.74 1725.98C1805.08 1733 1813.46 1727.99 1810.46 1720.17C1806.37 1709.51 1817.51 1713.94 1831.81 1728.67C1854.69 1752.23 1861.95 1786.44 1846.52 1798.05C1838.64 1803.98 1838.83 1803.99 1823.09 1797.07C1804.31 1788.82 1783.25 1734.66 1794.46 1723.45ZM1784.7 1795.7C1784.87 1787.65 1792.81 1791.85 1798.87 1803.21C1810.02 1824.08 1818.47 1940.69 1809.84 1954.48C1808.42 1956.75 1806.93 1960.42 1806.54 1962.64C1800.35 1997.23 1786.23 2032.92 1768.24 2059.43C1742.73 2097.03 1712.12 2086.37 1712.12 2039.88C1712.12 2036.54 1710.3 2032.68 1708.07 2031.3C1695.12 2023.29 1712.21 1900 1728.77 1882.06C1730.72 1879.95 1732.31 1875.6 1732.31 1872.39C1732.31 1864.55 1756.76 1828.26 1772.18 1813.2C1779.01 1806.53 1784.64 1798.66 1784.7 1795.7ZM1768.66 1756.02C1768.66 1759.15 1771.39 1763.99 1774.72 1766.75C1784.18 1774.6 1784 1786.34 1765.35 1770.78C1751.62 1759.34 1741.88 1764.78 1693.18 1741.9C1674.99 1733.35 1659.09 1726.36 1657.85 1726.36C1650.51 1726.36 1600.86 1684.56 1576.81 1658.14C1561.26 1641.06 1539.8 1619.1 1529.11 1609.34C1486.19 1570.14 1467.58 1540.82 1492.98 1552.41C1499.1 1555.2 1513.55 1557.92 1525.09 1558.46C1600.74 1562.01 1768.66 1698.21 1768.66 1756.02ZM1737.04 1251.15C1724.42 1262.57 1711.44 1260.01 1714.63 1246.72C1719.15 1227.94 1732.16 1205.32 1738.45 1205.32C1747.76 1205.32 1746.61 1242.49 1737.04 1251.15ZM2040.33 762.042C2029.79 773.045 2025.83 774.422 2016.05 770.476C2004.46 765.799 2029.01 730.95 2042.1 733.511C2052.69 735.579 2051.79 750.079 2040.33 762.042ZM2181.35 544.804C2160.64 564.878 2142.01 581.903 2139.95 582.646C2137.9 583.385 2136.21 586.418 2136.21 589.383C2136.21 596.015 2103.19 634.382 2049.37 690.278C2021.25 719.484 2000.03 745.039 1989.29 762.621C1985.12 769.443 1979.53 776.879 1976.87 779.141C1970.1 784.892 1932.8 836.975 1923.66 853.451C1909.9 878.25 1907.2 882.39 1900.24 889.398C1891.34 898.371 1868.74 935.824 1853.91 958.946C1832.6 992.128 1844.25 987.311 1811.08 1025.28C1796.17 1042.36 1785.71 1063.3 1777.9 1071.32C1770.03 1079.39 1775.56 1082.31 1767.05 1091.92C1752.29 1108.56 1717.21 1188.38 1681.12 1248.68C1657.18 1288.69 1665.97 1282.75 1655.93 1291.84C1651.69 1295.68 1647.2 1302.86 1645.96 1307.79C1643.37 1318.14 1600.04 1394.68 1592.49 1402.25C1579.85 1414.93 1549.36 1507.84 1547.51 1513.3C1537.64 1542.4 1536.09 1544.6 1525.55 1544.6C1499.76 1544.6 1528 1522.99 1525.8 1513.77C1524.29 1507.46 1531.2 1479.94 1534.86 1477.68C1536.83 1476.46 1538.44 1472.7 1538.44 1469.32C1538.44 1461.99 1574.79 1385.1 1574.79 1384.57C1574.79 1382.11 1591.12 1359.18 1600.04 1349.11C1603.92 1344.72 1607.1 1338.62 1607.1 1335.56C1607.1 1327.28 1625.34 1309.61 1629.63 1292.43C1636.04 1266.71 1677.43 1209.36 1680.11 1209.36C1681.68 1209.36 1684.01 1205.28 1685.27 1200.28C1686.54 1195.28 1695.83 1178.65 1705.91 1163.33C1732.84 1122.39 1718.26 1137.71 1734.67 1113.62C1757.5 1080.07 1766.24 1040.84 1786.61 1014.14C1806.56 987.993 1808.46 965.132 1849.83 921.919C1865.43 905.63 1890.21 874.125 1904.91 851.911C1919.6 829.696 1933.72 809.703 1936.28 807.482C1944.94 799.967 2027.54 672.66 2042.32 666.169C2047.31 663.975 2051.39 659.658 2051.39 656.568C2051.39 653.482 2069.89 633.464 2092.5 612.09C2237.97 474.543 2155.23 540.331 2264.85 453.284C2309.15 418.093 2316.94 454.823 2292.27 450.355C2287.92 449.567 2288.68 453.849 2249.31 484.634C2232.64 497.656 2202.06 524.734 2181.35 544.804ZM2306.4 488.985L2297.46 479.469L2281.46 487.385C2253.52 501.216 2269.43 512.459 2275.56 502.535C2279.3 496.485 2294.79 497.668 2304.95 504.785C2321.87 516.635 2313.13 540.99 2292.97 538.171C2284.88 537.044 2283.81 538.381 2284.96 548.188C2286.93 564.962 2279.8 571.558 2265.21 566.469C2243.31 558.835 2261.56 538.886 2245.25 538.886C2238.63 538.886 2237.35 541.233 2238.18 551.714C2239.03 562.324 2236.83 566.166 2225.48 573.929C2207.7 586.098 2202.33 586.058 2204.55 573.775C2204.9 571.861 2202.03 567.992 2198.19 565.18C2188.79 558.306 2192.71 560.413 2214.95 533.393C2232.61 511.93 2224.52 527.059 2250.18 502.163C2259.54 493.071 2275.77 481.289 2286.24 475.986C2296.71 470.679 2306.43 464.487 2307.82 462.221C2319.32 443.63 2315.76 487.625 2319.97 494.432C2324.8 502.249 2315.26 498.416 2306.4 488.985Z" fill="#1B1B1B"/>
<path d="M812.424 3022.95C801.761 3022.81 808.624 3029.59 836.759 3047.01C871.256 3068.37 949.193 3144.64 971.699 3179.08C980.165 3192.02 988.824 3203.86 990.945 3205.38C1012.56 3220.86 982.507 3171.38 943.882 3127.9C902.51 3081.32 829.691 3023.19 812.424 3022.95Z" fill="#1B1B1B"/>
<path d="M1852.48 2785.06C1814.49 2792.69 1768.64 2761.72 1768.64 2728.41C1768.64 2719.26 1762.33 2713.83 1758.64 2719.8C1749.44 2734.69 1787.19 2789.38 1813.13 2798.73C1837.42 2807.5 1823.17 2806.42 1886.46 2785.99C1930.76 2771.66 1873.67 2694.47 1819.99 2696.12C1807.55 2696.5 1807.77 2696.76 1825.19 2702.21C1898.79 2725.23 1914.4 2772.63 1852.48 2785.06Z" fill="#1B1B1B"/>
<path d="M1003.57 2497.28C1001.59 2500.49 1021.34 2517.31 1033.48 2522.77C1042.28 2526.72 1053.74 2526.66 1053.74 2522.66C1053.73 2517.61 1005.95 2493.44 1003.57 2497.28Z" fill="#1B1B1B"/>
<path d="M1013.39 2470.54C1013.44 2475.33 1020.96 2481.27 1059.37 2506.82C1075.89 2517.81 1086.05 2520.86 1086.05 2514.84C1086.05 2513.09 1080.14 2508.18 1072.93 2503.92C1065.71 2499.66 1050.72 2489.28 1039.61 2480.85C1017.95 2464.43 1013.31 2462.61 1013.39 2470.54Z" fill="#1B1B1B"/>
<path d="M980.884 2452.24C960.196 2457.64 955.397 2479.59 972.955 2488.52C985.29 2494.78 987.556 2494.89 997.456 2489.59C1015.77 2479.78 1001.2 2446.94 980.884 2452.24ZM975.822 2473.57C974.255 2467.58 975.701 2465.49 981.412 2465.49C986.416 2465.49 989.11 2468.32 989.11 2473.57C989.111 2484.07 978.652 2484.38 975.822 2473.57Z" fill="#1B1B1B"/>
<path d="M1055.44 2434.35C1059.72 2420.61 1051.42 2408.95 1037.35 2408.95C1020.63 2408.95 1013.29 2424.32 1022.96 2439.08C1033.12 2454.57 1049.89 2452.13 1055.44 2434.35ZM1033.05 2417.03C1044.6 2417.03 1051.95 2427.62 1045.66 2435.2C1039.58 2442.53 1036.65 2442.76 1030.31 2436.41C1022.74 2428.85 1024.41 2417.03 1033.05 2417.03Z" fill="#1B1B1B"/>
<path d="M1133.71 2436.41C1145.72 2424.4 1135.86 2396.83 1119.55 2396.83C1098.43 2396.83 1085.66 2423.85 1101.19 2435.64C1110.08 2442.38 1127.33 2442.79 1133.71 2436.41ZM1106.53 2410.27C1113.39 2403.41 1130.92 2413.16 1129.56 2423.08C1128.27 2432.49 1114.53 2435.81 1107.2 2428.49C1101.06 2422.34 1100.82 2415.98 1106.53 2410.27Z" fill="#1B1B1B"/>
<path d="M1961.5 1776.58C1950.48 1775.11 1942.32 1775.61 1942.32 1777.78C1942.32 1779.85 1950.95 1783.42 1961.5 1785.71C2010.35 1796.3 2027.14 1790.36 2027.14 1762.51C2027.14 1733.21 1979.89 1727.17 1949.67 1752.6C1938.63 1761.89 1927.47 1765.27 1899.91 1767.7C1881.17 1769.35 1889.59 1776.93 1909.3 1776.16C1920.1 1775.74 1937.97 1769.95 1956.05 1761.02C1999.66 1739.47 2024.96 1743.11 2016.04 1769.64C2011.93 1781.85 2006.24 1782.57 1961.5 1776.58Z" fill="#1B1B1B"/>
<path d="M1700.58 1297.35C1703.13 1296.49 1704.45 1293.45 1703.49 1290.59C1701.46 1284.48 1695.31 1290.61 1682.57 1300.92C1687.97 1310.52 1696.54 1327.05 1706.04 1335.33C1719.53 1347.11 1740.07 1342.14 1755.29 1323.41C1759.48 1318.26 1761.51 1318.57 1770.7 1325.8C1786.06 1337.89 1801.94 1330.73 1811.73 1307.31C1815.02 1299.44 1820.11 1294.18 1824.44 1294.18C1855.03 1294.18 1881.29 1249.45 1861.31 1231.37C1843.32 1215.09 1872.62 1194.41 1852.16 1170.64C1836.69 1152.65 1781.05 1147.96 1768.11 1163.55C1763.73 1168.83 1764.98 1169.27 1777.66 1166.88C1812.94 1160.27 1842.75 1166.43 1847.47 1181.32C1851.5 1193.99 1842.06 1220.08 1830.78 1227.47C1817.49 1236.18 1823.53 1245.01 1837.61 1237.47C1845.64 1233.17 1847.82 1233.7 1854.14 1241.51C1861.97 1251.18 1857.71 1268 1848.23 1264.83C1843.7 1263.32 1840.19 1265.42 1826.64 1277.72C1811.22 1291.74 1800.95 1254.37 1800.95 1291.53C1800.95 1314.51 1789.87 1326.06 1774.53 1319.07C1766.74 1315.52 1764.57 1311.85 1765.45 1303.71C1767.08 1288.81 1756.52 1288.39 1756.52 1295.21C1756.52 1306.31 1734.73 1330.23 1724.47 1330.38C1706.71 1330.65 1686.11 1302.17 1700.58 1297.35Z" fill="#1B1B1B"/>
</svg>
